STARTFONT 2.1
COMMENT
COMMENT Converted from OpenType font "arialbd.ttf" by "otf2bdf 3.0".
COMMENT
FONT -FreeType-Arial-Bold-R-Normal--14-100-100-100-P-74-ISO10646-1
SIZE 10 100 100
FONTBOUNDINGBOX 25 21 -7 -5
STARTPROPERTIES 19
FOUNDRY "FreeType"
FAMILY_NAME "Arial"
WEIGHT_NAME "Bold"
SLANT "R"
SETWIDTH_NAME "Normal"
ADD_STYLE_NAME ""
PIXEL_SIZE 14
POINT_SIZE 100
RESOLUTION_X 100
RESOLUTION_Y 100
SPACING "P"
AVERAGE_WIDTH 74
CHARSET_REGISTRY "ISO10646"
CHARSET_ENCODING "1"
FONT_ASCENT 12
FONT_DESCENT 2
COPYRIGHT "© 2010 The Monotype Corporation. All Rights Reserved."
_OTF_FONTFILE "arialbd.ttf"
_OTF_PSNAME "Arial-BoldMT"
ENDPROPERTIES
CHARS 2815
STARTCHAR 0020
ENCODING 32
SWIDTH 288 0
DWIDTH 4 0
BBX 0 0 0 0
BITMAP
ENDCHAR
STARTCHAR 0021
ENCODING 33
SWIDTH 360 0
DWIDTH 5 0
BBX 2 10 1 0
BITMAP
C0
C0
C0
C0
40
40
40
00
C0
C0
ENDCHAR
STARTCHAR 0022
ENCODING 34
SWIDTH 504 0
DWIDTH 7 0
BBX 5 4 1 6
BITMAP
D8
D8
D8
D8
ENDCHAR
STARTCHAR 0023
ENCODING 35
SWIDTH 576 0
DWIDTH 8 0
BBX 8 10 0 0
BITMAP
12
36
36
FF
24
64
FF
6C
48
48
ENDCHAR
STARTCHAR 0024
ENCODING 36
SWIDTH 576 0
DWIDTH 8 0
BBX 6 12 1 -1
BITMAP
20
78
F8
EC
E0
F0
3C
2C
EC
FC
78
20
ENDCHAR
STARTCHAR 0025
ENCODING 37
SWIDTH 864 0
DWIDTH 12 0
BBX 11 10 1 0
BITMAP
E100
B300
B200
B600
E400
0DC0
0B60
1B60
1360
31C0
ENDCHAR
STARTCHAR 0026
ENCODING 38
SWIDTH 720 0
DWIDTH 10 0
BBX 8 10 1 0
BITMAP
3C
64
64
7C
78
FA
CF
CF
CF
7F
ENDCHAR
STARTCHAR 0027
ENCODING 39
SWIDTH 216 0
DWIDTH 3 0
BBX 2 4 1 6
BITMAP
C0
C0
C0
80
ENDCHAR
STARTCHAR 0028
ENCODING 40
SWIDTH 360 0
DWIDTH 5 0
BBX 3 13 1 -3
BITMAP
20
60
40
C0
C0
C0
C0
C0
C0
C0
40
60
20
ENDCHAR
STARTCHAR 0029
ENCODING 41
SWIDTH 360 0
DWIDTH 5 0
BBX 3 13 1 -3
BITMAP
80
C0
C0
60
60
60
60
60
60
40
C0
C0
80
ENDCHAR
STARTCHAR 002A
ENCODING 42
SWIDTH 360 0
DWIDTH 5 0
BBX 5 4 0 6
BITMAP
20
E8
30
58
ENDCHAR
STARTCHAR 002B
ENCODING 43
SWIDTH 576 0
DWIDTH 8 0
BBX 7 8 1 1
BITMAP
30
30
30
FE
FE
30
30
30
ENDCHAR
STARTCHAR 002C
ENCODING 44
SWIDTH 288 0
DWIDTH 4 0
BBX 2 4 1 -2
BITMAP
C0
C0
40
80
ENDCHAR
STARTCHAR 002D
ENCODING 45
SWIDTH 360 0
DWIDTH 5 0
BBX 4 2 1 3
BITMAP
F0
F0
ENDCHAR
STARTCHAR 002E
ENCODING 46
SWIDTH 288 0
DWIDTH 4 0
BBX 2 2 1 0
BITMAP
C0
C0
ENDCHAR
STARTCHAR 002F
ENCODING 47
SWIDTH 288 0
DWIDTH 4 0
BBX 4 10 0 0
BITMAP
30
30
20
20
60
60
40
40
C0
C0
ENDCHAR
STARTCHAR 0030
ENCODING 48
SWIDTH 576 0
DWIDTH 8 0
BBX 6 10 1 0
BITMAP
78
F8
CC
CC
CC
CC
CC
CC
F8
78
ENDCHAR
STARTCHAR 0031
ENCODING 49
SWIDTH 576 0
DWIDTH 8 0
BBX 5 10 1 0
BITMAP
18
78
D8
98
18
18
18
18
18
18
ENDCHAR
STARTCHAR 0032
ENCODING 50
SWIDTH 576 0
DWIDTH 8 0
BBX 7 10 0 0
BITMAP
3C
7E
66
66
06
0C
18
30
7E
FE
ENDCHAR
STARTCHAR 0033
ENCODING 51
SWIDTH 576 0
DWIDTH 8 0
BBX 6 10 1 0
BITMAP
78
FC
CC
08
30
0C
8C
CC
FC
78
ENDCHAR
STARTCHAR 0034
ENCODING 52
SWIDTH 576 0
DWIDTH 8 0
BBX 7 10 0 0
BITMAP
0C
0C
1C
3C
6C
4C
FE
FE
0C
0C
ENDCHAR
STARTCHAR 0035
ENCODING 53
SWIDTH 576 0
DWIDTH 8 0
BBX 6 10 1 0
BITMAP
7C
7C
C0
F8
FC
CC
0C
CC
FC
78
ENDCHAR
STARTCHAR 0036
ENCODING 54
SWIDTH 576 0
DWIDTH 8 0
BBX 6 10 1 0
BITMAP
78
FC
CC
C0
F8
FC
CC
CC
FC
78
ENDCHAR
STARTCHAR 0037
ENCODING 55
SWIDTH 576 0
DWIDTH 8 0
BBX 6 10 1 0
BITMAP
FC
FC
08
10
30
30
20
60
60
60
ENDCHAR
STARTCHAR 0038
ENCODING 56
SWIDTH 576 0
DWIDTH 8 0
BBX 6 10 1 0
BITMAP
78
FC
CC
CC
78
F8
CC
CC
FC
78
ENDCHAR
STARTCHAR 0039
ENCODING 57
SWIDTH 576 0
DWIDTH 8 0
BBX 7 10 0 0
BITMAP
38
7C
C6
C6
7E
3E
06
66
7C
38
ENDCHAR
STARTCHAR 003A
ENCODING 58
SWIDTH 360 0
DWIDTH 5 0
BBX 2 8 1 0
BITMAP
C0
C0
00
00
00
00
C0
C0
ENDCHAR
STARTCHAR 003B
ENCODING 59
SWIDTH 360 0
DWIDTH 5 0
BBX 2 10 1 -2
BITMAP
C0
C0
00
00
00
00
C0
C0
40
80
ENDCHAR
STARTCHAR 003C
ENCODING 60
SWIDTH 576 0
DWIDTH 8 0
BBX 7 8 1 1
BITMAP
06
1E
78
E0
E0
78
1E
06
ENDCHAR
STARTCHAR 003D
ENCODING 61
SWIDTH 576 0
DWIDTH 8 0
BBX 7 5 1 3
BITMAP
FE
FE
00
FE
FE
ENDCHAR
STARTCHAR 003E
ENCODING 62
SWIDTH 576 0
DWIDTH 8 0
BBX 7 8 1 1
BITMAP
80
E0
78
1E
1E
78
E0
80
ENDCHAR
STARTCHAR 003F
ENCODING 63
SWIDTH 648 0
DWIDTH 9 0
BBX 7 10 1 0
BITMAP
78
FE
C6
06
1C
18
30
00
30
30
ENDCHAR
STARTCHAR 0040
ENCODING 64
SWIDTH 1008 0
DWIDTH 14 0
BBX 13 13 0 -3
BITMAP
07C0
1830
2758
6FC8
5CC8
58C8
D8C8
D9D8
5F90
4EE0
2008
3830
0FE0
ENDCHAR
STARTCHAR 0041
ENCODING 65
SWIDTH 720 0
DWIDTH 10 0
BBX 10 10 0 0
BITMAP
0C00
1E00
1E00
1600
3300
3300
7F80
7F80
6180
C0C0
ENDCHAR
STARTCHAR 0042
ENCODING 66
SWIDTH 720 0
DWIDTH 10 0
BBX 8 10 1 0
BITMAP
FE
FF
C3
C3
FE
FF
C3
C3
FF
FE
ENDCHAR
STARTCHAR 0043
ENCODING 67
SWIDTH 720 0
DWIDTH 10 0
BBX 8 10 1 0
BITMAP
3E
7F
E3
C2
C0
C0
C2
E3
7F
3C
ENDCHAR
STARTCHAR 0044
ENCODING 68
SWIDTH 720 0
DWIDTH 10 0
BBX 8 10 1 0
BITMAP
FC
FE
C3
C3
C3
C3
C3
C3
FE
FC
ENDCHAR
STARTCHAR 0045
ENCODING 69
SWIDTH 648 0
DWIDTH 9 0
BBX 8 10 1 0
BITMAP
FE
FE
C0
C0
FE
FE
C0
C0
FF
FF
ENDCHAR
STARTCHAR 0046
ENCODING 70
SWIDTH 648 0
DWIDTH 9 0
BBX 7 10 1 0
BITMAP
FE
FE
C0
C0
FC
FC
C0
C0
C0
C0
ENDCHAR
STARTCHAR 0047
ENCODING 71
SWIDTH 792 0
DWIDTH 11 0
BBX 9 10 1 0
BITMAP
3E00
7F00
E380
C100
C000
C780
C780
E180
7F80
3E00
ENDCHAR
STARTCHAR 0048
ENCODING 72
SWIDTH 720 0
DWIDTH 10 0
BBX 8 10 1 0
BITMAP
C3
C3
C3
C3
FF
FF
C3
C3
C3
C3
ENDCHAR
STARTCHAR 0049
ENCODING 73
SWIDTH 288 0
DWIDTH 4 0
BBX 2 10 1 0
BITMAP
C0
C0
C0
C0
C0
C0
C0
C0
C0
C0
ENDCHAR
STARTCHAR 004A
ENCODING 74
SWIDTH 576 0
DWIDTH 8 0
BBX 7 10 0 0
BITMAP
06
06
06
06
06
06
C6
CE
7C
38
ENDCHAR
STARTCHAR 004B
ENCODING 75
SWIDTH 720 0
DWIDTH 10 0
BBX 9 10 1 0
BITMAP
C300
C600
CC00
D800
FC00
EC00
CE00
C700
C300
C380
ENDCHAR
STARTCHAR 004C
ENCODING 76
SWIDTH 648 0
DWIDTH 9 0
BBX 7 10 1 0
BITMAP
C0
C0
C0
C0
C0
C0
C0
C0
FE
FE
ENDCHAR
STARTCHAR 004D
ENCODING 77
SWIDTH 864 0
DWIDTH 12 0
BBX 10 10 1 0
BITMAP
E1C0
E3C0
F3C0
F2C0
F6C0
D6C0
DEC0
DCC0
DCC0
CCC0
ENDCHAR
STARTCHAR 004E
ENCODING 78
SWIDTH 720 0
DWIDTH 10 0
BBX 8 10 1 0
BITMAP
C3
E3
E3
F3
DB
DB
CF
CF
C7
C3
ENDCHAR
STARTCHAR 004F
ENCODING 79
SWIDTH 792 0
DWIDTH 11 0
BBX 9 10 1 0
BITMAP
3E00
7F00
E380
C180
C180
C180
C180
E380
7F00
3E00
ENDCHAR
STARTCHAR 0050
ENCODING 80
SWIDTH 648 0
DWIDTH 9 0
BBX 8 10 1 0
BITMAP
FC
FE
C7
C7
FE
FC
C0
C0
C0
C0
ENDCHAR
STARTCHAR 0051
ENCODING 81
SWIDTH 792 0
DWIDTH 11 0
BBX 9 11 1 -1
BITMAP
3E00
7F00
E380
C180
C180
C180
CD80
E780
7F80
3F80
0080
ENDCHAR
STARTCHAR 0052
ENCODING 82
SWIDTH 720 0
DWIDTH 10 0
BBX 9 10 1 0
BITMAP
FE00
FF00
C300
C300
FF00
FC00
CE00
C600
C300
C380
ENDCHAR
STARTCHAR 0053
ENCODING 83
SWIDTH 648 0
DWIDTH 9 0
BBX 8 10 1 0
BITMAP
7C
FE
C6
E0
FC
3E
07
C7
FE
7C
ENDCHAR
STARTCHAR 0054
ENCODING 84
SWIDTH 648 0
DWIDTH 9 0
BBX 8 10 0 0
BITMAP
FF
FF
18
18
18
18
18
18
18
18
ENDCHAR
STARTCHAR 0055
ENCODING 85
SWIDTH 720 0
DWIDTH 10 0
BBX 8 10 1 0
BITMAP
C3
C3
C3
C3
C3
C3
C3
E3
7F
3C
ENDCHAR
STARTCHAR 0056
ENCODING 86
SWIDTH 648 0
DWIDTH 9 0
BBX 9 10 0 0
BITMAP
C180
6180
6300
6300
3300
3600
3E00
1E00
1C00
1C00
ENDCHAR
STARTCHAR 0057
ENCODING 87
SWIDTH 936 0
DWIDTH 13 0
BBX 13 10 0 0
BITMAP
C718
C718
6798
65B0
6DB0
6DB0
3CF0
38E0
38E0
38E0
ENDCHAR
STARTCHAR 0058
ENCODING 88
SWIDTH 648 0
DWIDTH 9 0
BBX 9 10 0 0
BITMAP
6380
7300
3600
1E00
1C00
1C00
3E00
3700
6300
E180
ENDCHAR
STARTCHAR 0059
ENCODING 89
SWIDTH 648 0
DWIDTH 9 0
BBX 9 10 0 0
BITMAP
E180
6300
3300
3600
1E00
1C00
0C00
0C00
0C00
0C00
ENDCHAR
STARTCHAR 005A
ENCODING 90
SWIDTH 648 0
DWIDTH 9 0
BBX 8 10 0 0
BITMAP
7F
7F
06
0C
18
38
70
60
FF
FF
ENDCHAR
STARTCHAR 005B
ENCODING 91
SWIDTH 360 0
DWIDTH 5 0
BBX 3 13 1 -3
BITMAP
E0
E0
C0
C0
C0
C0
C0
C0
C0
C0
C0
E0
E0
ENDCHAR
STARTCHAR 005C
ENCODING 92
SWIDTH 288 0
DWIDTH 4 0
BBX 4 10 0 0
BITMAP
C0
C0
40
40
60
60
20
20
30
30
ENDCHAR
STARTCHAR 005D
ENCODING 93
SWIDTH 360 0
DWIDTH 5 0
BBX 4 13 0 -3
BITMAP
F0
F0
30
30
30
30
30
30
30
30
30
F0
F0
ENDCHAR
STARTCHAR 005E
ENCODING 94
SWIDTH 576 0
DWIDTH 8 0
BBX 6 5 1 5
BITMAP
30
38
78
4C
CC
ENDCHAR
STARTCHAR 005F
ENCODING 95
SWIDTH 576 0
DWIDTH 8 0
BBX 8 1 0 -3
BITMAP
FF
ENDCHAR
STARTCHAR 0060
ENCODING 96
SWIDTH 360 0
DWIDTH 5 0
BBX 2 2 1 8
BITMAP
C0
40
ENDCHAR
STARTCHAR 0061
ENCODING 97
SWIDTH 576 0
DWIDTH 8 0
BBX 6 8 1 0
BITMAP
78
FC
0C
3C
CC
CC
FC
EC
ENDCHAR
STARTCHAR 0062
ENCODING 98
SWIDTH 648 0
DWIDTH 9 0
BBX 7 10 1 0
BITMAP
C0
C0
FC
FC
C6
C6
C6
C6
FC
FC
ENDCHAR
STARTCHAR 0063
ENCODING 99
SWIDTH 576 0
DWIDTH 8 0
BBX 6 8 1 0
BITMAP
78
FC
CC
C0
C0
CC
FC
78
ENDCHAR
STARTCHAR 0064
ENCODING 100
SWIDTH 648 0
DWIDTH 9 0
BBX 7 10 1 0
BITMAP
06
06
76
FE
CE
C6
C6
CE
FE
76
ENDCHAR
STARTCHAR 0065
ENCODING 101
SWIDTH 576 0
DWIDTH 8 0
BBX 7 8 0 0
BITMAP
3C
7E
66
FE
FE
60
7E
3C
ENDCHAR
STARTCHAR 0066
ENCODING 102
SWIDTH 360 0
DWIDTH 5 0
BBX 5 10 0 0
BITMAP
38
60
F8
F8
60
60
60
60
60
60
ENDCHAR
STARTCHAR 0067
ENCODING 103
SWIDTH 648 0
DWIDTH 9 0
BBX 7 11 1 -3
BITMAP
76
FE
CE
C6
C6
CE
FE
76
C6
FC
78
ENDCHAR
STARTCHAR 0068
ENCODING 104
SWIDTH 648 0
DWIDTH 9 0
BBX 7 10 1 0
BITMAP
C0
C0
DC
FC
CE
C6
C6
C6
C6
C6
ENDCHAR
STARTCHAR 0069
ENCODING 105
SWIDTH 288 0
DWIDTH 4 0
BBX 2 10 1 0
BITMAP
C0
00
C0
C0
C0
C0
C0
C0
C0
C0
ENDCHAR
STARTCHAR 006A
ENCODING 106
SWIDTH 288 0
DWIDTH 4 0
BBX 4 13 -1 -3
BITMAP
30
00
30
30
30
30
30
30
30
30
30
70
E0
ENDCHAR
STARTCHAR 006B
ENCODING 107
SWIDTH 576 0
DWIDTH 8 0
BBX 6 10 1 0
BITMAP
C0
C0
CC
D8
F0
F0
F8
D8
CC
CC
ENDCHAR
STARTCHAR 006C
ENCODING 108
SWIDTH 288 0
DWIDTH 4 0
BBX 2 10 1 0
BITMAP
C0
C0
C0
C0
C0
C0
C0
C0
C0
C0
ENDCHAR
STARTCHAR 006D
ENCODING 109
SWIDTH 864 0
DWIDTH 12 0
BBX 11 8 1 0
BITMAP
F9C0
FFC0
CEE0
CC60
CC60
CC60
CC60
CC60
ENDCHAR
STARTCHAR 006E
ENCODING 110
SWIDTH 648 0
DWIDTH 9 0
BBX 7 8 1 0
BITMAP
FC
FC
CE
C6
C6
C6
C6
C6
ENDCHAR
STARTCHAR 006F
ENCODING 111
SWIDTH 648 0
DWIDTH 9 0
BBX 7 8 1 0
BITMAP
78
FC
C6
C6
C6
C6
FC
78
ENDCHAR
STARTCHAR 0070
ENCODING 112
SWIDTH 648 0
DWIDTH 9 0
BBX 7 11 1 -3
BITMAP
FC
FC
C6
C6
C6
C6
FC
FC
C0
C0
C0
ENDCHAR
STARTCHAR 0071
ENCODING 113
SWIDTH 648 0
DWIDTH 9 0
BBX 7 11 1 -3
BITMAP
76
FE
CE
C6
C6
CE
FE
76
06
06
06
ENDCHAR
STARTCHAR 0072
ENCODING 114
SWIDTH 360 0
DWIDTH 5 0
BBX 5 8 1 0
BITMAP
F8
F0
C0
C0
C0
C0
C0
C0
ENDCHAR
STARTCHAR 0073
ENCODING 115
SWIDTH 576 0
DWIDTH 8 0
BBX 6 8 1 0
BITMAP
78
FC
80
F0
3C
0C
FC
78
ENDCHAR
STARTCHAR 0074
ENCODING 116
SWIDTH 360 0
DWIDTH 5 0
BBX 4 10 0 0
BITMAP
20
60
F0
F0
60
60
60
60
70
30
ENDCHAR
STARTCHAR 0075
ENCODING 117
SWIDTH 648 0
DWIDTH 9 0
BBX 7 8 1 0
BITMAP
C6
C6
C6
C6
C6
CE
FE
76
ENDCHAR
STARTCHAR 0076
ENCODING 118
SWIDTH 576 0
DWIDTH 8 0
BBX 7 8 0 0
BITMAP
C6
66
66
6C
3C
3C
38
18
ENDCHAR
STARTCHAR 0077
ENCODING 119
SWIDTH 792 0
DWIDTH 11 0
BBX 11 8 0 0
BITMAP
CE60
CE40
6EC0
6AC0
7AC0
3B80
3B80
3180
ENDCHAR
STARTCHAR 0078
ENCODING 120
SWIDTH 576 0
DWIDTH 8 0
BBX 7 8 0 0
BITMAP
66
6C
3C
38
38
3C
6E
E6
ENDCHAR
STARTCHAR 0079
ENCODING 121
SWIDTH 576 0
DWIDTH 8 0
BBX 7 11 0 -3
BITMAP
C6
66
66
64
3C
3C
38
18
18
30
70
ENDCHAR
STARTCHAR 007A
ENCODING 122
SWIDTH 504 0
DWIDTH 7 0
BBX 7 8 0 0
BITMAP
FE
FE
1C
18
30
60
FE
FE
ENDCHAR
STARTCHAR 007B
ENCODING 123
SWIDTH 360 0
DWIDTH 5 0
BBX 5 13 0 -3
BITMAP
18
38
30
30
30
20
C0
20
30
30
30
38
18
ENDCHAR
STARTCHAR 007C
ENCODING 124
SWIDTH 288 0
DWIDTH 4 0
BBX 2 13 1 -3
BITMAP
C0
C0
C0
C0
C0
C0
C0
C0
C0
C0
C0
C0
C0
ENDCHAR
STARTCHAR 007D
ENCODING 125
SWIDTH 360 0
DWIDTH 5 0
BBX 5 13 0 -3
BITMAP
E0
E0
20
20
30
30
18
30
30
20
20
E0
E0
ENDCHAR
STARTCHAR 007E
ENCODING 126
SWIDTH 576 0
DWIDTH 8 0
BBX 8 3 0 4
BITMAP
71
FF
8E
ENDCHAR
STARTCHAR 00A0
ENCODING 160
SWIDTH 288 0
DWIDTH 4 0
BBX 0 0 0 0
BITMAP
ENDCHAR
STARTCHAR 00A1
ENCODING 161
SWIDTH 360 0
DWIDTH 5 0
BBX 2 11 1 -3
BITMAP
C0
C0
00
40
40
40
40
C0
C0
C0
C0
ENDCHAR
STARTCHAR 00A2
ENCODING 162
SWIDTH 576 0
DWIDTH 8 0
BBX 6 13 1 -3
BITMAP
08
08
78
FC
DC
D0
E0
EC
FC
78
40
40
40
ENDCHAR
STARTCHAR 00A3
ENCODING 163
SWIDTH 576 0
DWIDTH 8 0
BBX 7 10 0 0
BITMAP
3C
7E
66
60
F8
F8
20
60
FE
8E
ENDCHAR
STARTCHAR 00A4
ENCODING 164
SWIDTH 576 0
DWIDTH 8 0
BBX 6 8 1 1
BITMAP
84
FC
CC
CC
CC
CC
FC
84
ENDCHAR
STARTCHAR 00A5
ENCODING 165
SWIDTH 576 0
DWIDTH 8 0
BBX 7 10 0 0
BITMAP
C6
66
6C
3C
FE
18
FE
18
18
18
ENDCHAR
STARTCHAR 00A6
ENCODING 166
SWIDTH 288 0
DWIDTH 4 0
BBX 2 13 1 -3
BITMAP
C0
C0
C0
C0
C0
C0
00
00
C0
C0
C0
C0
C0
ENDCHAR
STARTCHAR 00A7
ENCODING 167
SWIDTH 576 0
DWIDTH 8 0
BBX 7 13 0 -3
BITMAP
3C
66
60
30
7C
4E
C6
72
3E
1E
06
66
3C
ENDCHAR
STARTCHAR 00A8
ENCODING 168
SWIDTH 360 0
DWIDTH 5 0
BBX 5 1 0 9
BITMAP
D8
ENDCHAR
STARTCHAR 00A9
ENCODING 169
SWIDTH 720 0
DWIDTH 10 0
BBX 10 10 0 0
BITMAP
1E00
6180
4EC0
9240
9040
9040
9240
4EC0
6180
1E00
ENDCHAR
STARTCHAR 00AA
ENCODING 170
SWIDTH 360 0
DWIDTH 5 0
BBX 5 5 0 5
BITMAP
70
58
78
D8
78
ENDCHAR
STARTCHAR 00AB
ENCODING 171
SWIDTH 576 0
DWIDTH 8 0
BBX 6 6 1 0
BITMAP
6C
58
D8
D8
58
6C
ENDCHAR
STARTCHAR 00AC
ENCODING 172
SWIDTH 576 0
DWIDTH 8 0
BBX 7 5 1 3
BITMAP
FE
FE
06
06
06
ENDCHAR
STARTCHAR 00AD
ENCODING 173
SWIDTH 360 0
DWIDTH 5 0
BBX 4 2 1 3
BITMAP
F0
F0
ENDCHAR
STARTCHAR 00AE
ENCODING 174
SWIDTH 720 0
DWIDTH 10 0
BBX 10 10 0 0
BITMAP
1E00
6180
5EC0
9240
9240
9C40
9640
52C0
6180
1E00
ENDCHAR
STARTCHAR 00AF
ENCODING 175
SWIDTH 576 0
DWIDTH 8 0
BBX 8 1 0 11
BITMAP
FF
ENDCHAR
STARTCHAR 00B0
ENCODING 176
SWIDTH 432 0
DWIDTH 6 0
BBX 4 4 1 6
BITMAP
E0
90
90
E0
ENDCHAR
STARTCHAR 00B1
ENCODING 177
SWIDTH 576 0
DWIDTH 8 0
BBX 7 11 0 0
BITMAP
18
18
18
FE
FE
18
18
18
00
FE
FE
ENDCHAR
STARTCHAR 00B2
ENCODING 178
SWIDTH 360 0
DWIDTH 5 0
BBX 4 5 0 5
BITMAP
70
D0
30
60
F0
ENDCHAR
STARTCHAR 00B3
ENCODING 179
SWIDTH 360 0
DWIDTH 5 0
BBX 4 5 0 5
BITMAP
70
D0
30
D0
70
ENDCHAR
STARTCHAR 00B4
ENCODING 180
SWIDTH 360 0
DWIDTH 5 0
BBX 2 2 2 8
BITMAP
C0
80
ENDCHAR
STARTCHAR 00B5
ENCODING 181
SWIDTH 576 0
DWIDTH 8 0
BBX 6 11 1 -3
BITMAP
CC
CC
CC
CC
CC
CC
FC
F4
C0
C0
C0
ENDCHAR
STARTCHAR 00B6
ENCODING 182
SWIDTH 576 0
DWIDTH 8 0
BBX 8 13 0 -3
BITMAP
7F
F6
F6
F6
F6
76
16
16
16
16
16
16
16
ENDCHAR
STARTCHAR 00B7
ENCODING 183
SWIDTH 360 0
DWIDTH 5 0
BBX 2 2 1 4
BITMAP
C0
C0
ENDCHAR
STARTCHAR 00B8
ENCODING 184
SWIDTH 360 0
DWIDTH 5 0
BBX 4 3 0 -3
BITMAP
70
10
E0
ENDCHAR
STARTCHAR 00B9
ENCODING 185
SWIDTH 360 0
DWIDTH 5 0
BBX 2 5 1 5
BITMAP
40
C0
40
40
40
ENDCHAR
STARTCHAR 00BA
ENCODING 186
SWIDTH 360 0
DWIDTH 5 0
BBX 5 5 0 5
BITMAP
70
D8
D8
D8
70
ENDCHAR
STARTCHAR 00BB
ENCODING 187
SWIDTH 576 0
DWIDTH 8 0
BBX 6 6 1 0
BITMAP
D0
58
6C
6C
58
D0
ENDCHAR
STARTCHAR 00BC
ENCODING 188
SWIDTH 864 0
DWIDTH 12 0
BBX 11 10 1 0
BITMAP
4100
C200
4200
4400
4400
08C0
11C0
1140
23E0
2040
ENDCHAR
STARTCHAR 00BD
ENCODING 189
SWIDTH 864 0
DWIDTH 12 0
BBX 10 10 1 0
BITMAP
4100
C200
4200
4400
4400
09C0
1340
10C0
2180
23C0
ENDCHAR
STARTCHAR 00BE
ENCODING 190
SWIDTH 864 0
DWIDTH 12 0
BBX 12 10 0 0
BITMAP
7080
D080
3100
D200
7200
0460
04E0
08A0
11F0
1020
ENDCHAR
STARTCHAR 00BF
ENCODING 191
SWIDTH 648 0
DWIDTH 9 0
BBX 7 11 1 -3
BITMAP
30
30
00
30
30
70
E0
C0
C6
FC
78
ENDCHAR
STARTCHAR 00C0
ENCODING 192
SWIDTH 720 0
DWIDTH 10 0
BBX 10 13 0 0
BITMAP
0C00
0400
0000
0C00
1E00
1E00
1600
3300
3300
7F80
7F80
6180
C0C0
ENDCHAR
STARTCHAR 00C1
ENCODING 193
SWIDTH 720 0
DWIDTH 10 0
BBX 10 13 0 0
BITMAP
0600
0400
0000
0C00
1E00
1E00
1600
3300
3300
7F80
7F80
6180
C0C0
ENDCHAR
STARTCHAR 00C2
ENCODING 194
SWIDTH 720 0
DWIDTH 10 0
BBX 10 13 0 0
BITMAP
0E00
1A00
0000
0C00
1E00
1E00
1600
3300
3300
7F80
7F80
6180
C0C0
ENDCHAR
STARTCHAR 00C3
ENCODING 195
SWIDTH 720 0
DWIDTH 10 0
BBX 10 13 0 0
BITMAP
1900
1600
0000
0C00
1E00
1E00
1600
3300
3300
7F80
7F80
6180
C0C0
ENDCHAR
STARTCHAR 00C4
ENCODING 196
SWIDTH 720 0
DWIDTH 10 0
BBX 10 12 0 0
BITMAP
1B00
0000
0C00
1E00
1E00
1600
3300
3300
7F80
7F80
6180
C0C0
ENDCHAR
STARTCHAR 00C5
ENCODING 197
SWIDTH 720 0
DWIDTH 10 0
BBX 10 13 0 0
BITMAP
0C00
0A00
0A00
0C00
1E00
1E00
1600
3300
3300
7F80
7F80
6180
C0C0
ENDCHAR
STARTCHAR 00C6
ENCODING 198
SWIDTH 1008 0
DWIDTH 14 0
BBX 13 10 0 0
BITMAP
0FF8
1BF8
1B00
3300
33F8
33F8
7F00
7F00
C3F8
C3F8
ENDCHAR
STARTCHAR 00C7
ENCODING 199
SWIDTH 720 0
DWIDTH 10 0
BBX 8 13 1 -3
BITMAP
3E
7F
E3
C2
C0
C0
C2
E3
7F
3C
1C
04
38
ENDCHAR
STARTCHAR 00C8
ENCODING 200
SWIDTH 648 0
DWIDTH 9 0
BBX 8 13 1 0
BITMAP
18
08
00
FE
FE
C0
C0
FE
FE
C0
C0
FF
FF
ENDCHAR
STARTCHAR 00C9
ENCODING 201
SWIDTH 648 0
DWIDTH 9 0
BBX 8 13 1 0
BITMAP
18
10
00
FE
FE
C0
C0
FE
FE
C0
C0
FF
FF
ENDCHAR
STARTCHAR 00CA
ENCODING 202
SWIDTH 648 0
DWIDTH 9 0
BBX 8 13 1 0
BITMAP
38
68
00
FE
FE
C0
C0
FE
FE
C0
C0
FF
FF
ENDCHAR
STARTCHAR 00CB
ENCODING 203
SWIDTH 648 0
DWIDTH 9 0
BBX 8 12 1 0
BITMAP
6C
00
FE
FE
C0
C0
FE
FE
C0
C0
FF
FF
ENDCHAR
STARTCHAR 00CC
ENCODING 204
SWIDTH 288 0
DWIDTH 4 0
BBX 2 13 1 0
BITMAP
C0
40
00
C0
C0
C0
C0
C0
C0
C0
C0
C0
C0
ENDCHAR
STARTCHAR 00CD
ENCODING 205
SWIDTH 288 0
DWIDTH 4 0
BBX 2 13 1 0
BITMAP
C0
80
00
C0
C0
C0
C0
C0
C0
C0
C0
C0
C0
ENDCHAR
STARTCHAR 00CE
ENCODING 206
SWIDTH 288 0
DWIDTH 4 0
BBX 4 13 0 0
BITMAP
70
D0
00
60
60
60
60
60
60
60
60
60
60
ENDCHAR
STARTCHAR 00CF
ENCODING 207
SWIDTH 288 0
DWIDTH 4 0
BBX 5 12 0 0
BITMAP
D8
00
60
60
60
60
60
60
60
60
60
60
ENDCHAR
STARTCHAR 00D0
ENCODING 208
SWIDTH 720 0
DWIDTH 10 0
BBX 9 10 0 0
BITMAP
7E00
7F00
6180
6180
F980
6180
6180
6180
7F00
7E00
ENDCHAR
STARTCHAR 00D1
ENCODING 209
SWIDTH 720 0
DWIDTH 10 0
BBX 8 13 1 0
BITMAP
32
2C
00
C3
E3
E3
F3
DB
DB
CF
CF
C7
C3
ENDCHAR
STARTCHAR 00D2
ENCODING 210
SWIDTH 792 0
DWIDTH 11 0
BBX 9 13 1 0
BITMAP
1800
0800
0000
3E00
7F00
E380
C180
C180
C180
C180
E380
7F00
3E00
ENDCHAR
STARTCHAR 00D3
ENCODING 211
SWIDTH 792 0
DWIDTH 11 0
BBX 9 13 1 0
BITMAP
0C00
0800
0000
3E00
7F00
E380
C180
C180
C180
C180
E380
7F00
3E00
ENDCHAR
STARTCHAR 00D4
ENCODING 212
SWIDTH 792 0
DWIDTH 11 0
BBX 9 13 1 0
BITMAP
1C00
3400
0000
3E00
7F00
E380
C180
C180
C180
C180
E380
7F00
3E00
ENDCHAR
STARTCHAR 00D5
ENCODING 213
SWIDTH 792 0
DWIDTH 11 0
BBX 9 13 1 0
BITMAP
3200
2C00
0000
3E00
7F00
E380
C180
C180
C180
C180
E380
7F00
3E00
ENDCHAR
STARTCHAR 00D6
ENCODING 214
SWIDTH 792 0
DWIDTH 11 0
BBX 9 12 1 0
BITMAP
3600
0000
3E00
7F00
E380
C180
C180
C180
C180
E380
7F00
3E00
ENDCHAR
STARTCHAR 00D7
ENCODING 215
SWIDTH 576 0
DWIDTH 8 0
BBX 6 6 1 3
BITMAP
CC
78
30
78
CC
84
ENDCHAR
STARTCHAR 00D8
ENCODING 216
SWIDTH 792 0
DWIDTH 11 0
BBX 11 10 0 1
BITMAP
1F60
3FC0
71C0
63C0
66C0
6CC0
78C0
71C0
7F80
DF00
ENDCHAR
STARTCHAR 00D9
ENCODING 217
SWIDTH 720 0
DWIDTH 10 0
BBX 8 13 1 0
BITMAP
18
08
00
C3
C3
C3
C3
C3
C3
C3
E3
7F
3C
ENDCHAR
STARTCHAR 00DA
ENCODING 218
SWIDTH 720 0
DWIDTH 10 0
BBX 8 13 1 0
BITMAP
18
10
00
C3
C3
C3
C3
C3
C3
C3
E3
7F
3C
ENDCHAR
STARTCHAR 00DB
ENCODING 219
SWIDTH 720 0
DWIDTH 10 0
BBX 8 13 1 0
BITMAP
1C
34
00
C3
C3
C3
C3
C3
C3
C3
E3
7F
3C
ENDCHAR
STARTCHAR 00DC
ENCODING 220
SWIDTH 720 0
DWIDTH 10 0
BBX 8 12 1 0
BITMAP
36
00
C3
C3
C3
C3
C3
C3
C3
E3
7F
3C
ENDCHAR
STARTCHAR 00DD
ENCODING 221
SWIDTH 648 0
DWIDTH 9 0
BBX 9 13 0 0
BITMAP
0C00
0800
0000
E180
6300
3300
3600
1E00
1C00
0C00
0C00
0C00
0C00
ENDCHAR
STARTCHAR 00DE
ENCODING 222
SWIDTH 648 0
DWIDTH 9 0
BBX 8 10 1 0
BITMAP
C0
C0
FC
FE
C7
C7
FE
FC
C0
C0
ENDCHAR
STARTCHAR 00DF
ENCODING 223
SWIDTH 648 0
DWIDTH 9 0
BBX 7 10 1 0
BITMAP
78
FC
CC
D8
D8
DC
CE
C6
DE
DC
ENDCHAR
STARTCHAR 00E0
ENCODING 224
SWIDTH 576 0
DWIDTH 8 0
BBX 6 11 1 0
BITMAP
60
20
00
78
FC
0C
3C
CC
CC
FC
EC
ENDCHAR
STARTCHAR 00E1
ENCODING 225
SWIDTH 576 0
DWIDTH 8 0
BBX 6 11 1 0
BITMAP
18
10
00
78
FC
0C
3C
CC
CC
FC
EC
ENDCHAR
STARTCHAR 00E2
ENCODING 226
SWIDTH 576 0
DWIDTH 8 0
BBX 6 11 1 0
BITMAP
38
68
00
78
FC
0C
3C
CC
CC
FC
EC
ENDCHAR
STARTCHAR 00E3
ENCODING 227
SWIDTH 576 0
DWIDTH 8 0
BBX 6 11 1 0
BITMAP
64
58
00
78
FC
0C
3C
CC
CC
FC
EC
ENDCHAR
STARTCHAR 00E4
ENCODING 228
SWIDTH 576 0
DWIDTH 8 0
BBX 6 10 1 0
BITMAP
6C
00
78
FC
0C
3C
CC
CC
FC
EC
ENDCHAR
STARTCHAR 00E5
ENCODING 229
SWIDTH 576 0
DWIDTH 8 0
BBX 6 13 1 0
BITMAP
30
28
28
30
00
78
FC
0C
3C
CC
CC
FC
EC
ENDCHAR
STARTCHAR 00E6
ENCODING 230
SWIDTH 864 0
DWIDTH 12 0
BBX 11 8 1 0
BITMAP
7B80
FFC0
CC60
3FE0
CC00
CC60
FFC0
F380
ENDCHAR
STARTCHAR 00E7
ENCODING 231
SWIDTH 576 0
DWIDTH 8 0
BBX 6 11 1 -3
BITMAP
78
FC
CC
C0
C0
CC
FC
78
38
08
70
ENDCHAR
STARTCHAR 00E8
ENCODING 232
SWIDTH 576 0
DWIDTH 8 0
BBX 7 11 0 0
BITMAP
30
10
00
3C
7E
66
FE
FE
60
7E
3C
ENDCHAR
STARTCHAR 00E9
ENCODING 233
SWIDTH 576 0
DWIDTH 8 0
BBX 7 11 0 0
BITMAP
0C
08
00
3C
7E
66
FE
FE
60
7E
3C
ENDCHAR
STARTCHAR 00EA
ENCODING 234
SWIDTH 576 0
DWIDTH 8 0
BBX 7 11 0 0
BITMAP
1C
34
00
3C
7E
66
FE
FE
60
7E
3C
ENDCHAR
STARTCHAR 00EB
ENCODING 235
SWIDTH 576 0
DWIDTH 8 0
BBX 7 10 0 0
BITMAP
36
00
3C
7E
66
FE
FE
60
7E
3C
ENDCHAR
STARTCHAR 00EC
ENCODING 236
SWIDTH 288 0
DWIDTH 4 0
BBX 2 11 1 0
BITMAP
C0
40
00
C0
C0
C0
C0
C0
C0
C0
C0
ENDCHAR
STARTCHAR 00ED
ENCODING 237
SWIDTH 288 0
DWIDTH 4 0
BBX 3 11 1 0
BITMAP
60
40
00
C0
C0
C0
C0
C0
C0
C0
C0
ENDCHAR
STARTCHAR 00EE
ENCODING 238
SWIDTH 288 0
DWIDTH 4 0
BBX 4 11 0 0
BITMAP
70
D0
00
60
60
60
60
60
60
60
60
ENDCHAR
STARTCHAR 00EF
ENCODING 239
SWIDTH 288 0
DWIDTH 4 0
BBX 5 10 0 0
BITMAP
D8
00
60
60
60
60
60
60
60
60
ENDCHAR
STARTCHAR 00F0
ENCODING 240
SWIDTH 648 0
DWIDTH 9 0
BBX 7 10 1 0
BITMAP
38
38
4C
7C
FE
C6
C6
C6
FC
78
ENDCHAR
STARTCHAR 00F1
ENCODING 241
SWIDTH 648 0
DWIDTH 9 0
BBX 7 11 1 0
BITMAP
64
58
00
FC
FC
CE
C6
C6
C6
C6
C6
ENDCHAR
STARTCHAR 00F2
ENCODING 242
SWIDTH 648 0
DWIDTH 9 0
BBX 7 11 1 0
BITMAP
30
10
00
78
FC
C6
C6
C6
C6
FC
78
ENDCHAR
STARTCHAR 00F3
ENCODING 243
SWIDTH 648 0
DWIDTH 9 0
BBX 7 11 1 0
BITMAP
18
10
00
78
FC
C6
C6
C6
C6
FC
78
ENDCHAR
STARTCHAR 00F4
ENCODING 244
SWIDTH 648 0
DWIDTH 9 0
BBX 7 11 1 0
BITMAP
38
68
00
78
FC
C6
C6
C6
C6
FC
78
ENDCHAR
STARTCHAR 00F5
ENCODING 245
SWIDTH 648 0
DWIDTH 9 0
BBX 7 11 1 0
BITMAP
64
58
00
78
FC
C6
C6
C6
C6
FC
78
ENDCHAR
STARTCHAR 00F6
ENCODING 246
SWIDTH 648 0
DWIDTH 9 0
BBX 7 10 1 0
BITMAP
6C
00
78
FC
C6
C6
C6
C6
FC
78
ENDCHAR
STARTCHAR 00F7
ENCODING 247
SWIDTH 576 0
DWIDTH 8 0
BBX 7 8 0 1
BITMAP
18
18
00
FE
FE
00
18
18
ENDCHAR
STARTCHAR 00F8
ENCODING 248
SWIDTH 648 0
DWIDTH 9 0
BBX 7 8 1 1
BITMAP
7A
FC
CE
DE
F6
E6
FC
F8
ENDCHAR
STARTCHAR 00F9
ENCODING 249
SWIDTH 648 0
DWIDTH 9 0
BBX 7 11 1 0
BITMAP
30
10
00
C6
C6
C6
C6
C6
CE
FE
76
ENDCHAR
STARTCHAR 00FA
ENCODING 250
SWIDTH 648 0
DWIDTH 9 0
BBX 7 11 1 0
BITMAP
18
10
00
C6
C6
C6
C6
C6
CE
FE
76
ENDCHAR
STARTCHAR 00FB
ENCODING 251
SWIDTH 648 0
DWIDTH 9 0
BBX 7 11 1 0
BITMAP
38
68
00
C6
C6
C6
C6
C6
CE
FE
76
ENDCHAR
STARTCHAR 00FC
ENCODING 252
SWIDTH 648 0
DWIDTH 9 0
BBX 7 10 1 0
BITMAP
6C
00
C6
C6
C6
C6
C6
CE
FE
76
ENDCHAR
STARTCHAR 00FD
ENCODING 253
SWIDTH 576 0
DWIDTH 8 0
BBX 7 14 0 -3
BITMAP
0C
08
00
C6
66
66
64
3C
3C
38
18
18
30
70
ENDCHAR
STARTCHAR 00FE
ENCODING 254
SWIDTH 648 0
DWIDTH 9 0
BBX 7 13 1 -3
BITMAP
C0
C0
FC
FC
C6
C6
C6
C6
FC
FC
C0
C0
C0
ENDCHAR
STARTCHAR 00FF
ENCODING 255
SWIDTH 576 0
DWIDTH 8 0
BBX 7 13 0 -3
BITMAP
36
00
C6
66
66
64
3C
3C
38
18
18
30
70
ENDCHAR
STARTCHAR 0100
ENCODING 256
SWIDTH 720 0
DWIDTH 10 0
BBX 10 12 0 0
BITMAP
1F00
0000
0C00
1E00
1E00
1600
3300
3300
7F80
7F80
6180
C0C0
ENDCHAR
STARTCHAR 0101
ENCODING 257
SWIDTH 576 0
DWIDTH 8 0
BBX 6 10 1 0
BITMAP
7C
00
78
FC
0C
3C
CC
CC
FC
EC
ENDCHAR
STARTCHAR 0102
ENCODING 258
SWIDTH 720 0
DWIDTH 10 0
BBX 10 13 0 0
BITMAP
1200
0E00
0000
0C00
1E00
1E00
1600
3300
3300
7F80
7F80
6180
C0C0
ENDCHAR
STARTCHAR 0103
ENCODING 259
SWIDTH 576 0
DWIDTH 8 0
BBX 6 11 1 0
BITMAP
48
38
00
78
FC
0C
3C
CC
CC
FC
EC
ENDCHAR
STARTCHAR 0104
ENCODING 260
SWIDTH 720 0
DWIDTH 10 0
BBX 10 13 0 -3
BITMAP
0C00
1E00
1E00
1600
3300
3300
7F80
7F80
6180
C0C0
0080
0180
00C0
ENDCHAR
STARTCHAR 0105
ENCODING 261
SWIDTH 576 0
DWIDTH 8 0
BBX 6 11 1 -3
BITMAP
78
FC
0C
3C
CC
CC
FC
EC
08
18
0C
ENDCHAR
STARTCHAR 0106
ENCODING 262
SWIDTH 720 0
DWIDTH 10 0
BBX 8 13 1 0
BITMAP
0C
08
00
3E
7F
E3
C2
C0
C0
C2
E3
7F
3C
ENDCHAR
STARTCHAR 0107
ENCODING 263
SWIDTH 576 0
DWIDTH 8 0
BBX 6 11 1 0
BITMAP
18
10
00
78
FC
CC
C0
C0
CC
FC
78
ENDCHAR
STARTCHAR 0108
ENCODING 264
SWIDTH 720 0
DWIDTH 10 0
BBX 8 13 1 0
BITMAP
1C
34
00
3E
7F
E3
C2
C0
C0
C2
E3
7F
3C
ENDCHAR
STARTCHAR 0109
ENCODING 265
SWIDTH 576 0
DWIDTH 8 0
BBX 6 11 1 0
BITMAP
38
68
00
78
FC
CC
C0
C0
CC
FC
78
ENDCHAR
STARTCHAR 010A
ENCODING 266
SWIDTH 720 0
DWIDTH 10 0
BBX 8 13 1 0
BITMAP
18
18
00
3E
7F
E3
C2
C0
C0
C2
E3
7F
3C
ENDCHAR
STARTCHAR 010B
ENCODING 267
SWIDTH 576 0
DWIDTH 8 0
BBX 6 11 1 0
BITMAP
30
30
00
78
FC
CC
C0
C0
CC
FC
78
ENDCHAR
STARTCHAR 010C
ENCODING 268
SWIDTH 720 0
DWIDTH 10 0
BBX 8 13 1 0
BITMAP
34
1C
00
3E
7F
E3
C2
C0
C0
C2
E3
7F
3C
ENDCHAR
STARTCHAR 010D
ENCODING 269
SWIDTH 576 0
DWIDTH 8 0
BBX 6 11 1 0
BITMAP
68
38
00
78
FC
CC
C0
C0
CC
FC
78
ENDCHAR
STARTCHAR 010E
ENCODING 270
SWIDTH 720 0
DWIDTH 10 0
BBX 8 13 1 0
BITMAP
68
38
00
FC
FE
C3
C3
C3
C3
C3
C3
FE
FC
ENDCHAR
STARTCHAR 010F
ENCODING 271
SWIDTH 720 0
DWIDTH 10 0
BBX 9 10 1 0
BITMAP
0780
0780
7680
FF00
CE00
C600
C600
CE00
FE00
7600
ENDCHAR
STARTCHAR 0110
ENCODING 272
SWIDTH 720 0
DWIDTH 10 0
BBX 9 10 0 0
BITMAP
7E00
7F00
6180
6180
F980
6180
6180
6180
7F00
7E00
ENDCHAR
STARTCHAR 0111
ENCODING 273
SWIDTH 648 0
DWIDTH 9 0
BBX 7 10 1 0
BITMAP
1E
06
76
FE
CE
C6
C6
CE
FE
76
ENDCHAR
STARTCHAR 0112
ENCODING 274
SWIDTH 648 0
DWIDTH 9 0
BBX 8 12 1 0
BITMAP
7C
00
FE
FE
C0
C0
FE
FE
C0
C0
FF
FF
ENDCHAR
STARTCHAR 0113
ENCODING 275
SWIDTH 576 0
DWIDTH 8 0
BBX 7 10 0 0
BITMAP
3E
00
3C
7E
66
FE
FE
60
7E
3C
ENDCHAR
STARTCHAR 0114
ENCODING 276
SWIDTH 648 0
DWIDTH 9 0
BBX 8 13 1 0
BITMAP
48
38
00
FE
FE
C0
C0
FE
FE
C0
C0
FF
FF
ENDCHAR
STARTCHAR 0115
ENCODING 277
SWIDTH 576 0
DWIDTH 8 0
BBX 7 11 0 0
BITMAP
48
38
00
3C
7E
66
FE
FE
60
7E
3C
ENDCHAR
STARTCHAR 0116
ENCODING 278
SWIDTH 648 0
DWIDTH 9 0
BBX 8 13 1 0
BITMAP
30
30
00
FE
FE
C0
C0
FE
FE
C0
C0
FF
FF
ENDCHAR
STARTCHAR 0117
ENCODING 279
SWIDTH 576 0
DWIDTH 8 0
BBX 7 11 0 0
BITMAP
18
18
00
3C
7E
66
FE
FE
60
7E
3C
ENDCHAR
STARTCHAR 0118
ENCODING 280
SWIDTH 648 0
DWIDTH 9 0
BBX 8 13 1 -3
BITMAP
FE
FE
C0
C0
FE
FE
C0
C0
FF
FF
02
06
03
ENDCHAR
STARTCHAR 0119
ENCODING 281
SWIDTH 576 0
DWIDTH 8 0
BBX 7 11 0 -3
BITMAP
3C
7E
66
FE
FE
60
7E
3C
08
18
0C
ENDCHAR
STARTCHAR 011A
ENCODING 282
SWIDTH 648 0
DWIDTH 9 0
BBX 8 13 1 0
BITMAP
68
38
00
FE
FE
C0
C0
FE
FE
C0
C0
FF
FF
ENDCHAR
STARTCHAR 011B
ENCODING 283
SWIDTH 576 0
DWIDTH 8 0
BBX 7 11 0 0
BITMAP
34
1C
00
3C
7E
66
FE
FE
60
7E
3C
ENDCHAR
STARTCHAR 011C
ENCODING 284
SWIDTH 792 0
DWIDTH 11 0
BBX 9 13 1 0
BITMAP
1C00
3400
0000
3E00
7F00
E380
C100
C000
C780
C780
E180
7F80
3E00
ENDCHAR
STARTCHAR 011D
ENCODING 285
SWIDTH 648 0
DWIDTH 9 0
BBX 7 14 1 -3
BITMAP
38
68
00
76
FE
CE
C6
C6
CE
FE
76
C6
FC
78
ENDCHAR
STARTCHAR 011E
ENCODING 286
SWIDTH 792 0
DWIDTH 11 0
BBX 9 13 1 0
BITMAP
2400
1C00
0000
3E00
7F00
E380
C100
C000
C780
C780
E180
7F80
3E00
ENDCHAR
STARTCHAR 011F
ENCODING 287
SWIDTH 648 0
DWIDTH 9 0
BBX 7 14 1 -3
BITMAP
48
38
00
76
FE
CE
C6
C6
CE
FE
76
C6
FC
78
ENDCHAR
STARTCHAR 0120
ENCODING 288
SWIDTH 792 0
DWIDTH 11 0
BBX 9 13 1 0
BITMAP
1800
1800
0000
3E00
7F00
E380
C100
C000
C780
C780
E180
7F80
3E00
ENDCHAR
STARTCHAR 0121
ENCODING 289
SWIDTH 648 0
DWIDTH 9 0
BBX 7 14 1 -3
BITMAP
30
30
00
76
FE
CE
C6
C6
CE
FE
76
C6
FC
78
ENDCHAR
STARTCHAR 0122
ENCODING 290
SWIDTH 792 0
DWIDTH 11 0
BBX 9 13 1 -3
BITMAP
3E00
7F00
E380
C100
C000
C780
C780
E180
7F80
3E00
1C00
0400
3C00
ENDCHAR
STARTCHAR 0123
ENCODING 291
SWIDTH 648 0
DWIDTH 9 0
BBX 7 15 1 -3
BITMAP
10
20
30
00
76
FE
CE
C6
C6
CE
FE
76
C6
FC
78
ENDCHAR
STARTCHAR 0124
ENCODING 292
SWIDTH 720 0
DWIDTH 10 0
BBX 8 13 1 0
BITMAP
1C
34
00
C3
C3
C3
C3
FF
FF
C3
C3
C3
C3
ENDCHAR
STARTCHAR 0125
ENCODING 293
SWIDTH 648 0
DWIDTH 9 0
BBX 7 13 1 0
BITMAP
38
68
00
C0
C0
DC
FC
CE
C6
C6
C6
C6
C6
ENDCHAR
STARTCHAR 0126
ENCODING 294
SWIDTH 720 0
DWIDTH 10 0
BBX 10 10 0 0
BITMAP
6180
6180
FFC0
6180
7F80
7F80
6180
6180
6180
6180
ENDCHAR
STARTCHAR 0127
ENCODING 295
SWIDTH 648 0
DWIDTH 9 0
BBX 8 10 0 0
BITMAP
F8
60
6E
7E
63
63
63
63
63
63
ENDCHAR
STARTCHAR 0128
ENCODING 296
SWIDTH 288 0
DWIDTH 4 0
BBX 5 13 0 0
BITMAP
C8
B0
00
60
60
60
60
60
60
60
60
60
60
ENDCHAR
STARTCHAR 0129
ENCODING 297
SWIDTH 288 0
DWIDTH 4 0
BBX 5 11 0 0
BITMAP
C8
B0
00
60
60
60
60
60
60
60
60
ENDCHAR
STARTCHAR 012A
ENCODING 298
SWIDTH 288 0
DWIDTH 4 0
BBX 5 12 0 0
BITMAP
F8
00
60
60
60
60
60
60
60
60
60
60
ENDCHAR
STARTCHAR 012B
ENCODING 299
SWIDTH 288 0
DWIDTH 4 0
BBX 5 10 0 0
BITMAP
F8
00
60
60
60
60
60
60
60
60
ENDCHAR
STARTCHAR 012C
ENCODING 300
SWIDTH 288 0
DWIDTH 4 0
BBX 4 13 0 0
BITMAP
90
70
00
60
60
60
60
60
60
60
60
60
60
ENDCHAR
STARTCHAR 012D
ENCODING 301
SWIDTH 288 0
DWIDTH 4 0
BBX 4 11 0 0
BITMAP
90
70
00
60
60
60
60
60
60
60
60
ENDCHAR
STARTCHAR 012E
ENCODING 302
SWIDTH 288 0
DWIDTH 4 0
BBX 3 13 0 -3
BITMAP
60
60
60
60
60
60
60
60
60
60
40
C0
60
ENDCHAR
STARTCHAR 012F
ENCODING 303
SWIDTH 288 0
DWIDTH 4 0
BBX 3 13 0 -3
BITMAP
60
00
60
60
60
60
60
60
60
60
40
C0
60
ENDCHAR
STARTCHAR 0130
ENCODING 304
SWIDTH 288 0
DWIDTH 4 0
BBX 2 13 1 0
BITMAP
C0
C0
00
C0
C0
C0
C0
C0
C0
C0
C0
C0
C0
ENDCHAR
STARTCHAR 0131
ENCODING 305
SWIDTH 288 0
DWIDTH 4 0
BBX 2 8 1 0
BITMAP
C0
C0
C0
C0
C0
C0
C0
C0
ENDCHAR
STARTCHAR 0132
ENCODING 306
SWIDTH 792 0
DWIDTH 11 0
BBX 9 10 1 0
BITMAP
C180
C180
C180
C180
C180
C180
F180
F380
DF00
CE00
ENDCHAR
STARTCHAR 0133
ENCODING 307
SWIDTH 576 0
DWIDTH 8 0
BBX 6 13 1 -3
BITMAP
CC
00
CC
CC
CC
CC
CC
CC
CC
CC
0C
1C
38
ENDCHAR
STARTCHAR 0134
ENCODING 308
SWIDTH 576 0
DWIDTH 8 0
BBX 7 13 0 0
BITMAP
0E
1A
00
06
06
06
06
06
06
C6
CE
7C
38
ENDCHAR
STARTCHAR 0135
ENCODING 309
SWIDTH 288 0
DWIDTH 4 0
BBX 5 14 -1 -3
BITMAP
30
78
00
30
30
30
30
30
30
30
30
30
70
E0
ENDCHAR
STARTCHAR 0136
ENCODING 310
SWIDTH 720 0
DWIDTH 10 0
BBX 9 13 1 -3
BITMAP
C300
C600
CC00
D800
FC00
EC00
CE00
C700
C300
C380
1C00
0400
3800
ENDCHAR
STARTCHAR 0137
ENCODING 311
SWIDTH 576 0
DWIDTH 8 0
BBX 6 13 1 -3
BITMAP
C0
C0
CC
D8
F0
F0
F8
D8
CC
CC
38
08
70
ENDCHAR
STARTCHAR 0138
ENCODING 312
SWIDTH 576 0
DWIDTH 8 0
BBX 6 8 1 0
BITMAP
CC
D8
F0
F0
F8
D8
CC
CC
ENDCHAR
STARTCHAR 0139
ENCODING 313
SWIDTH 648 0
DWIDTH 9 0
BBX 7 13 1 0
BITMAP
18
10
00
C0
C0
C0
C0
C0
C0
C0
C0
FE
FE
ENDCHAR
STARTCHAR 013A
ENCODING 314
SWIDTH 288 0
DWIDTH 4 0
BBX 3 13 1 0
BITMAP
60
40
00
C0
C0
C0
C0
C0
C0
C0
C0
C0
C0
ENDCHAR
STARTCHAR 013B
ENCODING 315
SWIDTH 648 0
DWIDTH 9 0
BBX 7 13 1 -3
BITMAP
C0
C0
C0
C0
C0
C0
C0
C0
FE
FE
38
08
70
ENDCHAR
STARTCHAR 013C
ENCODING 316
SWIDTH 288 0
DWIDTH 4 0
BBX 4 13 0 -3
BITMAP
60
60
60
60
60
60
60
60
60
60
70
10
E0
ENDCHAR
STARTCHAR 013D
ENCODING 317
SWIDTH 648 0
DWIDTH 9 0
BBX 7 10 1 0
BITMAP
C6
C6
C2
C4
C0
C0
C0
C0
FE
FE
ENDCHAR
STARTCHAR 013E
ENCODING 318
SWIDTH 360 0
DWIDTH 5 0
BBX 4 10 1 0
BITMAP
D0
D0
D0
D0
C0
C0
C0
C0
C0
C0
ENDCHAR
STARTCHAR 013F
ENCODING 319
SWIDTH 648 0
DWIDTH 9 0
BBX 7 10 1 0
BITMAP
C0
C0
C0
F0
F0
C0
C0
C0
FE
FE
ENDCHAR
STARTCHAR 0140
ENCODING 320
SWIDTH 504 0
DWIDTH 7 0
BBX 4 10 1 0
BITMAP
C0
C0
C0
C0
F0
F0
C0
C0
C0
C0
ENDCHAR
STARTCHAR 0141
ENCODING 321
SWIDTH 648 0
DWIDTH 9 0
BBX 8 10 0 0
BITMAP
60
60
68
70
60
60
E0
60
7F
7F
ENDCHAR
STARTCHAR 0142
ENCODING 322
SWIDTH 288 0
DWIDTH 4 0
BBX 4 10 0 0
BITMAP
60
60
60
70
60
E0
60
60
60
60
ENDCHAR
STARTCHAR 0143
ENCODING 323
SWIDTH 720 0
DWIDTH 10 0
BBX 8 13 1 0
BITMAP
0C
08
00
C3
E3
E3
F3
DB
DB
CF
CF
C7
C3
ENDCHAR
STARTCHAR 0144
ENCODING 324
SWIDTH 648 0
DWIDTH 9 0
BBX 7 11 1 0
BITMAP
18
10
00
FC
FC
CE
C6
C6
C6
C6
C6
ENDCHAR
STARTCHAR 0145
ENCODING 325
SWIDTH 720 0
DWIDTH 10 0
BBX 8 13 1 -3
BITMAP
C3
E3
E3
F3
DB
DB
CF
CF
C7
C3
1C
04
38
ENDCHAR
STARTCHAR 0146
ENCODING 326
SWIDTH 648 0
DWIDTH 9 0
BBX 7 11 1 -3
BITMAP
FC
FC
CE
C6
C6
C6
C6
C6
38
08
70
ENDCHAR
STARTCHAR 0147
ENCODING 327
SWIDTH 720 0
DWIDTH 10 0
BBX 8 13 1 0
BITMAP
34
1C
00
C3
E3
E3
F3
DB
DB
CF
CF
C7
C3
ENDCHAR
STARTCHAR 0148
ENCODING 328
SWIDTH 648 0
DWIDTH 9 0
BBX 7 11 1 0
BITMAP
68
38
00
FC
FC
CE
C6
C6
C6
C6
C6
ENDCHAR
STARTCHAR 0149
ENCODING 329
SWIDTH 720 0
DWIDTH 10 0
BBX 9 10 0 0
BITMAP
C000
C000
7F00
BF00
3380
3180
3180
3180
3180
3180
ENDCHAR
STARTCHAR 014A
ENCODING 330
SWIDTH 720 0
DWIDTH 10 0
BBX 8 10 1 0
BITMAP
DE
FF
E3
C3
C3
C3
C3
C3
CF
CE
ENDCHAR
STARTCHAR 014B
ENCODING 331
SWIDTH 648 0
DWIDTH 9 0
BBX 7 11 1 -3
BITMAP
FC
FC
CE
C6
C6
C6
C6
C6
06
1C
1C
ENDCHAR
STARTCHAR 014C
ENCODING 332
SWIDTH 792 0
DWIDTH 11 0
BBX 9 12 1 0
BITMAP
3E00
0000
3E00
7F00
E380
C180
C180
C180
C180
E380
7F00
3E00
ENDCHAR
STARTCHAR 014D
ENCODING 333
SWIDTH 648 0
DWIDTH 9 0
BBX 7 10 1 0
BITMAP
7C
00
78
FC
C6
C6
C6
C6
FC
78
ENDCHAR
STARTCHAR 014E
ENCODING 334
SWIDTH 792 0
DWIDTH 11 0
BBX 9 13 1 0
BITMAP
2400
1C00
0000
3E00
7F00
E380
C180
C180
C180
C180
E380
7F00
3E00
ENDCHAR
STARTCHAR 014F
ENCODING 335
SWIDTH 648 0
DWIDTH 9 0
BBX 7 11 1 0
BITMAP
48
38
00
78
FC
C6
C6
C6
C6
FC
78
ENDCHAR
STARTCHAR 0150
ENCODING 336
SWIDTH 792 0
DWIDTH 11 0
BBX 9 13 1 0
BITMAP
1B00
1600
0000
3E00
7F00
E380
C180
C180
C180
C180
E380
7F00
3E00
ENDCHAR
STARTCHAR 0151
ENCODING 337
SWIDTH 648 0
DWIDTH 9 0
BBX 7 11 1 0
BITMAP
6C
58
00
78
FC
C6
C6
C6
C6
FC
78
ENDCHAR
STARTCHAR 0152
ENCODING 338
SWIDTH 1008 0
DWIDTH 14 0
BBX 13 10 1 0
BITMAP
7BF0
FFF0
C700
C300
C3F0
C3F0
C300
C700
FFF8
7BF8
ENDCHAR
STARTCHAR 0153
ENCODING 339
SWIDTH 936 0
DWIDTH 13 0
BBX 12 8 1 0
BITMAP
79C0
FFE0
CE30
C7F0
C600
CE60
FFE0
79C0
ENDCHAR
STARTCHAR 0154
ENCODING 340
SWIDTH 720 0
DWIDTH 10 0
BBX 9 13 1 0
BITMAP
1800
1000
0000
FE00
FF00
C300
C300
FF00
FC00
CE00
C600
C300
C380
ENDCHAR
STARTCHAR 0155
ENCODING 341
SWIDTH 360 0
DWIDTH 5 0
BBX 5 11 1 0
BITMAP
30
20
00
F8
F0
C0
C0
C0
C0
C0
C0
ENDCHAR
STARTCHAR 0156
ENCODING 342
SWIDTH 720 0
DWIDTH 10 0
BBX 9 13 1 -3
BITMAP
FE00
FF00
C300
C300
FF00
FC00
CE00
C600
C300
C380
1C00
0400
3800
ENDCHAR
STARTCHAR 0157
ENCODING 343
SWIDTH 360 0
DWIDTH 5 0
BBX 6 11 0 -3
BITMAP
7C
78
60
60
60
60
60
60
70
10
E0
ENDCHAR
STARTCHAR 0158
ENCODING 344
SWIDTH 720 0
DWIDTH 10 0
BBX 9 13 1 0
BITMAP
6800
3800
0000
FE00
FF00
C300
C300
FF00
FC00
CE00
C600
C300
C380
ENDCHAR
STARTCHAR 0159
ENCODING 345
SWIDTH 360 0
DWIDTH 5 0
BBX 5 11 1 0
BITMAP
D0
70
00
F8
F0
C0
C0
C0
C0
C0
C0
ENDCHAR
STARTCHAR 015A
ENCODING 346
SWIDTH 648 0
DWIDTH 9 0
BBX 8 13 1 0
BITMAP
18
10
00
7C
FE
C6
E0
FC
3E
07
C7
FE
7C
ENDCHAR
STARTCHAR 015B
ENCODING 347
SWIDTH 576 0
DWIDTH 8 0
BBX 6 11 1 0
BITMAP
18
10
00
78
FC
80
F0
3C
0C
FC
78
ENDCHAR
STARTCHAR 015C
ENCODING 348
SWIDTH 648 0
DWIDTH 9 0
BBX 8 13 1 0
BITMAP
38
68
00
7C
FE
C6
E0
FC
3E
07
C7
FE
7C
ENDCHAR
STARTCHAR 015D
ENCODING 349
SWIDTH 576 0
DWIDTH 8 0
BBX 6 11 1 0
BITMAP
38
68
00
78
FC
80
F0
3C
0C
FC
78
ENDCHAR
STARTCHAR 015E
ENCODING 350
SWIDTH 648 0
DWIDTH 9 0
BBX 8 13 1 -3
BITMAP
7C
FE
C6
E0
FC
3E
07
C7
FE
7C
1C
04
38
ENDCHAR
STARTCHAR 015F
ENCODING 351
SWIDTH 576 0
DWIDTH 8 0
BBX 6 11 1 -3
BITMAP
78
FC
80
F0
3C
0C
FC
78
38
08
70
ENDCHAR
STARTCHAR 0160
ENCODING 352
SWIDTH 648 0
DWIDTH 9 0
BBX 8 13 1 0
BITMAP
68
38
00
7C
FE
C6
E0
FC
3E
07
C7
FE
7C
ENDCHAR
STARTCHAR 0161
ENCODING 353
SWIDTH 576 0
DWIDTH 8 0
BBX 6 11 1 0
BITMAP
D0
70
00
78
FC
80
F0
3C
0C
FC
78
ENDCHAR
STARTCHAR 0162
ENCODING 354
SWIDTH 648 0
DWIDTH 9 0
BBX 8 13 0 -3
BITMAP
FF
FF
18
18
18
18
18
18
18
18
1C
04
38
ENDCHAR
STARTCHAR 0163
ENCODING 355
SWIDTH 360 0
DWIDTH 5 0
BBX 5 13 0 -3
BITMAP
20
60
F0
F0
60
60
60
60
70
30
38
08
70
ENDCHAR
STARTCHAR 0164
ENCODING 356
SWIDTH 648 0
DWIDTH 9 0
BBX 8 13 0 0
BITMAP
34
1C
00
FF
FF
18
18
18
18
18
18
18
18
ENDCHAR
STARTCHAR 0165
ENCODING 357
SWIDTH 504 0
DWIDTH 7 0
BBX 7 10 0 0
BITMAP
26
66
F2
F4
60
60
60
60
70
30
ENDCHAR
STARTCHAR 0166
ENCODING 358
SWIDTH 648 0
DWIDTH 9 0
BBX 8 10 0 0
BITMAP
FF
FF
18
18
18
7E
18
18
18
18
ENDCHAR
STARTCHAR 0167
ENCODING 359
SWIDTH 360 0
DWIDTH 5 0
BBX 4 10 0 0
BITMAP
20
60
F0
F0
60
F0
60
60
70
30
ENDCHAR
STARTCHAR 0168
ENCODING 360
SWIDTH 720 0
DWIDTH 10 0
BBX 8 13 1 0
BITMAP
32
2C
00
C3
C3
C3
C3
C3
C3
C3
E3
7F
3C
ENDCHAR
STARTCHAR 0169
ENCODING 361
SWIDTH 648 0
DWIDTH 9 0
BBX 7 11 1 0
BITMAP
64
58
00
C6
C6
C6
C6
C6
CE
FE
76
ENDCHAR
STARTCHAR 016A
ENCODING 362
SWIDTH 720 0
DWIDTH 10 0
BBX 8 12 1 0
BITMAP
3E
00
C3
C3
C3
C3
C3
C3
C3
E3
7F
3C
ENDCHAR
STARTCHAR 016B
ENCODING 363
SWIDTH 648 0
DWIDTH 9 0
BBX 7 10 1 0
BITMAP
7C
00
C6
C6
C6
C6
C6
CE
FE
76
ENDCHAR
STARTCHAR 016C
ENCODING 364
SWIDTH 720 0
DWIDTH 10 0
BBX 8 13 1 0
BITMAP
24
1C
00
C3
C3
C3
C3
C3
C3
C3
E3
7F
3C
ENDCHAR
STARTCHAR 016D
ENCODING 365
SWIDTH 648 0
DWIDTH 9 0
BBX 7 11 1 0
BITMAP
48
38
00
C6
C6
C6
C6
C6
CE
FE
76
ENDCHAR
STARTCHAR 016E
ENCODING 366
SWIDTH 720 0
DWIDTH 10 0
BBX 8 13 1 0
BITMAP
18
14
14
DB
C3
C3
C3
C3
C3
C3
E3
7F
3C
ENDCHAR
STARTCHAR 016F
ENCODING 367
SWIDTH 648 0
DWIDTH 9 0
BBX 7 13 1 0
BITMAP
30
28
28
30
00
C6
C6
C6
C6
C6
CE
FE
76
ENDCHAR
STARTCHAR 0170
ENCODING 368
SWIDTH 720 0
DWIDTH 10 0
BBX 8 13 1 0
BITMAP
36
2C
00
C3
C3
C3
C3
C3
C3
C3
E3
7F
3C
ENDCHAR
STARTCHAR 0171
ENCODING 369
SWIDTH 648 0
DWIDTH 9 0
BBX 7 11 1 0
BITMAP
36
2C
00
C6
C6
C6
C6
C6
CE
FE
76
ENDCHAR
STARTCHAR 0172
ENCODING 370
SWIDTH 720 0
DWIDTH 10 0
BBX 8 13 1 -3
BITMAP
C3
C3
C3
C3
C3
C3
C3
E3
7F
3C
08
18
0C
ENDCHAR
STARTCHAR 0173
ENCODING 371
SWIDTH 648 0
DWIDTH 9 0
BBX 7 11 1 -3
BITMAP
C6
C6
C6
C6
C6
CE
FE
76
04
0C
06
ENDCHAR
STARTCHAR 0174
ENCODING 372
SWIDTH 936 0
DWIDTH 13 0
BBX 13 13 0 0
BITMAP
0700
0D00
0000
C718
C718
6798
65B0
6DB0
6DB0
3CF0
38E0
38E0
38E0
ENDCHAR
STARTCHAR 0175
ENCODING 373
SWIDTH 792 0
DWIDTH 11 0
BBX 11 11 0 0
BITMAP
0E00
1A00
0000
CE60
CE40
6EC0
6AC0
7AC0
3B80
3B80
3180
ENDCHAR
STARTCHAR 0176
ENCODING 374
SWIDTH 648 0
DWIDTH 9 0
BBX 9 13 0 0
BITMAP
1C00
3400
0000
E180
6300
3300
3600
1E00
1C00
0C00
0C00
0C00
0C00
ENDCHAR
STARTCHAR 0177
ENCODING 375
SWIDTH 576 0
DWIDTH 8 0
BBX 7 14 0 -3
BITMAP
1C
34
00
C6
66
66
64
3C
3C
38
18
18
30
70
ENDCHAR
STARTCHAR 0178
ENCODING 376
SWIDTH 648 0
DWIDTH 9 0
BBX 9 12 0 0
BITMAP
3600
0000
E180
6300
3300
3600
1E00
1C00
0C00
0C00
0C00
0C00
ENDCHAR
STARTCHAR 0179
ENCODING 377
SWIDTH 648 0
DWIDTH 9 0
BBX 8 13 0 0
BITMAP
0C
08
00
7F
7F
06
0C
18
38
70
60
FF
FF
ENDCHAR
STARTCHAR 017A
ENCODING 378
SWIDTH 504 0
DWIDTH 7 0
BBX 7 11 0 0
BITMAP
18
10
00
FE
FE
1C
18
30
60
FE
FE
ENDCHAR
STARTCHAR 017B
ENCODING 379
SWIDTH 648 0
DWIDTH 9 0
BBX 8 13 0 0
BITMAP
18
18
00
7F
7F
06
0C
18
38
70
60
FF
FF
ENDCHAR
STARTCHAR 017C
ENCODING 380
SWIDTH 504 0
DWIDTH 7 0
BBX 7 11 0 0
BITMAP
30
30
00
FE
FE
1C
18
30
60
FE
FE
ENDCHAR
STARTCHAR 017D
ENCODING 381
SWIDTH 648 0
DWIDTH 9 0
BBX 8 13 0 0
BITMAP
34
1C
00
7F
7F
06
0C
18
38
70
60
FF
FF
ENDCHAR
STARTCHAR 017E
ENCODING 382
SWIDTH 504 0
DWIDTH 7 0
BBX 7 11 0 0
BITMAP
68
38
00
FE
FE
1C
18
30
60
FE
FE
ENDCHAR
STARTCHAR 017F
ENCODING 383
SWIDTH 288 0
DWIDTH 4 0
BBX 4 10 1 0
BITMAP
70
C0
C0
C0
C0
C0
C0
C0
C0
C0
ENDCHAR
STARTCHAR 0180
ENCODING 384
SWIDTH 648 0
DWIDTH 9 0
BBX 8 10 0 0
BITMAP
F8
60
6E
7E
63
63
63
63
7E
6E
ENDCHAR
STARTCHAR 0181
ENCODING 385
SWIDTH 864 0
DWIDTH 12 0
BBX 11 10 0 0
BITMAP
7F80
FFC0
D8E0
D8C0
1FC0
1FC0
1860
1860
1FE0
1FC0
ENDCHAR
STARTCHAR 0182
ENCODING 386
SWIDTH 720 0
DWIDTH 10 0
BBX 8 10 1 0
BITMAP
FF
FF
C0
C0
FE
FF
C3
C3
FF
FE
ENDCHAR
STARTCHAR 0183
ENCODING 387
SWIDTH 648 0
DWIDTH 9 0
BBX 7 10 1 0
BITMAP
F8
F8
C0
DC
FE
C6
C6
C6
FE
DC
ENDCHAR
STARTCHAR 0184
ENCODING 388
SWIDTH 720 0
DWIDTH 10 0
BBX 9 10 0 0
BITMAP
2000
6000
E000
6000
7F00
7F80
6180
6180
7F80
7F00
ENDCHAR
STARTCHAR 0185
ENCODING 389
SWIDTH 648 0
DWIDTH 9 0
BBX 8 10 0 0
BITMAP
20
E0
6E
7E
63
63
63
63
7E
6E
ENDCHAR
STARTCHAR 0186
ENCODING 390
SWIDTH 720 0
DWIDTH 10 0
BBX 8 10 1 0
BITMAP
3C
7E
E7
C3
03
03
C3
C7
7E
3C
ENDCHAR
STARTCHAR 0187
ENCODING 391
SWIDTH 720 0
DWIDTH 10 0
BBX 10 12 1 0
BITMAP
01C0
01C0
3F00
7F00
E300
C300
C000
C000
C300
E300
7F00
3C00
ENDCHAR
STARTCHAR 0188
ENCODING 392
SWIDTH 576 0
DWIDTH 8 0
BBX 8 10 1 0
BITMAP
07
07
7C
FC
CC
C0
C0
CC
FC
78
ENDCHAR
STARTCHAR 0189
ENCODING 393
SWIDTH 720 0
DWIDTH 10 0
BBX 9 10 0 0
BITMAP
7E00
7F00
6180
6180
F980
6180
6180
6180
7F00
7E00
ENDCHAR
STARTCHAR 018A
ENCODING 394
SWIDTH 864 0
DWIDTH 12 0
BBX 11 10 0 0
BITMAP
7F80
FFC0
D8E0
D860
1860
1860
1860
18E0
1FC0
1F80
ENDCHAR
STARTCHAR 018B
ENCODING 395
SWIDTH 720 0
DWIDTH 10 0
BBX 8 10 1 0
BITMAP
7F
7F
03
03
7F
FF
C3
C3
FF
7F
ENDCHAR
STARTCHAR 018C
ENCODING 396
SWIDTH 648 0
DWIDTH 9 0
BBX 7 10 1 0
BITMAP
3E
3E
06
76
FE
CE
C6
CE
FE
76
ENDCHAR
STARTCHAR 018D
ENCODING 397
SWIDTH 576 0
DWIDTH 8 0
BBX 7 11 1 -3
BITMAP
78
FC
C6
86
86
C6
FC
78
18
FC
FC
ENDCHAR
STARTCHAR 018E
ENCODING 398
SWIDTH 648 0
DWIDTH 9 0
BBX 7 10 1 0
BITMAP
FE
FE
06
06
FE
FE
06
06
FE
FE
ENDCHAR
STARTCHAR 018F
ENCODING 399
SWIDTH 720 0
DWIDTH 10 0
BBX 9 10 1 0
BITMAP
3C00
FE00
C300
0300
FF80
FF80
C300
E300
7F00
3C00
ENDCHAR
STARTCHAR 0190
ENCODING 400
SWIDTH 648 0
DWIDTH 9 0
BBX 7 10 1 0
BITMAP
7C
FE
C6
46
70
C0
C6
C6
FE
7C
ENDCHAR
STARTCHAR 0191
ENCODING 401
SWIDTH 648 0
DWIDTH 9 0
BBX 9 13 -1 -3
BITMAP
3F80
3F80
3000
3000
3F00
3F00
3000
3000
3000
3000
3000
7000
E000
ENDCHAR
STARTCHAR 0192
ENCODING 402
SWIDTH 576 0
DWIDTH 8 0
BBX 8 13 0 -3
BITMAP
0F
0F
0C
3E
3E
18
18
18
30
30
30
F0
E0
ENDCHAR
STARTCHAR 0193
ENCODING 403
SWIDTH 792 0
DWIDTH 11 0
BBX 11 12 1 0
BITMAP
00E0
01E0
3D80
7F80
E380
C180
C000
C780
C780
E180
7F80
3E00
ENDCHAR
STARTCHAR 0194
ENCODING 404
SWIDTH 648 0
DWIDTH 9 0
BBX 9 13 0 -3
BITMAP
C180
6300
6300
3600
3600
1C00
1C00
0800
1C00
1C00
3600
3E00
1C00
ENDCHAR
STARTCHAR 0195
ENCODING 405
SWIDTH 936 0
DWIDTH 13 0
BBX 11 10 1 0
BITMAP
C000
C000
DC60
FC60
CE60
C660
C660
C660
C7E0
C3C0
ENDCHAR
STARTCHAR 0196
ENCODING 406
SWIDTH 288 0
DWIDTH 4 0
BBX 2 10 1 0
BITMAP
C0
C0
C0
C0
C0
C0
C0
C0
C0
C0
ENDCHAR
STARTCHAR 0197
ENCODING 407
SWIDTH 288 0
DWIDTH 4 0
BBX 4 10 0 0
BITMAP
60
60
60
60
60
F0
60
60
60
60
ENDCHAR
STARTCHAR 0198
ENCODING 408
SWIDTH 720 0
DWIDTH 10 0
BBX 9 10 1 0
BITMAP
7300
F600
CC00
D800
FC00
EC00
CE00
C600
C300
C380
ENDCHAR
STARTCHAR 0199
ENCODING 409
SWIDTH 576 0
DWIDTH 8 0
BBX 6 10 1 0
BITMAP
70
F0
CC
D8
F0
F0
F8
D8
CC
CC
ENDCHAR
STARTCHAR 019A
ENCODING 410
SWIDTH 288 0
DWIDTH 4 0
BBX 4 10 0 0
BITMAP
60
60
60
60
60
F0
60
60
60
60
ENDCHAR
STARTCHAR 019B
ENCODING 411
SWIDTH 576 0
DWIDTH 8 0
BBX 7 10 0 0
BITMAP
38
30
D8
18
38
3C
6C
66
66
C6
ENDCHAR
STARTCHAR 019C
ENCODING 412
SWIDTH 1008 0
DWIDTH 14 0
BBX 12 10 1 0
BITMAP
C630
C630
C630
C630
C630
C630
C630
CE70
FFF0
7BB0
ENDCHAR
STARTCHAR 019D
ENCODING 413
SWIDTH 720 0
DWIDTH 10 0
BBX 10 13 -1 -3
BITMAP
30C0
38C0
38C0
3CC0
36C0
36C0
33C0
33C0
31C0
30C0
3000
7000
E000
ENDCHAR
STARTCHAR 019E
ENCODING 414
SWIDTH 648 0
DWIDTH 9 0
BBX 7 11 1 -3
BITMAP
DC
FC
CE
C6
C6
C6
C6
C6
06
06
06
ENDCHAR
STARTCHAR 019F
ENCODING 415
SWIDTH 792 0
DWIDTH 11 0
BBX 9 10 1 0
BITMAP
3E00
7F00
E380
C180
FF80
FF80
C180
E380
7F00
3E00
ENDCHAR
STARTCHAR 01A0
ENCODING 416
SWIDTH 864 0
DWIDTH 12 0
BBX 11 10 1 0
BITMAP
3E60
7F60
E3A0
C1C0
C180
C180
C180
E380
7F00
3E00
ENDCHAR
STARTCHAR 01A1
ENCODING 417
SWIDTH 720 0
DWIDTH 10 0
BBX 9 8 1 0
BITMAP
7980
FF80
C680
C700
C600
C600
FC00
7800
ENDCHAR
STARTCHAR 01A2
ENCODING 418
SWIDTH 864 0
DWIDTH 12 0
BBX 10 13 1 -3
BITMAP
3C40
7FC0
E6C0
C6C0
C6C0
C6C0
C6C0
E6C0
7EC0
3EC0
00C0
00C0
00C0
ENDCHAR
STARTCHAR 01A3
ENCODING 419
SWIDTH 720 0
DWIDTH 10 0
BBX 8 11 1 -3
BITMAP
79
FF
CF
CF
CF
CF
FF
7F
03
03
03
ENDCHAR
STARTCHAR 01A4
ENCODING 420
SWIDTH 792 0
DWIDTH 11 0
BBX 10 10 0 0
BITMAP
7F80
FFC0
D8C0
D8C0
1FC0
1F80
1800
1800
1800
1800
ENDCHAR
STARTCHAR 01A5
ENCODING 421
SWIDTH 648 0
DWIDTH 9 0
BBX 7 13 1 -3
BITMAP
70
C0
DC
FC
E6
C6
C6
C6
FC
DC
C0
C0
C0
ENDCHAR
STARTCHAR 01A6
ENCODING 422
SWIDTH 648 0
DWIDTH 9 0
BBX 8 12 1 -2
BITMAP
C0
FC
FE
C7
C7
FE
FC
DC
CC
CE
06
03
ENDCHAR
STARTCHAR 01A7
ENCODING 423
SWIDTH 648 0
DWIDTH 9 0
BBX 8 10 1 0
BITMAP
7C
FE
C6
06
7E
FC
C0
C3
FE
7C
ENDCHAR
STARTCHAR 01A8
ENCODING 424
SWIDTH 576 0
DWIDTH 8 0
BBX 6 8 1 0
BITMAP
78
FC
0C
7C
F8
C0
FC
78
ENDCHAR
STARTCHAR 01A9
ENCODING 425
SWIDTH 576 0
DWIDTH 8 0
BBX 7 10 1 0
BITMAP
FE
FE
E0
70
30
30
60
C0
FE
FE
ENDCHAR
STARTCHAR 01AA
ENCODING 426
SWIDTH 360 0
DWIDTH 5 0
BBX 6 13 0 -3
BITMAP
60
B0
70
30
30
30
30
30
30
30
30
38
1C
ENDCHAR
STARTCHAR 01AB
ENCODING 427
SWIDTH 360 0
DWIDTH 5 0
BBX 4 13 0 -3
BITMAP
20
60
F0
F0
60
60
60
60
70
30
10
70
70
ENDCHAR
STARTCHAR 01AC
ENCODING 428
SWIDTH 648 0
DWIDTH 9 0
BBX 8 10 0 0
BITMAP
7F
FF
D8
D8
18
18
18
18
18
18
ENDCHAR
STARTCHAR 01AD
ENCODING 429
SWIDTH 360 0
DWIDTH 5 0
BBX 5 10 0 0
BITMAP
78
60
F0
F0
60
60
60
60
70
30
ENDCHAR
STARTCHAR 01AE
ENCODING 430
SWIDTH 648 0
DWIDTH 9 0
BBX 8 13 0 -3
BITMAP
FF
FF
18
18
18
18
18
18
18
18
18
1E
0E
ENDCHAR
STARTCHAR 01AF
ENCODING 431
SWIDTH 864 0
DWIDTH 12 0
BBX 11 10 1 0
BITMAP
C360
C360
C340
C3C0
C300
C300
C300
E300
7E00
3C00
ENDCHAR
STARTCHAR 01B0
ENCODING 432
SWIDTH 720 0
DWIDTH 10 0
BBX 9 8 1 0
BITMAP
C780
C780
C680
C680
C700
CE00
FE00
7600
ENDCHAR
STARTCHAR 01B1
ENCODING 433
SWIDTH 792 0
DWIDTH 11 0
BBX 10 10 1 0
BITMAP
F7C0
F7C0
6300
C180
C180
C180
C180
E380
7F00
3E00
ENDCHAR
STARTCHAR 01B2
ENCODING 434
SWIDTH 720 0
DWIDTH 10 0
BBX 8 10 1 0
BITMAP
CE
CF
C3
C3
C3
C3
C3
C6
7E
3C
ENDCHAR
STARTCHAR 01B3
ENCODING 435
SWIDTH 792 0
DWIDTH 11 0
BBX 11 10 0 0
BITMAP
E1C0
63E0
3300
3600
1E00
1C00
0C00
0C00
0C00
0C00
ENDCHAR
STARTCHAR 01B4
ENCODING 436
SWIDTH 576 0
DWIDTH 8 0
BBX 10 13 0 -3
BITMAP
0180
03C0
C300
6600
6600
6600
3C00
3C00
3800
1800
1800
7000
7000
ENDCHAR
STARTCHAR 01B5
ENCODING 437
SWIDTH 648 0
DWIDTH 9 0
BBX 8 10 0 0
BITMAP
7F
7F
07
0C
FF
30
70
E0
FF
FF
ENDCHAR
STARTCHAR 01B6
ENCODING 438
SWIDTH 504 0
DWIDTH 7 0
BBX 7 8 0 0
BITMAP
FE
FE
1C
FE
70
60
FE
FE
ENDCHAR
STARTCHAR 01B7
ENCODING 439
SWIDTH 648 0
DWIDTH 9 0
BBX 8 13 0 -3
BITMAP
FF
FF
06
0C
18
3C
3E
07
03
03
E7
7E
3C
ENDCHAR
STARTCHAR 01B8
ENCODING 440
SWIDTH 648 0
DWIDTH 9 0
BBX 7 13 1 -3
BITMAP
FE
FE
E0
70
38
78
F8
C0
C0
C0
C6
FE
7C
ENDCHAR
STARTCHAR 01B9
ENCODING 441
SWIDTH 504 0
DWIDTH 7 0
BBX 7 11 0 -3
BITMAP
FE
FE
60
30
78
60
C0
C0
E6
7E
3C
ENDCHAR
STARTCHAR 01BA
ENCODING 442
SWIDTH 504 0
DWIDTH 7 0
BBX 7 11 0 -3
BITMAP
7E
7E
0C
1C
06
0E
7C
F0
C6
7E
7C
ENDCHAR
STARTCHAR 01BB
ENCODING 443
SWIDTH 576 0
DWIDTH 8 0
BBX 7 10 0 0
BITMAP
3C
7E
66
66
06
7E
38
70
7E
FE
ENDCHAR
STARTCHAR 01BC
ENCODING 444
SWIDTH 576 0
DWIDTH 8 0
BBX 6 10 1 0
BITMAP
FC
FC
60
60
78
7C
0C
CC
FC
78
ENDCHAR
STARTCHAR 01BD
ENCODING 445
SWIDTH 504 0
DWIDTH 7 0
BBX 6 8 0 0
BITMAP
FC
FC
60
7C
0C
CC
7C
78
ENDCHAR
STARTCHAR 01BE
ENCODING 446
SWIDTH 576 0
DWIDTH 8 0
BBX 8 10 0 0
BITMAP
20
60
F0
F0
60
7C
0E
63
7E
3C
ENDCHAR
STARTCHAR 01BF
ENCODING 447
SWIDTH 648 0
DWIDTH 9 0
BBX 7 11 1 -3
BITMAP
DC
FE
C6
C6
C6
C6
CC
D8
F0
E0
C0
ENDCHAR
STARTCHAR 01C0
ENCODING 448
SWIDTH 288 0
DWIDTH 4 0
BBX 2 10 1 0
BITMAP
C0
C0
C0
C0
C0
C0
C0
C0
C0
C0
ENDCHAR
STARTCHAR 01C1
ENCODING 449
SWIDTH 504 0
DWIDTH 7 0
BBX 5 10 1 0
BITMAP
D8
D8
D8
D8
D8
D8
D8
D8
D8
D8
ENDCHAR
STARTCHAR 01C2
ENCODING 450
SWIDTH 576 0
DWIDTH 8 0
BBX 7 10 1 0
BITMAP
30
30
FE
FE
30
FE
FE
30
30
30
ENDCHAR
STARTCHAR 01C3
ENCODING 451
SWIDTH 360 0
DWIDTH 5 0
BBX 2 10 1 0
BITMAP
C0
C0
C0
C0
40
40
40
00
C0
C0
ENDCHAR
STARTCHAR 01C4
ENCODING 452
SWIDTH 1368 0
DWIDTH 19 0
BBX 17 13 1 0
BITMAP
001A00
000E00
000000
FC3F80
FE3F80
C30300
C30600
C30C00
C31C00
C33800
C33000
FE7F80
FC7F80
ENDCHAR
STARTCHAR 01C5
ENCODING 453
SWIDTH 1224 0
DWIDTH 17 0
BBX 16 11 1 0
BITMAP
0034
FC1C
FE00
C37F
C37F
C30E
C30C
C318
C330
FE7F
FC7F
ENDCHAR
STARTCHAR 01C6
ENCODING 454
SWIDTH 1152 0
DWIDTH 16 0
BBX 15 11 1 0
BITMAP
0068
0638
0600
76FE
FEFE
CE1C
C618
C630
CE60
FEFE
76FE
ENDCHAR
STARTCHAR 01C7
ENCODING 455
SWIDTH 1152 0
DWIDTH 16 0
BBX 15 10 1 0
BITMAP
C006
C006
C006
C006
C006
C006
C0C6
C0CE
FE7C
FE38
ENDCHAR
STARTCHAR 01C8
ENCODING 456
SWIDTH 864 0
DWIDTH 12 0
BBX 11 13 1 -3
BITMAP
C060
C000
C060
C060
C060
C060
C060
C060
FE60
FE60
0060
00E0
01C0
ENDCHAR
STARTCHAR 01C9
ENCODING 457
SWIDTH 576 0
DWIDTH 8 0
BBX 6 13 1 -3
BITMAP
CC
C0
CC
CC
CC
CC
CC
CC
CC
CC
0C
1C
38
ENDCHAR
STARTCHAR 01CA
ENCODING 458
SWIDTH 1296 0
DWIDTH 18 0
BBX 16 10 1 0
BITMAP
C303
E303
E303
F303
DB03
DB03
CF63
CF67
C73E
C31C
ENDCHAR
STARTCHAR 01CB
ENCODING 459
SWIDTH 1008 0
DWIDTH 14 0
BBX 12 13 1 -3
BITMAP
C330
E300
E330
F330
DB30
DB30
CF30
CF30
C730
C330
0030
0070
00E0
ENDCHAR
STARTCHAR 01CC
ENCODING 460
SWIDTH 864 0
DWIDTH 12 0
BBX 11 13 1 -3
BITMAP
0060
0000
FC60
FC60
CE60
C660
C660
C660
C660
C660
0060
00E0
01C0
ENDCHAR
STARTCHAR 01CD
ENCODING 461
SWIDTH 720 0
DWIDTH 10 0
BBX 10 13 0 0
BITMAP
1A00
0E00
0000
0C00
1E00
1E00
1600
3300
3300
7F80
7F80
6180
C0C0
ENDCHAR
STARTCHAR 01CE
ENCODING 462
SWIDTH 576 0
DWIDTH 8 0
BBX 6 11 1 0
BITMAP
68
38
00
78
FC
0C
3C
CC
CC
FC
EC
ENDCHAR
STARTCHAR 01CF
ENCODING 463
SWIDTH 288 0
DWIDTH 4 0
BBX 4 13 0 0
BITMAP
D0
70
00
60
60
60
60
60
60
60
60
60
60
ENDCHAR
STARTCHAR 01D0
ENCODING 464
SWIDTH 288 0
DWIDTH 4 0
BBX 4 11 0 0
BITMAP
D0
70
00
60
60
60
60
60
60
60
60
ENDCHAR
STARTCHAR 01D1
ENCODING 465
SWIDTH 792 0
DWIDTH 11 0
BBX 9 13 1 0
BITMAP
3400
1C00
0000
3E00
7F00
E380
C180
C180
C180
C180
E380
7F00
3E00
ENDCHAR
STARTCHAR 01D2
ENCODING 466
SWIDTH 648 0
DWIDTH 9 0
BBX 7 11 1 0
BITMAP
68
38
00
78
FC
C6
C6
C6
C6
FC
78
ENDCHAR
STARTCHAR 01D3
ENCODING 467
SWIDTH 720 0
DWIDTH 10 0
BBX 8 13 1 0
BITMAP
34
1C
00
C3
C3
C3
C3
C3
C3
C3
E3
7F
3C
ENDCHAR
STARTCHAR 01D4
ENCODING 468
SWIDTH 648 0
DWIDTH 9 0
BBX 7 11 1 0
BITMAP
68
38
00
C6
C6
C6
C6
C6
CE
FE
76
ENDCHAR
STARTCHAR 01D5
ENCODING 469
SWIDTH 720 0
DWIDTH 10 0
BBX 8 13 1 0
BITMAP
3C
00
24
C3
C3
C3
C3
C3
C3
C3
E3
7F
3C
ENDCHAR
STARTCHAR 01D6
ENCODING 470
SWIDTH 648 0
DWIDTH 9 0
BBX 7 12 1 0
BITMAP
7C
00
6C
00
C6
C6
C6
C6
C6
CE
FE
76
ENDCHAR
STARTCHAR 01D7
ENCODING 471
SWIDTH 720 0
DWIDTH 10 0
BBX 8 13 1 0
BITMAP
08
18
24
C3
C3
C3
C3
C3
C3
C3
E3
7F
3C
ENDCHAR
STARTCHAR 01D8
ENCODING 472
SWIDTH 648 0
DWIDTH 9 0
BBX 7 13 1 0
BITMAP
18
10
00
6C
00
C6
C6
C6
C6
C6
CE
FE
76
ENDCHAR
STARTCHAR 01D9
ENCODING 473
SWIDTH 720 0
DWIDTH 10 0
BBX 8 13 1 0
BITMAP
3C
18
24
C3
C3
C3
C3
C3
C3
C3
E3
7F
3C
ENDCHAR
STARTCHAR 01DA
ENCODING 474
SWIDTH 648 0
DWIDTH 9 0
BBX 7 13 1 0
BITMAP
68
38
00
6C
00
C6
C6
C6
C6
C6
CE
FE
76
ENDCHAR
STARTCHAR 01DB
ENCODING 475
SWIDTH 720 0
DWIDTH 10 0
BBX 8 13 1 0
BITMAP
10
18
24
C3
C3
C3
C3
C3
C3
C3
E3
7F
3C
ENDCHAR
STARTCHAR 01DC
ENCODING 476
SWIDTH 648 0
DWIDTH 9 0
BBX 7 13 1 0
BITMAP
30
10
00
6C
00
C6
C6
C6
C6
C6
CE
FE
76
ENDCHAR
STARTCHAR 01DD
ENCODING 477
SWIDTH 576 0
DWIDTH 8 0
BBX 6 8 1 0
BITMAP
78
FC
0C
FC
FC
CC
FC
78
ENDCHAR
STARTCHAR 01DE
ENCODING 478
SWIDTH 720 0
DWIDTH 10 0
BBX 10 13 0 0
BITMAP
1E00
1200
0000
0C00
1E00
1E00
1600
3300
3300
7F80
7F80
6180
C0C0
ENDCHAR
STARTCHAR 01DF
ENCODING 479
SWIDTH 576 0
DWIDTH 8 0
BBX 6 12 1 0
BITMAP
7C
00
6C
00
78
FC
0C
3C
CC
CC
FC
EC
ENDCHAR
STARTCHAR 01E0
ENCODING 480
SWIDTH 720 0
DWIDTH 10 0
BBX 10 13 0 0
BITMAP
1E00
0800
0000
0C00
1E00
1E00
1600
3300
3300
7F80
7F80
6180
C0C0
ENDCHAR
STARTCHAR 01E1
ENCODING 481
SWIDTH 576 0
DWIDTH 8 0
BBX 6 13 1 0
BITMAP
7C
00
30
30
00
78
FC
0C
3C
CC
CC
FC
EC
ENDCHAR
STARTCHAR 01E2
ENCODING 482
SWIDTH 1008 0
DWIDTH 14 0
BBX 13 12 0 0
BITMAP
03E0
0000
0FF8
1BF8
1B00
3300
33F8
33F8
7F00
7F00
C3F8
C3F8
ENDCHAR
STARTCHAR 01E3
ENCODING 483
SWIDTH 864 0
DWIDTH 12 0
BBX 11 10 1 0
BITMAP
1F00
0000
7B80
FFC0
CC60
3FE0
CC00
CC60
FFC0
F380
ENDCHAR
STARTCHAR 01E4
ENCODING 484
SWIDTH 792 0
DWIDTH 11 0
BBX 10 10 1 0
BITMAP
3E00
7F00
E180
C000
C780
C180
C7C0
E380
7F80
3E00
ENDCHAR
STARTCHAR 01E5
ENCODING 485
SWIDTH 648 0
DWIDTH 9 0
BBX 8 11 0 -3
BITMAP
3B
7F
67
63
67
7F
3B
FF
06
7E
3C
ENDCHAR
STARTCHAR 01E6
ENCODING 486
SWIDTH 792 0
DWIDTH 11 0
BBX 9 13 1 0
BITMAP
3400
1C00
0000
3E00
7F00
E380
C100
C000
C780
C780
E180
7F80
3E00
ENDCHAR
STARTCHAR 01E7
ENCODING 487
SWIDTH 648 0
DWIDTH 9 0
BBX 7 14 1 -3
BITMAP
68
38
00
76
FE
CE
C6
C6
CE
FE
76
C6
FC
78
ENDCHAR
STARTCHAR 01E8
ENCODING 488
SWIDTH 720 0
DWIDTH 10 0
BBX 9 13 1 0
BITMAP
6800
3800
0000
C300
C600
CC00
D800
FC00
EC00
CE00
C700
C300
C380
ENDCHAR
STARTCHAR 01E9
ENCODING 489
SWIDTH 576 0
DWIDTH 8 0
BBX 6 13 1 0
BITMAP
D0
70
00
C0
C0
CC
D8
F0
F0
F8
D8
CC
CC
ENDCHAR
STARTCHAR 01EA
ENCODING 490
SWIDTH 792 0
DWIDTH 11 0
BBX 9 13 1 -3
BITMAP
3E00
7F00
E380
C180
C180
C180
C180
E380
7F00
3E00
0800
1800
0C00
ENDCHAR
STARTCHAR 01EB
ENCODING 491
SWIDTH 648 0
DWIDTH 9 0
BBX 7 11 1 -3
BITMAP
78
FC
C6
C6
C6
C6
FC
78
10
30
18
ENDCHAR
STARTCHAR 01EC
ENCODING 492
SWIDTH 792 0
DWIDTH 11 0
BBX 9 15 1 -3
BITMAP
3E00
0000
3E00
7F00
E380
C180
C180
C180
C180
E380
7F00
3E00
0800
1800
0C00
ENDCHAR
STARTCHAR 01ED
ENCODING 493
SWIDTH 648 0
DWIDTH 9 0
BBX 7 13 1 -3
BITMAP
7C
00
78
FC
C6
C6
C6
C6
FC
78
10
30
18
ENDCHAR
STARTCHAR 01EE
ENCODING 494
SWIDTH 648 0
DWIDTH 9 0
BBX 8 16 0 -3
BITMAP
34
1C
00
FF
FF
06
0C
18
3C
3E
07
03
03
E7
7E
3C
ENDCHAR
STARTCHAR 01EF
ENCODING 495
SWIDTH 504 0
DWIDTH 7 0
BBX 7 14 0 -3
BITMAP
34
1C
00
7E
7E
0C
18
1C
06
06
06
C6
7E
3C
ENDCHAR
STARTCHAR 01F0
ENCODING 496
SWIDTH 288 0
DWIDTH 4 0
BBX 5 14 -1 -3
BITMAP
68
38
00
30
30
30
30
30
30
30
30
30
70
E0
ENDCHAR
STARTCHAR 01F1
ENCODING 497
SWIDTH 1368 0
DWIDTH 19 0
BBX 17 10 1 0
BITMAP
FC3F80
FE3F80
C30300
C30600
C30C00
C31C00
C33800
C33000
FE7F80
FC7F80
ENDCHAR
STARTCHAR 01F2
ENCODING 498
SWIDTH 1224 0
DWIDTH 17 0
BBX 16 10 1 0
BITMAP
FC00
FE00
C37F
C37F
C30E
C30C
C318
C330
FE7F
FC7F
ENDCHAR
STARTCHAR 01F3
ENCODING 499
SWIDTH 1152 0
DWIDTH 16 0
BBX 15 10 1 0
BITMAP
0600
0600
76FE
FEFE
CE1C
C618
C630
CE60
FEFE
76FE
ENDCHAR
STARTCHAR 01F4
ENCODING 500
SWIDTH 792 0
DWIDTH 11 0
BBX 9 13 1 0
BITMAP
0C00
0800
0000
3E00
7F00
E380
C100
C000
C780
C780
E180
7F80
3E00
ENDCHAR
STARTCHAR 01F5
ENCODING 501
SWIDTH 648 0
DWIDTH 9 0
BBX 7 14 1 -3
BITMAP
18
10
00
76
FE
CE
C6
C6
CE
FE
76
C6
FC
78
ENDCHAR
STARTCHAR 01F6
ENCODING 502
SWIDTH 1008 0
DWIDTH 14 0
BBX 13 10 1 0
BITMAP
C300
C300
C318
C318
FF18
FF18
C318
C330
C3F0
C1E0
ENDCHAR
STARTCHAR 01F7
ENCODING 503
SWIDTH 648 0
DWIDTH 9 0
BBX 8 13 1 -3
BITMAP
DC
FE
E7
C3
C3
C6
C6
CE
CC
D8
F0
E0
C0
ENDCHAR
STARTCHAR 01F8
ENCODING 504
SWIDTH 720 0
DWIDTH 10 0
BBX 8 13 1 0
BITMAP
18
08
00
C3
E3
E3
F3
DB
DB
CF
CF
C7
C3
ENDCHAR
STARTCHAR 01F9
ENCODING 505
SWIDTH 648 0
DWIDTH 9 0
BBX 7 11 1 0
BITMAP
30
10
00
FC
FC
CE
C6
C6
C6
C6
C6
ENDCHAR
STARTCHAR 01FA
ENCODING 506
SWIDTH 720 0
DWIDTH 10 0
BBX 10 14 0 0
BITMAP
0600
0C00
0A00
0A00
0C00
1E00
1E00
1600
3300
3300
7F80
7F80
6180
C0C0
ENDCHAR
STARTCHAR 01FB
ENCODING 507
SWIDTH 576 0
DWIDTH 8 0
BBX 6 14 1 0
BITMAP
18
10
30
28
28
30
78
FC
0C
3C
CC
CC
FC
EC
ENDCHAR
STARTCHAR 01FC
ENCODING 508
SWIDTH 1008 0
DWIDTH 14 0
BBX 13 13 0 0
BITMAP
0180
0100
0000
0FF8
1BF8
1B00
3300
33F8
33F8
7F00
7F00
C3F8
C3F8
ENDCHAR
STARTCHAR 01FD
ENCODING 509
SWIDTH 864 0
DWIDTH 12 0
BBX 11 11 1 0
BITMAP
0600
0400
0000
7B80
FFC0
CC60
3FE0
CC00
CC60
FFC0
F380
ENDCHAR
STARTCHAR 01FE
ENCODING 510
SWIDTH 792 0
DWIDTH 11 0
BBX 11 13 0 0
BITMAP
0600
0400
0000
1F60
3FC0
71C0
63C0
66C0
6CC0
78C0
71C0
7F80
DF00
ENDCHAR
STARTCHAR 01FF
ENCODING 511
SWIDTH 648 0
DWIDTH 9 0
BBX 7 11 1 0
BITMAP
18
10
00
7A
FC
CE
DE
F6
E6
FC
F8
ENDCHAR
STARTCHAR 0200
ENCODING 512
SWIDTH 720 0
DWIDTH 10 0
BBX 10 13 0 0
BITMAP
2C00
1600
0000
0C00
1E00
1E00
1600
3300
3300
7F80
7F80
6180
C0C0
ENDCHAR
STARTCHAR 0201
ENCODING 513
SWIDTH 576 0
DWIDTH 8 0
BBX 6 11 1 0
BITMAP
B0
58
00
78
FC
0C
3C
CC
CC
FC
EC
ENDCHAR
STARTCHAR 0202
ENCODING 514
SWIDTH 720 0
DWIDTH 10 0
BBX 10 13 0 0
BITMAP
0C00
1200
0000
0C00
1E00
1E00
1600
3300
3300
7F80
7F80
6180
C0C0
ENDCHAR
STARTCHAR 0203
ENCODING 515
SWIDTH 576 0
DWIDTH 8 0
BBX 6 11 1 0
BITMAP
30
48
00
78
FC
0C
3C
CC
CC
FC
EC
ENDCHAR
STARTCHAR 0204
ENCODING 516
SWIDTH 648 0
DWIDTH 9 0
BBX 8 13 1 0
BITMAP
58
2C
00
FE
FE
C0
C0
FE
FE
C0
C0
FF
FF
ENDCHAR
STARTCHAR 0205
ENCODING 517
SWIDTH 576 0
DWIDTH 8 0
BBX 7 11 0 0
BITMAP
58
2C
00
3C
7E
66
FE
FE
60
7E
3C
ENDCHAR
STARTCHAR 0206
ENCODING 518
SWIDTH 648 0
DWIDTH 9 0
BBX 8 13 1 0
BITMAP
18
24
00
FE
FE
C0
C0
FE
FE
C0
C0
FF
FF
ENDCHAR
STARTCHAR 0207
ENCODING 519
SWIDTH 576 0
DWIDTH 8 0
BBX 7 11 0 0
BITMAP
18
24
00
3C
7E
66
FE
FE
60
7E
3C
ENDCHAR
STARTCHAR 0208
ENCODING 520
SWIDTH 288 0
DWIDTH 4 0
BBX 5 13 -1 0
BITMAP
B0
58
00
30
30
30
30
30
30
30
30
30
30
ENDCHAR
STARTCHAR 0209
ENCODING 521
SWIDTH 288 0
DWIDTH 4 0
BBX 5 11 -1 0
BITMAP
B0
58
00
30
30
30
30
30
30
30
30
ENDCHAR
STARTCHAR 020A
ENCODING 522
SWIDTH 288 0
DWIDTH 4 0
BBX 4 13 0 0
BITMAP
60
90
00
60
60
60
60
60
60
60
60
60
60
ENDCHAR
STARTCHAR 020B
ENCODING 523
SWIDTH 288 0
DWIDTH 4 0
BBX 4 11 0 0
BITMAP
60
90
00
60
60
60
60
60
60
60
60
ENDCHAR
STARTCHAR 020C
ENCODING 524
SWIDTH 792 0
DWIDTH 11 0
BBX 9 13 1 0
BITMAP
2C00
1600
0000
3E00
7F00
E380
C180
C180
C180
C180
E380
7F00
3E00
ENDCHAR
STARTCHAR 020D
ENCODING 525
SWIDTH 648 0
DWIDTH 9 0
BBX 7 11 1 0
BITMAP
58
2C
00
78
FC
C6
C6
C6
C6
FC
78
ENDCHAR
STARTCHAR 020E
ENCODING 526
SWIDTH 792 0
DWIDTH 11 0
BBX 9 13 1 0
BITMAP
1800
2400
0000
3E00
7F00
E380
C180
C180
C180
C180
E380
7F00
3E00
ENDCHAR
STARTCHAR 020F
ENCODING 527
SWIDTH 648 0
DWIDTH 9 0
BBX 7 11 1 0
BITMAP
30
48
00
78
FC
C6
C6
C6
C6
FC
78
ENDCHAR
STARTCHAR 0210
ENCODING 528
SWIDTH 720 0
DWIDTH 10 0
BBX 9 13 1 0
BITMAP
5800
2C00
0000
FE00
FF00
C300
C300
FF00
FC00
CE00
C600
C300
C380
ENDCHAR
STARTCHAR 0211
ENCODING 529
SWIDTH 360 0
DWIDTH 5 0
BBX 6 11 0 0
BITMAP
B0
58
00
7C
78
60
60
60
60
60
60
ENDCHAR
STARTCHAR 0212
ENCODING 530
SWIDTH 720 0
DWIDTH 10 0
BBX 9 13 1 0
BITMAP
1800
2400
0000
FE00
FF00
C300
C300
FF00
FC00
CE00
C600
C300
C380
ENDCHAR
STARTCHAR 0213
ENCODING 531
SWIDTH 360 0
DWIDTH 5 0
BBX 5 11 1 0
BITMAP
60
90
00
F8
F0
C0
C0
C0
C0
C0
C0
ENDCHAR
STARTCHAR 0214
ENCODING 532
SWIDTH 720 0
DWIDTH 10 0
BBX 8 13 1 0
BITMAP
2C
16
00
C3
C3
C3
C3
C3
C3
C3
E3
7F
3C
ENDCHAR
STARTCHAR 0215
ENCODING 533
SWIDTH 648 0
DWIDTH 9 0
BBX 7 11 1 0
BITMAP
B0
58
00
C6
C6
C6
C6
C6
CE
FE
76
ENDCHAR
STARTCHAR 0216
ENCODING 534
SWIDTH 720 0
DWIDTH 10 0
BBX 8 13 1 0
BITMAP
18
24
00
C3
C3
C3
C3
C3
C3
C3
E3
7F
3C
ENDCHAR
STARTCHAR 0217
ENCODING 535
SWIDTH 648 0
DWIDTH 9 0
BBX 7 11 1 0
BITMAP
30
48
00
C6
C6
C6
C6
C6
CE
FE
76
ENDCHAR
STARTCHAR 0218
ENCODING 536
SWIDTH 648 0
DWIDTH 9 0
BBX 8 14 1 -4
BITMAP
7C
FE
C6
E0
FC
3E
07
C7
FE
7C
00
30
10
30
ENDCHAR
STARTCHAR 0219
ENCODING 537
SWIDTH 576 0
DWIDTH 8 0
BBX 6 12 1 -4
BITMAP
78
FC
80
F0
3C
0C
FC
78
00
60
20
60
ENDCHAR
STARTCHAR 021A
ENCODING 538
SWIDTH 648 0
DWIDTH 9 0
BBX 8 14 0 -4
BITMAP
FF
FF
18
18
18
18
18
18
18
18
00
18
08
18
ENDCHAR
STARTCHAR 021B
ENCODING 539
SWIDTH 360 0
DWIDTH 5 0
BBX 4 14 0 -4
BITMAP
20
60
F0
F0
60
60
60
60
70
30
00
60
20
60
ENDCHAR
STARTCHAR 021C
ENCODING 540
SWIDTH 576 0
DWIDTH 8 0
BBX 7 13 0 -3
BITMAP
3C
FE
46
06
06
3E
7E
46
06
0E
3C
78
40
ENDCHAR
STARTCHAR 021D
ENCODING 541
SWIDTH 504 0
DWIDTH 7 0
BBX 6 11 1 -3
BITMAP
78
FC
8C
0C
38
F8
CC
0C
38
F0
C0
ENDCHAR
STARTCHAR 021E
ENCODING 542
SWIDTH 720 0
DWIDTH 10 0
BBX 8 13 1 0
BITMAP
34
1C
00
C3
C3
C3
C3
FF
FF
C3
C3
C3
C3
ENDCHAR
STARTCHAR 021F
ENCODING 543
SWIDTH 648 0
DWIDTH 9 0
BBX 7 13 1 0
BITMAP
D0
70
00
C0
C0
DC
FC
CE
C6
C6
C6
C6
C6
ENDCHAR
STARTCHAR 0220
ENCODING 544
SWIDTH 720 0
DWIDTH 10 0
BBX 8 13 1 -3
BITMAP
FE
FF
C7
C3
C3
C3
C3
C3
C3
C3
03
03
03
ENDCHAR
STARTCHAR 0221
ENCODING 545
SWIDTH 864 0
DWIDTH 12 0
BBX 11 13 1 -3
BITMAP
0600
0600
7600
FE00
CE00
C600
C600
CE00
FFC0
77E0
0760
07E0
07C0
ENDCHAR
STARTCHAR 0222
ENCODING 546
SWIDTH 648 0
DWIDTH 9 0
BBX 7 10 1 0
BITMAP
6C
EE
C6
7C
FE
C6
C6
C6
FE
7C
ENDCHAR
STARTCHAR 0223
ENCODING 547
SWIDTH 648 0
DWIDTH 9 0
BBX 7 10 1 0
BITMAP
4C
C6
C6
7C
FE
C6
C6
C6
FE
7C
ENDCHAR
STARTCHAR 0224
ENCODING 548
SWIDTH 648 0
DWIDTH 9 0
BBX 8 12 0 -2
BITMAP
7F
7F
07
0E
1C
38
70
60
FF
FF
01
01
ENDCHAR
STARTCHAR 0225
ENCODING 549
SWIDTH 504 0
DWIDTH 7 0
BBX 7 10 0 -2
BITMAP
FE
FE
1C
18
30
60
FC
FE
06
06
ENDCHAR
STARTCHAR 0226
ENCODING 550
SWIDTH 720 0
DWIDTH 10 0
BBX 10 13 0 0
BITMAP
0C00
0C00
0000
0C00
1E00
1E00
1600
3300
3300
7F80
7F80
6180
C0C0
ENDCHAR
STARTCHAR 0227
ENCODING 551
SWIDTH 576 0
DWIDTH 8 0
BBX 6 11 1 0
BITMAP
30
30
00
78
FC
0C
3C
CC
CC
FC
EC
ENDCHAR
STARTCHAR 0228
ENCODING 552
SWIDTH 648 0
DWIDTH 9 0
BBX 8 13 1 -3
BITMAP
FE
FE
C0
C0
FE
FE
C0
C0
FF
FF
1C
04
38
ENDCHAR
STARTCHAR 0229
ENCODING 553
SWIDTH 576 0
DWIDTH 8 0
BBX 7 11 0 -3
BITMAP
3C
7E
66
FE
FE
60
7E
3C
1C
04
38
ENDCHAR
STARTCHAR 022A
ENCODING 554
SWIDTH 792 0
DWIDTH 11 0
BBX 9 13 1 0
BITMAP
3C00
2400
0000
3E00
7F00
E380
C180
C180
C180
C180
E380
7F00
3E00
ENDCHAR
STARTCHAR 022B
ENCODING 555
SWIDTH 648 0
DWIDTH 9 0
BBX 7 12 1 0
BITMAP
7C
00
6C
00
78
FC
C6
C6
C6
C6
FC
78
ENDCHAR
STARTCHAR 022C
ENCODING 556
SWIDTH 792 0
DWIDTH 11 0
BBX 9 13 1 0
BITMAP
1E00
0A00
1400
3E00
7F00
E380
C180
C180
C180
C180
E380
7F00
3E00
ENDCHAR
STARTCHAR 022D
ENCODING 557
SWIDTH 648 0
DWIDTH 9 0
BBX 7 13 1 0
BITMAP
7C
00
64
58
00
78
FC
C6
C6
C6
C6
FC
78
ENDCHAR
STARTCHAR 022E
ENCODING 558
SWIDTH 792 0
DWIDTH 11 0
BBX 9 13 1 0
BITMAP
1800
1800
0000
3E00
7F00
E380
C180
C180
C180
C180
E380
7F00
3E00
ENDCHAR
STARTCHAR 022F
ENCODING 559
SWIDTH 648 0
DWIDTH 9 0
BBX 7 11 1 0
BITMAP
30
30
00
78
FC
C6
C6
C6
C6
FC
78
ENDCHAR
STARTCHAR 0230
ENCODING 560
SWIDTH 792 0
DWIDTH 11 0
BBX 9 13 1 0
BITMAP
3C00
1000
0000
3E00
7F00
E380
C180
C180
C180
C180
E380
7F00
3E00
ENDCHAR
STARTCHAR 0231
ENCODING 561
SWIDTH 648 0
DWIDTH 9 0
BBX 7 13 1 0
BITMAP
7C
00
30
30
00
78
FC
C6
C6
C6
C6
FC
78
ENDCHAR
STARTCHAR 0232
ENCODING 562
SWIDTH 648 0
DWIDTH 9 0
BBX 9 12 0 0
BITMAP
3E00
0000
E180
6300
3300
3600
1E00
1C00
0C00
0C00
0C00
0C00
ENDCHAR
STARTCHAR 0233
ENCODING 563
SWIDTH 576 0
DWIDTH 8 0
BBX 7 13 0 -3
BITMAP
3E
00
C6
66
66
64
3C
3C
38
18
18
30
70
ENDCHAR
STARTCHAR 0234
ENCODING 564
SWIDTH 504 0
DWIDTH 7 0
BBX 6 13 1 -3
BITMAP
C0
C0
C0
C0
C0
C0
C0
C0
F8
FC
EC
FC
B8
ENDCHAR
STARTCHAR 0235
ENCODING 565
SWIDTH 864 0
DWIDTH 12 0
BBX 11 11 1 -3
BITMAP
DC00
FC00
CE00
C600
C600
C600
C7C0
C7C0
0660
07C0
07C0
ENDCHAR
STARTCHAR 0236
ENCODING 566
SWIDTH 504 0
DWIDTH 7 0
BBX 7 10 0 0
BITMAP
20
60
F0
F0
60
6C
7E
76
7E
5C
ENDCHAR
STARTCHAR 0237
ENCODING 567
SWIDTH 288 0
DWIDTH 4 0
BBX 4 11 -1 -3
BITMAP
30
30
30
30
30
30
30
30
30
70
E0
ENDCHAR
STARTCHAR 0238
ENCODING 568
SWIDTH 936 0
DWIDTH 13 0
BBX 12 10 1 0
BITMAP
0600
0600
77C0
FFE0
CE70
C630
C630
CE70
FFE0
77C0
ENDCHAR
STARTCHAR 0239
ENCODING 569
SWIDTH 936 0
DWIDTH 13 0
BBX 12 11 1 -3
BITMAP
77C0
FFE0
CE70
C630
C630
CE70
FFE0
76C0
0600
0600
0600
ENDCHAR
STARTCHAR 023A
ENCODING 570
SWIDTH 720 0
DWIDTH 10 0
BBX 10 10 0 0
BITMAP
0C80
1F00
1E00
1600
3700
3700
7F80
7F80
7180
F0C0
ENDCHAR
STARTCHAR 023B
ENCODING 571
SWIDTH 720 0
DWIDTH 10 0
BBX 8 10 1 0
BITMAP
3F
7F
E7
C7
C8
D8
D3
E3
7F
7C
ENDCHAR
STARTCHAR 023C
ENCODING 572
SWIDTH 576 0
DWIDTH 8 0
BBX 7 13 0 -3
BITMAP
02
02
3C
7E
6E
68
70
76
7E
3C
40
40
80
ENDCHAR
STARTCHAR 023D
ENCODING 573
SWIDTH 648 0
DWIDTH 9 0
BBX 8 10 0 0
BITMAP
60
60
60
60
F8
60
60
60
7F
7F
ENDCHAR
STARTCHAR 023E
ENCODING 574
SWIDTH 648 0
DWIDTH 9 0
BBX 8 12 0 -1
BITMAP
01
FF
FF
1C
1C
18
18
18
38
38
58
40
ENDCHAR
STARTCHAR 023F
ENCODING 575
SWIDTH 576 0
DWIDTH 8 0
BBX 7 11 0 -3
BITMAP
3C
46
60
78
1E
46
E6
3C
30
10
0C
ENDCHAR
STARTCHAR 0240
ENCODING 576
SWIDTH 504 0
DWIDTH 7 0
BBX 7 11 0 -3
BITMAP
FE
FE
1C
18
30
60
E0
F0
38
1E
0E
ENDCHAR
STARTCHAR 0241
ENCODING 577
SWIDTH 648 0
DWIDTH 9 0
BBX 7 10 1 0
BITMAP
7C
FE
C6
06
06
06
3E
3C
30
30
ENDCHAR
STARTCHAR 0242
ENCODING 578
SWIDTH 504 0
DWIDTH 7 0
BBX 6 8 0 0
BITMAP
38
7C
CC
0C
0C
18
18
18
ENDCHAR
STARTCHAR 0243
ENCODING 579
SWIDTH 720 0
DWIDTH 10 0
BBX 9 10 0 0
BITMAP
7F00
7F80
6180
7F00
7F80
6180
F980
6180
7F80
7F00
ENDCHAR
STARTCHAR 0244
ENCODING 580
SWIDTH 720 0
DWIDTH 10 0
BBX 10 10 0 0
BITMAP
6180
6180
6180
6180
FFC0
6180
6180
7180
3F00
1E00
ENDCHAR
STARTCHAR 0245
ENCODING 581
SWIDTH 648 0
DWIDTH 9 0
BBX 9 10 0 0
BITMAP
1C00
1C00
1E00
3600
3600
3300
6300
6300
6180
C180
ENDCHAR
STARTCHAR 0246
ENCODING 582
SWIDTH 648 0
DWIDTH 9 0
BBX 8 12 1 -1
BITMAP
02
FE
FE
C4
CC
FE
FE
D0
E0
FF
FF
40
ENDCHAR
STARTCHAR 0247
ENCODING 583
SWIDTH 576 0
DWIDTH 8 0
BBX 7 14 0 -3
BITMAP
02
02
04
3C
7E
6E
FE
D0
76
7E
3C
20
40
40
ENDCHAR
STARTCHAR 0248
ENCODING 584
SWIDTH 576 0
DWIDTH 8 0
BBX 8 10 0 0
BITMAP
06
06
06
06
1F
06
C6
CE
7C
38
ENDCHAR
STARTCHAR 0249
ENCODING 585
SWIDTH 288 0
DWIDTH 4 0
BBX 5 13 -1 -3
BITMAP
30
00
30
30
30
30
78
30
30
30
30
30
E0
ENDCHAR
STARTCHAR 024A
ENCODING 586
SWIDTH 792 0
DWIDTH 11 0
BBX 10 13 1 -3
BITMAP
3F80
7F80
E180
C180
C180
C180
C180
E180
7F80
3F80
0180
01C0
01C0
ENDCHAR
STARTCHAR 024B
ENCODING 587
SWIDTH 648 0
DWIDTH 9 0
BBX 8 11 1 -3
BITMAP
76
FE
CE
C6
C6
CE
FE
76
06
07
07
ENDCHAR
STARTCHAR 024C
ENCODING 588
SWIDTH 720 0
DWIDTH 10 0
BBX 10 10 0 0
BITMAP
3F00
3F80
3180
3180
FF80
FF00
3700
3380
3180
31C0
ENDCHAR
STARTCHAR 024D
ENCODING 589
SWIDTH 360 0
DWIDTH 5 0
BBX 6 8 0 0
BITMAP
7C
78
60
60
F0
60
60
60
ENDCHAR
STARTCHAR 024E
ENCODING 590
SWIDTH 648 0
DWIDTH 9 0
BBX 9 10 0 0
BITMAP
E180
FF80
3600
3E00
1C00
0C00
0C00
0C00
0C00
0C00
ENDCHAR
STARTCHAR 024F
ENCODING 591
SWIDTH 576 0
DWIDTH 8 0
BBX 8 11 0 -3
BITMAP
C6
66
FF
6C
3C
3C
38
18
18
70
70
ENDCHAR
STARTCHAR 0250
ENCODING 592
SWIDTH 576 0
DWIDTH 8 0
BBX 6 8 1 0
BITMAP
F8
FC
CC
DC
F0
C0
FC
78
ENDCHAR
STARTCHAR 0251
ENCODING 593
SWIDTH 648 0
DWIDTH 9 0
BBX 7 8 1 0
BITMAP
76
FE
CE
C6
C6
CE
FE
76
ENDCHAR
STARTCHAR 0252
ENCODING 594
SWIDTH 648 0
DWIDTH 9 0
BBX 7 8 1 0
BITMAP
DC
FC
C6
C6
C6
C6
FC
DC
ENDCHAR
STARTCHAR 0253
ENCODING 595
SWIDTH 648 0
DWIDTH 9 0
BBX 7 10 1 0
BITMAP
F0
C0
DC
FC
C6
C6
C6
C6
FC
DC
ENDCHAR
STARTCHAR 0254
ENCODING 596
SWIDTH 576 0
DWIDTH 8 0
BBX 7 8 0 0
BITMAP
3C
7E
E6
06
06
C6
7E
3C
ENDCHAR
STARTCHAR 0255
ENCODING 597
SWIDTH 576 0
DWIDTH 8 0
BBX 7 8 0 0
BITMAP
3C
7E
66
7E
7E
62
7E
FC
ENDCHAR
STARTCHAR 0256
ENCODING 598
SWIDTH 648 0
DWIDTH 9 0
BBX 8 13 1 -3
BITMAP
06
06
76
FE
CE
C6
C6
CE
FE
76
06
07
07
ENDCHAR
STARTCHAR 0257
ENCODING 599
SWIDTH 648 0
DWIDTH 9 0
BBX 9 10 1 0
BITMAP
0780
0700
7600
FE00
CE00
C600
C600
CE00
FE00
7600
ENDCHAR
STARTCHAR 0258
ENCODING 600
SWIDTH 576 0
DWIDTH 8 0
BBX 6 8 1 0
BITMAP
78
FC
CC
FC
FC
0C
FC
78
ENDCHAR
STARTCHAR 0259
ENCODING 601
SWIDTH 576 0
DWIDTH 8 0
BBX 6 8 1 0
BITMAP
78
FC
CC
0C
FC
CC
FC
78
ENDCHAR
STARTCHAR 025A
ENCODING 602
SWIDTH 792 0
DWIDTH 11 0
BBX 10 8 1 0
BITMAP
7800
FC00
CC00
7E00
FF00
CDC0
FC00
7800
ENDCHAR
STARTCHAR 025B
ENCODING 603
SWIDTH 504 0
DWIDTH 7 0
BBX 6 8 1 0
BITMAP
70
F8
C8
60
C0
CC
F8
78
ENDCHAR
STARTCHAR 025C
ENCODING 604
SWIDTH 504 0
DWIDTH 7 0
BBX 6 8 0 0
BITMAP
38
7C
CC
18
0C
CC
7C
78
ENDCHAR
STARTCHAR 025D
ENCODING 605
SWIDTH 720 0
DWIDTH 10 0
BBX 10 8 0 0
BITMAP
3800
7E00
CE00
1BC0
0C00
CC00
7C00
7800
ENDCHAR
STARTCHAR 025E
ENCODING 606
SWIDTH 576 0
DWIDTH 8 0
BBX 6 8 1 0
BITMAP
78
FC
CC
D8
DC
CC
FC
78
ENDCHAR
STARTCHAR 025F
ENCODING 607
SWIDTH 360 0
DWIDTH 5 0
BBX 5 11 0 -3
BITMAP
20
20
20
20
20
20
F8
F8
20
E0
E0
ENDCHAR
STARTCHAR 0260
ENCODING 608
SWIDTH 648 0
DWIDTH 9 0
BBX 9 13 1 -3
BITMAP
0780
0700
7600
FE00
CE00
C600
C600
CE00
FE00
7600
C600
FC00
7C00
ENDCHAR
STARTCHAR 0261
ENCODING 609
SWIDTH 648 0
DWIDTH 9 0
BBX 7 11 1 -3
BITMAP
76
FE
CE
C6
C6
CE
FE
76
C6
FC
78
ENDCHAR
STARTCHAR 0262
ENCODING 610
SWIDTH 576 0
DWIDTH 8 0
BBX 7 8 1 0
BITMAP
7C
FE
C0
DE
DE
C6
FE
7C
ENDCHAR
STARTCHAR 0263
ENCODING 611
SWIDTH 576 0
DWIDTH 8 0
BBX 7 11 0 -3
BITMAP
C6
66
66
3C
3C
18
18
38
3C
3C
3C
ENDCHAR
STARTCHAR 0264
ENCODING 612
SWIDTH 576 0
DWIDTH 8 0
BBX 8 8 0 0
BITMAP
77
FF
1C
18
1C
3C
3C
1C
ENDCHAR
STARTCHAR 0265
ENCODING 613
SWIDTH 648 0
DWIDTH 9 0
BBX 7 11 1 -3
BITMAP
C6
C6
C6
C6
C6
CE
FE
76
06
06
06
ENDCHAR
STARTCHAR 0266
ENCODING 614
SWIDTH 648 0
DWIDTH 9 0
BBX 7 10 1 0
BITMAP
70
C0
DC
FC
CE
C6
C6
C6
C6
C6
ENDCHAR
STARTCHAR 0267
ENCODING 615
SWIDTH 648 0
DWIDTH 9 0
BBX 7 13 1 -3
BITMAP
70
C0
DC
FC
CE
C6
C6
C6
C6
C6
06
1C
1C
ENDCHAR
STARTCHAR 0268
ENCODING 616
SWIDTH 288 0
DWIDTH 4 0
BBX 4 10 0 0
BITMAP
60
00
60
60
60
F0
60
60
60
60
ENDCHAR
STARTCHAR 0269
ENCODING 617
SWIDTH 288 0
DWIDTH 4 0
BBX 3 8 1 0
BITMAP
C0
C0
C0
C0
C0
C0
E0
E0
ENDCHAR
STARTCHAR 026A
ENCODING 618
SWIDTH 432 0
DWIDTH 6 0
BBX 5 8 0 0
BITMAP
F8
F8
30
30
30
30
F8
F8
ENDCHAR
STARTCHAR 026B
ENCODING 619
SWIDTH 360 0
DWIDTH 5 0
BBX 5 10 0 0
BITMAP
60
60
60
60
E8
F0
60
60
60
60
ENDCHAR
STARTCHAR 026C
ENCODING 620
SWIDTH 360 0
DWIDTH 5 0
BBX 5 10 0 0
BITMAP
30
30
30
70
B0
78
30
30
30
30
ENDCHAR
STARTCHAR 026D
ENCODING 621
SWIDTH 288 0
DWIDTH 4 0
BBX 3 13 1 -3
BITMAP
C0
C0
C0
C0
C0
C0
C0
C0
C0
C0
C0
E0
60
ENDCHAR
STARTCHAR 026E
ENCODING 622
SWIDTH 576 0
DWIDTH 8 0
BBX 7 13 1 -3
BITMAP
C0
C0
FE
FE
CC
D8
DC
C6
C6
C6
06
FE
7C
ENDCHAR
STARTCHAR 026F
ENCODING 623
SWIDTH 864 0
DWIDTH 12 0
BBX 11 8 1 0
BITMAP
CC60
CC60
CC60
CC60
CC60
CCE0
F7E0
7760
ENDCHAR
STARTCHAR 0270
ENCODING 624
SWIDTH 864 0
DWIDTH 12 0
BBX 11 11 1 -3
BITMAP
CC60
CC60
CC60
CC60
CC60
CCE0
F7E0
7760
0060
0060
0060
ENDCHAR
STARTCHAR 0271
ENCODING 625
SWIDTH 864 0
DWIDTH 12 0
BBX 11 11 1 -3
BITMAP
D9C0
FFC0
CEE0
CC60
CC60
CC60
CC60
CC60
0060
01C0
01C0
ENDCHAR
STARTCHAR 0272
ENCODING 626
SWIDTH 648 0
DWIDTH 9 0
BBX 9 11 -1 -3
BITMAP
3700
3F00
3380
3180
3180
3180
3180
3180
3000
7000
E000
ENDCHAR
STARTCHAR 0273
ENCODING 627
SWIDTH 648 0
DWIDTH 9 0
BBX 8 11 1 -3
BITMAP
DC
FC
CE
C6
C6
C6
C6
C6
06
07
07
ENDCHAR
STARTCHAR 0274
ENCODING 628
SWIDTH 648 0
DWIDTH 9 0
BBX 7 8 1 0
BITMAP
C6
E6
E6
F6
D6
DE
CE
C6
ENDCHAR
STARTCHAR 0275
ENCODING 629
SWIDTH 648 0
DWIDTH 9 0
BBX 7 8 1 0
BITMAP
78
FC
C6
FE
C6
CE
FC
78
ENDCHAR
STARTCHAR 0276
ENCODING 630
SWIDTH 864 0
DWIDTH 12 0
BBX 10 8 1 0
BITMAP
7FC0
FFC0
C600
C7C0
C7C0
C600
FFC0
7FC0
ENDCHAR
STARTCHAR 0277
ENCODING 631
SWIDTH 864 0
DWIDTH 12 0
BBX 10 8 1 0
BITMAP
3F00
7F80
C1C0
C0C0
CCC0
CCC0
FFC0
7380
ENDCHAR
STARTCHAR 0278
ENCODING 632
SWIDTH 792 0
DWIDTH 11 0
BBX 9 13 1 -3
BITMAP
1800
1800
7E00
FF00
DB80
D980
D980
DB80
FF00
7E00
1800
1800
1800
ENDCHAR
STARTCHAR 0279
ENCODING 633
SWIDTH 360 0
DWIDTH 5 0
BBX 5 8 0 0
BITMAP
18
18
18
18
18
38
F8
D8
ENDCHAR
STARTCHAR 027A
ENCODING 634
SWIDTH 360 0
DWIDTH 5 0
BBX 5 10 0 0
BITMAP
18
18
18
18
18
18
18
38
F8
D8
ENDCHAR
STARTCHAR 027B
ENCODING 635
SWIDTH 360 0
DWIDTH 5 0
BBX 6 11 0 -3
BITMAP
18
18
18
18
18
38
F8
D8
18
1C
1C
ENDCHAR
STARTCHAR 027C
ENCODING 636
SWIDTH 360 0
DWIDTH 5 0
BBX 5 11 1 -3
BITMAP
F8
F0
C0
C0
C0
C0
C0
C0
C0
C0
C0
ENDCHAR
STARTCHAR 027D
ENCODING 637
SWIDTH 360 0
DWIDTH 5 0
BBX 5 11 1 -3
BITMAP
F8
F0
C0
C0
C0
C0
C0
C0
C0
E0
60
ENDCHAR
STARTCHAR 027E
ENCODING 638
SWIDTH 360 0
DWIDTH 5 0
BBX 5 8 1 0
BITMAP
78
F0
C0
C0
C0
C0
C0
C0
ENDCHAR
STARTCHAR 027F
ENCODING 639
SWIDTH 360 0
DWIDTH 5 0
BBX 5 11 0 -3
BITMAP
E0
F0
30
18
18
18
18
18
18
18
18
ENDCHAR
STARTCHAR 0280
ENCODING 640
SWIDTH 576 0
DWIDTH 8 0
BBX 7 8 1 0
BITMAP
FC
FC
C6
FC
FC
DC
CC
C6
ENDCHAR
STARTCHAR 0281
ENCODING 641
SWIDTH 576 0
DWIDTH 8 0
BBX 7 8 1 0
BITMAP
C6
CC
DC
FC
FC
C6
FC
FC
ENDCHAR
STARTCHAR 0282
ENCODING 642
SWIDTH 576 0
DWIDTH 8 0
BBX 7 11 0 -3
BITMAP
3C
7E
40
78
3E
06
FE
FC
C0
F0
70
ENDCHAR
STARTCHAR 0283
ENCODING 643
SWIDTH 360 0
DWIDTH 5 0
BBX 5 13 0 -3
BITMAP
38
38
20
20
20
20
20
20
20
20
60
E0
E0
ENDCHAR
STARTCHAR 0284
ENCODING 644
SWIDTH 360 0
DWIDTH 5 0
BBX 5 13 0 -3
BITMAP
38
38
20
20
20
20
20
20
F8
F8
20
E0
E0
ENDCHAR
STARTCHAR 0285
ENCODING 645
SWIDTH 360 0
DWIDTH 5 0
BBX 6 11 -1 -3
BITMAP
F0
F0
30
30
30
30
30
30
30
3C
1C
ENDCHAR
STARTCHAR 0286
ENCODING 646
SWIDTH 576 0
DWIDTH 8 0
BBX 8 13 0 -3
BITMAP
07
0F
0C
0C
0C
0C
0C
0C
7C
FC
CC
FC
7C
ENDCHAR
STARTCHAR 0287
ENCODING 647
SWIDTH 360 0
DWIDTH 5 0
BBX 4 10 0 0
BITMAP
E0
F0
30
30
30
30
F0
F0
30
20
ENDCHAR
STARTCHAR 0288
ENCODING 648
SWIDTH 360 0
DWIDTH 5 0
BBX 4 13 0 -3
BITMAP
20
60
F0
F0
60
60
60
60
60
60
60
70
30
ENDCHAR
STARTCHAR 0289
ENCODING 649
SWIDTH 648 0
DWIDTH 9 0
BBX 8 8 0 0
BITMAP
63
63
63
FF
63
67
7F
3B
ENDCHAR
STARTCHAR 028A
ENCODING 650
SWIDTH 648 0
DWIDTH 9 0
BBX 7 8 1 0
BITMAP
C6
CE
C4
C6
C6
C6
FE
7C
ENDCHAR
STARTCHAR 028B
ENCODING 651
SWIDTH 576 0
DWIDTH 8 0
BBX 7 8 1 0
BITMAP
DC
DC
C6
C6
CC
CC
FC
78
ENDCHAR
STARTCHAR 028C
ENCODING 652
SWIDTH 576 0
DWIDTH 8 0
BBX 7 8 0 0
BITMAP
18
38
3C
3C
64
66
66
C2
ENDCHAR
STARTCHAR 028D
ENCODING 653
SWIDTH 792 0
DWIDTH 11 0
BBX 11 8 0 0
BITMAP
3180
3B80
3B80
7AC0
6AC0
6EC0
CE40
CE60
ENDCHAR
STARTCHAR 028E
ENCODING 654
SWIDTH 576 0
DWIDTH 8 0
BBX 7 10 0 0
BITMAP
0C
18
18
18
3C
3C
6C
66
66
C6
ENDCHAR
STARTCHAR 028F
ENCODING 655
SWIDTH 576 0
DWIDTH 8 0
BBX 8 8 0 0
BITMAP
E7
66
3C
3C
18
18
18
18
ENDCHAR
STARTCHAR 0290
ENCODING 656
SWIDTH 504 0
DWIDTH 7 0
BBX 8 11 0 -3
BITMAP
FE
FE
1C
18
30
60
FE
FE
06
07
07
ENDCHAR
STARTCHAR 0291
ENCODING 657
SWIDTH 720 0
DWIDTH 10 0
BBX 9 9 0 -2
BITMAP
FE00
FE00
1C00
1B80
3780
6C80
FF80
FF00
3000
ENDCHAR
STARTCHAR 0292
ENCODING 658
SWIDTH 504 0
DWIDTH 7 0
BBX 7 11 0 -3
BITMAP
7E
7E
0C
18
1C
06
06
06
C6
7E
3C
ENDCHAR
STARTCHAR 0293
ENCODING 659
SWIDTH 504 0
DWIDTH 7 0
BBX 7 11 0 -3
BITMAP
7E
7E
0C
18
1C
06
76
FE
CE
FE
7A
ENDCHAR
STARTCHAR 0294
ENCODING 660
SWIDTH 576 0
DWIDTH 8 0
BBX 7 10 0 0
BITMAP
3C
7E
E6
06
06
1E
1C
18
18
18
ENDCHAR
STARTCHAR 0295
ENCODING 661
SWIDTH 576 0
DWIDTH 8 0
BBX 6 10 1 0
BITMAP
78
FC
CC
C0
C0
F0
70
30
30
30
ENDCHAR
STARTCHAR 0296
ENCODING 662
SWIDTH 576 0
DWIDTH 8 0
BBX 7 10 0 0
BITMAP
18
18
18
1C
1E
06
06
E6
7E
3C
ENDCHAR
STARTCHAR 0297
ENCODING 663
SWIDTH 576 0
DWIDTH 8 0
BBX 6 11 1 -3
BITMAP
78
FC
CC
C0
C0
C0
C0
C0
CC
FC
78
ENDCHAR
STARTCHAR 0298
ENCODING 664
SWIDTH 792 0
DWIDTH 11 0
BBX 9 10 1 0
BITMAP
3E00
7F00
E380
C180
D980
D980
C180
E380
7F00
3E00
ENDCHAR
STARTCHAR 0299
ENCODING 665
SWIDTH 648 0
DWIDTH 9 0
BBX 7 8 1 0
BITMAP
FC
FE
C6
FC
FE
C6
FE
FC
ENDCHAR
STARTCHAR 029A
ENCODING 666
SWIDTH 576 0
DWIDTH 8 0
BBX 6 8 1 0
BITMAP
78
FC
CC
6C
CC
CC
FC
78
ENDCHAR
STARTCHAR 029B
ENCODING 667
SWIDTH 576 0
DWIDTH 8 0
BBX 9 10 1 0
BITMAP
0380
0700
7E00
FE00
C000
DE00
DE00
C600
FE00
7C00
ENDCHAR
STARTCHAR 029C
ENCODING 668
SWIDTH 576 0
DWIDTH 8 0
BBX 7 8 1 0
BITMAP
C6
C6
C6
FE
FE
C6
C6
C6
ENDCHAR
STARTCHAR 029D
ENCODING 669
SWIDTH 432 0
DWIDTH 6 0
BBX 6 13 0 -3
BITMAP
18
00
18
18
18
18
18
18
7C
FC
D8
F8
70
ENDCHAR
STARTCHAR 029E
ENCODING 670
SWIDTH 576 0
DWIDTH 8 0
BBX 7 11 0 -3
BITMAP
C6
66
66
3E
3E
36
36
66
06
06
06
ENDCHAR
STARTCHAR 029F
ENCODING 671
SWIDTH 432 0
DWIDTH 6 0
BBX 5 8 1 0
BITMAP
C0
C0
C0
C0
C0
C0
F8
F8
ENDCHAR
STARTCHAR 02A0
ENCODING 672
SWIDTH 648 0
DWIDTH 9 0
BBX 9 13 1 -3
BITMAP
0780
0700
7600
FE00
CE00
C600
C600
CE00
FE00
7600
0600
0600
0600
ENDCHAR
STARTCHAR 02A1
ENCODING 673
SWIDTH 576 0
DWIDTH 8 0
BBX 7 10 0 0
BITMAP
3C
7E
E6
06
06
1E
1C
18
FE
18
ENDCHAR
STARTCHAR 02A2
ENCODING 674
SWIDTH 576 0
DWIDTH 8 0
BBX 6 10 1 0
BITMAP
78
FC
CC
C0
C0
F0
70
30
FC
30
ENDCHAR
STARTCHAR 02A3
ENCODING 675
SWIDTH 1008 0
DWIDTH 14 0
BBX 13 10 1 0
BITMAP
0600
0600
77F8
FFF8
CE30
C660
C6C0
CFC0
FFF8
77F8
ENDCHAR
STARTCHAR 02A4
ENCODING 676
SWIDTH 936 0
DWIDTH 13 0
BBX 12 13 1 -3
BITMAP
0600
0600
77F0
FFF0
CE60
C6C0
C7E0
CE70
FE30
7630
0070
07E0
03C0
ENDCHAR
STARTCHAR 02A5
ENCODING 677
SWIDTH 1224 0
DWIDTH 17 0
BBX 16 11 1 -2
BITMAP
0600
0600
77F8
FFF8
CE30
C66E
C6FF
CFFB
FFFF
77FE
0060
ENDCHAR
STARTCHAR 02A6
ENCODING 678
SWIDTH 792 0
DWIDTH 11 0
BBX 11 10 0 0
BITMAP
2000
6000
FFC0
FFC0
6C00
6F80
67C0
6060
7FE0
3FC0
ENDCHAR
STARTCHAR 02A7
ENCODING 679
SWIDTH 504 0
DWIDTH 7 0
BBX 8 13 0 -3
BITMAP
27
6F
FC
FC
6C
6C
6C
6C
7C
3C
0C
1C
3C
ENDCHAR
STARTCHAR 02A8
ENCODING 680
SWIDTH 864 0
DWIDTH 12 0
BBX 11 10 0 0
BITMAP
2000
6000
F3C0
F7E0
6660
6DC0
6FE0
6660
7FE0
3BC0
ENDCHAR
STARTCHAR 02A9
ENCODING 681
SWIDTH 864 0
DWIDTH 12 0
BBX 11 13 0 -3
BITMAP
3800
6000
FDC0
FDE0
6660
6660
6660
6660
6660
6660
0060
00E0
00E0
ENDCHAR
STARTCHAR 02AA
ENCODING 682
SWIDTH 792 0
DWIDTH 11 0
BBX 9 10 1 0
BITMAP
C000
C000
CF00
DF80
D000
DE00
CF80
E180
FF80
FF00
ENDCHAR
STARTCHAR 02AB
ENCODING 683
SWIDTH 720 0
DWIDTH 10 0
BBX 8 10 1 0
BITMAP
C0
C0
FF
FF
C6
CE
CC
D8
FF
FF
ENDCHAR
STARTCHAR 02AC
ENCODING 684
SWIDTH 504 0
DWIDTH 7 0
BBX 7 10 0 0
BITMAP
D2
5A
6C
2C
00
00
D2
5A
6C
2C
ENDCHAR
STARTCHAR 02AD
ENCODING 685
SWIDTH 576 0
DWIDTH 8 0
BBX 6 10 1 0
BITMAP
FC
FC
CC
00
00
00
00
FC
FC
CC
ENDCHAR
STARTCHAR 02AE
ENCODING 686
SWIDTH 720 0
DWIDTH 10 0
BBX 9 11 0 -3
BITMAP
E180
F180
3180
1980
1980
1980
1F80
1D80
0180
0180
0180
ENDCHAR
STARTCHAR 02AF
ENCODING 687
SWIDTH 720 0
DWIDTH 10 0
BBX 12 11 0 -3
BITMAP
E180
F180
3180
1980
1980
1980
1F80
1D80
0180
00F0
0070
ENDCHAR
STARTCHAR 02B0
ENCODING 688
SWIDTH 360 0
DWIDTH 5 0
BBX 5 7 0 3
BITMAP
C0
C0
F0
D8
D8
D8
D8
ENDCHAR
STARTCHAR 02B1
ENCODING 689
SWIDTH 360 0
DWIDTH 5 0
BBX 5 7 0 3
BITMAP
60
C0
F0
D8
D8
D8
D8
ENDCHAR
STARTCHAR 02B2
ENCODING 690
SWIDTH 216 0
DWIDTH 3 0
BBX 2 9 0 1
BITMAP
40
00
40
40
40
40
40
40
C0
ENDCHAR
STARTCHAR 02B3
ENCODING 691
SWIDTH 288 0
DWIDTH 4 0
BBX 3 5 0 3
BITMAP
E0
C0
C0
C0
C0
ENDCHAR
STARTCHAR 02B4
ENCODING 692
SWIDTH 288 0
DWIDTH 4 0
BBX 3 5 0 3
BITMAP
20
20
20
20
E0
ENDCHAR
STARTCHAR 02B5
ENCODING 693
SWIDTH 288 0
DWIDTH 4 0
BBX 4 7 0 1
BITMAP
20
20
20
20
E0
20
30
ENDCHAR
STARTCHAR 02B6
ENCODING 694
SWIDTH 360 0
DWIDTH 5 0
BBX 5 5 0 3
BITMAP
D8
D0
F8
D8
F8
ENDCHAR
STARTCHAR 02B7
ENCODING 695
SWIDTH 504 0
DWIDTH 7 0
BBX 7 5 0 3
BITMAP
92
DE
6E
6C
6C
ENDCHAR
STARTCHAR 02B8
ENCODING 696
SWIDTH 360 0
DWIDTH 5 0
BBX 5 7 0 1
BITMAP
C8
58
50
70
20
20
E0
ENDCHAR
STARTCHAR 02B9
ENCODING 697
SWIDTH 216 0
DWIDTH 3 0
BBX 2 4 1 6
BITMAP
C0
C0
C0
80
ENDCHAR
STARTCHAR 02BA
ENCODING 698
SWIDTH 504 0
DWIDTH 7 0
BBX 5 4 1 6
BITMAP
D8
D8
D8
D8
ENDCHAR
STARTCHAR 02BB
ENCODING 699
SWIDTH 288 0
DWIDTH 4 0
BBX 2 4 1 6
BITMAP
40
80
C0
C0
ENDCHAR
STARTCHAR 02BC
ENCODING 700
SWIDTH 288 0
DWIDTH 4 0
BBX 2 4 1 6
BITMAP
C0
C0
40
80
ENDCHAR
STARTCHAR 02BD
ENCODING 701
SWIDTH 288 0
DWIDTH 4 0
BBX 2 4 1 6
BITMAP
C0
C0
80
40
ENDCHAR
STARTCHAR 02BE
ENCODING 702
SWIDTH 360 0
DWIDTH 5 0
BBX 1 3 2 9
BITMAP
80
80
80
ENDCHAR
STARTCHAR 02BF
ENCODING 703
SWIDTH 360 0
DWIDTH 5 0
BBX 1 3 2 9
BITMAP
80
80
80
ENDCHAR
STARTCHAR 02C0
ENCODING 704
SWIDTH 360 0
DWIDTH 5 0
BBX 5 7 0 3
BITMAP
70
D8
08
18
30
20
20
ENDCHAR
STARTCHAR 02C1
ENCODING 705
SWIDTH 360 0
DWIDTH 5 0
BBX 5 7 0 3
BITMAP
70
D8
C0
C0
60
20
20
ENDCHAR
STARTCHAR 02C2
ENCODING 706
SWIDTH 576 0
DWIDTH 8 0
BBX 7 8 1 1
BITMAP
06
1E
78
E0
E0
78
1E
06
ENDCHAR
STARTCHAR 02C3
ENCODING 707
SWIDTH 576 0
DWIDTH 8 0
BBX 7 8 1 1
BITMAP
80
E0
78
1E
1E
78
E0
80
ENDCHAR
STARTCHAR 02C4
ENCODING 708
SWIDTH 576 0
DWIDTH 8 0
BBX 8 7 0 2
BITMAP
18
1C
3C
24
66
66
C3
ENDCHAR
STARTCHAR 02C5
ENCODING 709
SWIDTH 576 0
DWIDTH 8 0
BBX 8 7 0 2
BITMAP
C3
66
66
24
3C
1C
18
ENDCHAR
STARTCHAR 02C6
ENCODING 710
SWIDTH 360 0
DWIDTH 5 0
BBX 4 2 0 8
BITMAP
70
D0
ENDCHAR
STARTCHAR 02C7
ENCODING 711
SWIDTH 360 0
DWIDTH 5 0
BBX 4 2 0 8
BITMAP
D0
70
ENDCHAR
STARTCHAR 02C8
ENCODING 712
SWIDTH 360 0
DWIDTH 5 0
BBX 1 2 2 9
BITMAP
80
80
ENDCHAR
STARTCHAR 02C9
ENCODING 713
SWIDTH 360 0
DWIDTH 5 0
BBX 5 1 0 9
BITMAP
F8
ENDCHAR
STARTCHAR 02CA
ENCODING 714
SWIDTH 360 0
DWIDTH 5 0
BBX 2 2 2 9
BITMAP
C0
80
ENDCHAR
STARTCHAR 02CB
ENCODING 715
SWIDTH 360 0
DWIDTH 5 0
BBX 2 2 1 9
BITMAP
C0
40
ENDCHAR
STARTCHAR 02CC
ENCODING 716
SWIDTH 360 0
DWIDTH 5 0
BBX 1 2 2 -3
BITMAP
80
80
ENDCHAR
STARTCHAR 02CD
ENCODING 717
SWIDTH 360 0
DWIDTH 5 0
BBX 5 1 0 -2
BITMAP
F8
ENDCHAR
STARTCHAR 02CE
ENCODING 718
SWIDTH 360 0
DWIDTH 5 0
BBX 2 2 1 -3
BITMAP
C0
40
ENDCHAR
STARTCHAR 02CF
ENCODING 719
SWIDTH 360 0
DWIDTH 5 0
BBX 2 2 2 -3
BITMAP
C0
80
ENDCHAR
STARTCHAR 02D0
ENCODING 720
SWIDTH 360 0
DWIDTH 5 0
BBX 1 8 2 0
BITMAP
80
80
00
00
00
00
80
80
ENDCHAR
STARTCHAR 02D1
ENCODING 721
SWIDTH 360 0
DWIDTH 5 0
BBX 1 2 2 6
BITMAP
80
80
ENDCHAR
STARTCHAR 02D2
ENCODING 722
SWIDTH 360 0
DWIDTH 5 0
BBX 1 3 2 1
BITMAP
80
80
80
ENDCHAR
STARTCHAR 02D3
ENCODING 723
SWIDTH 360 0
DWIDTH 5 0
BBX 1 3 2 1
BITMAP
80
80
80
ENDCHAR
STARTCHAR 02D4
ENCODING 724
SWIDTH 360 0
DWIDTH 5 0
BBX 3 3 1 1
BITMAP
40
40
E0
ENDCHAR
STARTCHAR 02D5
ENCODING 725
SWIDTH 360 0
DWIDTH 5 0
BBX 3 3 1 1
BITMAP
E0
40
40
ENDCHAR
STARTCHAR 02D6
ENCODING 726
SWIDTH 360 0
DWIDTH 5 0
BBX 3 3 1 1
BITMAP
40
E0
40
ENDCHAR
STARTCHAR 02D7
ENCODING 727
SWIDTH 360 0
DWIDTH 5 0
BBX 5 1 0 2
BITMAP
F8
ENDCHAR
STARTCHAR 02D8
ENCODING 728
SWIDTH 360 0
DWIDTH 5 0
BBX 4 2 0 8
BITMAP
90
70
ENDCHAR
STARTCHAR 02D9
ENCODING 729
SWIDTH 360 0
DWIDTH 5 0
BBX 2 2 1 8
BITMAP
C0
C0
ENDCHAR
STARTCHAR 02DA
ENCODING 730
SWIDTH 360 0
DWIDTH 5 0
BBX 3 4 1 6
BITMAP
C0
A0
A0
C0
ENDCHAR
STARTCHAR 02DB
ENCODING 731
SWIDTH 360 0
DWIDTH 5 0
BBX 3 3 0 -3
BITMAP
40
C0
60
ENDCHAR
STARTCHAR 02DC
ENCODING 732
SWIDTH 360 0
DWIDTH 5 0
BBX 5 2 0 8
BITMAP
C8
B0
ENDCHAR
STARTCHAR 02DD
ENCODING 733
SWIDTH 360 0
DWIDTH 5 0
BBX 5 2 1 8
BITMAP
D8
B0
ENDCHAR
STARTCHAR 02DE
ENCODING 734
SWIDTH 360 0
DWIDTH 5 0
BBX 4 3 0 2
BITMAP
80
C0
70
ENDCHAR
STARTCHAR 02DF
ENCODING 735
SWIDTH 360 0
DWIDTH 5 0
BBX 5 5 0 5
BITMAP
88
50
20
50
88
ENDCHAR
STARTCHAR 02E0
ENCODING 736
SWIDTH 360 0
DWIDTH 5 0
BBX 5 7 0 1
BITMAP
C8
50
70
20
30
50
70
ENDCHAR
STARTCHAR 02E1
ENCODING 737
SWIDTH 144 0
DWIDTH 2 0
BBX 2 7 0 3
BITMAP
C0
C0
C0
C0
C0
C0
C0
ENDCHAR
STARTCHAR 02E2
ENCODING 738
SWIDTH 360 0
DWIDTH 5 0
BBX 4 5 1 3
BITMAP
E0
80
E0
10
E0
ENDCHAR
STARTCHAR 02E3
ENCODING 739
SWIDTH 360 0
DWIDTH 5 0
BBX 5 5 0 3
BITMAP
D8
70
20
70
D8
ENDCHAR
STARTCHAR 02E4
ENCODING 740
SWIDTH 360 0
DWIDTH 5 0
BBX 5 7 0 3
BITMAP
70
D8
C0
C0
60
20
20
ENDCHAR
STARTCHAR 02E5
ENCODING 741
SWIDTH 360 0
DWIDTH 5 0
BBX 3 10 1 0
BITMAP
E0
20
20
20
20
20
20
20
20
20
ENDCHAR
STARTCHAR 02E6
ENCODING 742
SWIDTH 360 0
DWIDTH 5 0
BBX 3 10 1 0
BITMAP
20
20
E0
20
20
20
20
20
20
20
ENDCHAR
STARTCHAR 02E7
ENCODING 743
SWIDTH 360 0
DWIDTH 5 0
BBX 3 10 1 0
BITMAP
20
20
20
20
20
E0
20
20
20
20
ENDCHAR
STARTCHAR 02E8
ENCODING 744
SWIDTH 360 0
DWIDTH 5 0
BBX 3 10 1 0
BITMAP
20
20
20
20
20
20
20
E0
20
20
ENDCHAR
STARTCHAR 02E9
ENCODING 745
SWIDTH 360 0
DWIDTH 5 0
BBX 3 10 1 0
BITMAP
20
20
20
20
20
20
20
20
20
E0
ENDCHAR
STARTCHAR 02EA
ENCODING 746
SWIDTH 360 0
DWIDTH 5 0
BBX 3 6 1 0
BITMAP
80
80
80
80
80
E0
ENDCHAR
STARTCHAR 02EB
ENCODING 747
SWIDTH 360 0
DWIDTH 5 0
BBX 3 6 1 0
BITMAP
80
80
E0
80
80
80
ENDCHAR
STARTCHAR 02EC
ENCODING 748
SWIDTH 360 0
DWIDTH 5 0
BBX 4 2 0 -3
BITMAP
D0
70
ENDCHAR
STARTCHAR 02ED
ENCODING 749
SWIDTH 360 0
DWIDTH 5 0
BBX 4 3 0 9
BITMAP
F0
00
F0
ENDCHAR
STARTCHAR 02EE
ENCODING 750
SWIDTH 504 0
DWIDTH 7 0
BBX 5 4 1 6
BITMAP
D8
D8
48
90
ENDCHAR
STARTCHAR 02EF
ENCODING 751
SWIDTH 360 0
DWIDTH 5 0
BBX 2 2 1 -3
BITMAP
C0
40
ENDCHAR
STARTCHAR 02F0
ENCODING 752
SWIDTH 360 0
DWIDTH 5 0
BBX 2 2 1 -3
BITMAP
40
C0
ENDCHAR
STARTCHAR 02F1
ENCODING 753
SWIDTH 360 0
DWIDTH 5 0
BBX 2 3 1 -3
BITMAP
40
80
40
ENDCHAR
STARTCHAR 02F2
ENCODING 754
SWIDTH 360 0
DWIDTH 5 0
BBX 2 3 1 -3
BITMAP
80
40
80
ENDCHAR
STARTCHAR 02F3
ENCODING 755
SWIDTH 360 0
DWIDTH 5 0
BBX 3 3 1 -3
BITMAP
C0
A0
C0
ENDCHAR
STARTCHAR 02F4
ENCODING 756
SWIDTH 360 0
DWIDTH 5 0
BBX 2 2 1 1
BITMAP
C0
40
ENDCHAR
STARTCHAR 02F5
ENCODING 757
SWIDTH 360 0
DWIDTH 5 0
BBX 5 2 0 1
BITMAP
D0
58
ENDCHAR
STARTCHAR 02F6
ENCODING 758
SWIDTH 360 0
DWIDTH 5 0
BBX 5 2 0 1
BITMAP
D8
B0
ENDCHAR
STARTCHAR 02F7
ENCODING 759
SWIDTH 360 0
DWIDTH 5 0
BBX 5 2 0 -3
BITMAP
C8
B0
ENDCHAR
STARTCHAR 02F8
ENCODING 760
SWIDTH 360 0
DWIDTH 5 0
BBX 2 7 1 3
BITMAP
C0
C0
00
00
00
C0
C0
ENDCHAR
STARTCHAR 02F9
ENCODING 761
SWIDTH 360 0
DWIDTH 5 0
BBX 3 3 1 7
BITMAP
E0
80
80
ENDCHAR
STARTCHAR 02FA
ENCODING 762
SWIDTH 360 0
DWIDTH 5 0
BBX 3 3 1 7
BITMAP
E0
20
20
ENDCHAR
STARTCHAR 02FB
ENCODING 763
SWIDTH 360 0
DWIDTH 5 0
BBX 3 3 1 -3
BITMAP
80
80
E0
ENDCHAR
STARTCHAR 02FC
ENCODING 764
SWIDTH 360 0
DWIDTH 5 0
BBX 3 3 1 -3
BITMAP
20
20
E0
ENDCHAR
STARTCHAR 02FD
ENCODING 765
SWIDTH 432 0
DWIDTH 6 0
BBX 5 2 0 -3
BITMAP
88
F8
ENDCHAR
STARTCHAR 02FE
ENCODING 766
SWIDTH 432 0
DWIDTH 6 0
BBX 5 2 0 -3
BITMAP
80
F8
ENDCHAR
STARTCHAR 02FF
ENCODING 767
SWIDTH 360 0
DWIDTH 5 0
BBX 4 5 0 -3
BITMAP
40
40
F0
40
40
ENDCHAR
STARTCHAR 0300
ENCODING 768
SWIDTH 0 0
DWIDTH 0 0
BBX 3 2 -4 11
BITMAP
C0
60
ENDCHAR
STARTCHAR 0301
ENCODING 769
SWIDTH 0 0
DWIDTH 0 0
BBX 3 2 -3 11
BITMAP
60
C0
ENDCHAR
STARTCHAR 0302
ENCODING 770
SWIDTH 0 0
DWIDTH 0 0
BBX 4 2 -2 9
BITMAP
60
F0
ENDCHAR
STARTCHAR 0303
ENCODING 771
SWIDTH 0 0
DWIDTH 0 0
BBX 4 2 -6 11
BITMAP
D0
B0
ENDCHAR
STARTCHAR 0304
ENCODING 772
SWIDTH 0 0
DWIDTH 0 0
BBX 4 1 -2 9
BITMAP
F0
ENDCHAR
STARTCHAR 0305
ENCODING 773
SWIDTH 0 0
DWIDTH 0 0
BBX 8 1 -4 11
BITMAP
FF
ENDCHAR
STARTCHAR 0306
ENCODING 774
SWIDTH 0 0
DWIDTH 0 0
BBX 4 2 -2 9
BITMAP
90
60
ENDCHAR
STARTCHAR 0307
ENCODING 775
SWIDTH 0 0
DWIDTH 0 0
BBX 2 2 -1 9
BITMAP
C0
C0
ENDCHAR
STARTCHAR 0308
ENCODING 776
SWIDTH 0 0
DWIDTH 0 0
BBX 4 1 -2 9
BITMAP
90
ENDCHAR
STARTCHAR 0309
ENCODING 777
SWIDTH 0 0
DWIDTH 0 0
BBX 3 2 -3 11
BITMAP
E0
80
ENDCHAR
STARTCHAR 030A
ENCODING 778
SWIDTH 0 0
DWIDTH 0 0
BBX 2 4 -1 9
BITMAP
C0
C0
C0
C0
ENDCHAR
STARTCHAR 030B
ENCODING 779
SWIDTH 0 0
DWIDTH 0 0
BBX 5 2 -3 9
BITMAP
68
D0
ENDCHAR
STARTCHAR 030C
ENCODING 780
SWIDTH 0 0
DWIDTH 0 0
BBX 4 2 -2 9
BITMAP
F0
60
ENDCHAR
STARTCHAR 030D
ENCODING 781
SWIDTH 0 0
DWIDTH 0 0
BBX 1 2 -1 9
BITMAP
80
80
ENDCHAR
STARTCHAR 030E
ENCODING 782
SWIDTH 0 0
DWIDTH 0 0
BBX 2 2 -1 9
BITMAP
C0
C0
ENDCHAR
STARTCHAR 030F
ENCODING 783
SWIDTH 0 0
DWIDTH 0 0
BBX 5 2 -2 9
BITMAP
B0
58
ENDCHAR
STARTCHAR 0310
ENCODING 784
SWIDTH 0 0
DWIDTH 0 0
BBX 4 4 -2 9
BITMAP
60
60
90
60
ENDCHAR
STARTCHAR 0311
ENCODING 785
SWIDTH 0 0
DWIDTH 0 0
BBX 4 2 -2 9
BITMAP
60
90
ENDCHAR
STARTCHAR 0312
ENCODING 786
SWIDTH 0 0
DWIDTH 0 0
BBX 2 4 -1 6
BITMAP
40
80
C0
C0
ENDCHAR
STARTCHAR 0313
ENCODING 787
SWIDTH 0 0
DWIDTH 0 0
BBX 2 4 -1 6
BITMAP
C0
C0
40
80
ENDCHAR
STARTCHAR 0314
ENCODING 788
SWIDTH 0 0
DWIDTH 0 0
BBX 2 4 -1 6
BITMAP
C0
C0
80
40
ENDCHAR
STARTCHAR 0315
ENCODING 789
SWIDTH 0 0
DWIDTH 0 0
BBX 2 4 0 6
BITMAP
C0
C0
40
80
ENDCHAR
STARTCHAR 0316
ENCODING 790
SWIDTH 0 0
DWIDTH 0 0
BBX 2 2 -1 -3
BITMAP
C0
40
ENDCHAR
STARTCHAR 0317
ENCODING 791
SWIDTH 0 0
DWIDTH 0 0
BBX 2 2 -1 -3
BITMAP
C0
80
ENDCHAR
STARTCHAR 0318
ENCODING 792
SWIDTH 0 0
DWIDTH 0 0
BBX 2 3 -1 -3
BITMAP
40
C0
40
ENDCHAR
STARTCHAR 0319
ENCODING 793
SWIDTH 0 0
DWIDTH 0 0
BBX 2 3 -1 -3
BITMAP
80
C0
80
ENDCHAR
STARTCHAR 031A
ENCODING 794
SWIDTH 0 0
DWIDTH 0 0
BBX 6 3 -3 9
BITMAP
FC
04
04
ENDCHAR
STARTCHAR 031B
ENCODING 795
SWIDTH 0 0
DWIDTH 0 0
BBX 2 4 0 6
BITMAP
40
40
40
80
ENDCHAR
STARTCHAR 031C
ENCODING 796
SWIDTH 0 0
DWIDTH 0 0
BBX 2 3 -1 -3
BITMAP
40
80
40
ENDCHAR
STARTCHAR 031D
ENCODING 797
SWIDTH 0 0
DWIDTH 0 0
BBX 2 3 -1 -3
BITMAP
80
80
C0
ENDCHAR
STARTCHAR 031E
ENCODING 798
SWIDTH 0 0
DWIDTH 0 0
BBX 2 3 -1 -3
BITMAP
C0
80
80
ENDCHAR
STARTCHAR 031F
ENCODING 799
SWIDTH 0 0
DWIDTH 0 0
BBX 2 3 -1 -3
BITMAP
80
C0
80
ENDCHAR
STARTCHAR 0320
ENCODING 800
SWIDTH 0 0
DWIDTH 0 0
BBX 4 1 -2 -2
BITMAP
F0
ENDCHAR
STARTCHAR 0321
ENCODING 801
SWIDTH 0 0
DWIDTH 0 0
BBX 4 4 -2 -3
BITMAP
30
30
70
E0
ENDCHAR
STARTCHAR 0322
ENCODING 802
SWIDTH 0 0
DWIDTH 0 0
BBX 3 4 0 -3
BITMAP
C0
C0
E0
60
ENDCHAR
STARTCHAR 0323
ENCODING 803
SWIDTH 0 0
DWIDTH 0 0
BBX 2 2 -6 -3
BITMAP
C0
C0
ENDCHAR
STARTCHAR 0324
ENCODING 804
SWIDTH 0 0
DWIDTH 0 0
BBX 4 1 -2 -2
BITMAP
90
ENDCHAR
STARTCHAR 0325
ENCODING 805
SWIDTH 0 0
DWIDTH 0 0
BBX 2 3 -1 -3
BITMAP
C0
C0
C0
ENDCHAR
STARTCHAR 0326
ENCODING 806
SWIDTH 0 0
DWIDTH 0 0
BBX 2 3 -1 -3
BITMAP
C0
40
80
ENDCHAR
STARTCHAR 0327
ENCODING 807
SWIDTH 0 0
DWIDTH 0 0
BBX 4 3 -2 -3
BITMAP
70
10
E0
ENDCHAR
STARTCHAR 0328
ENCODING 808
SWIDTH 0 0
DWIDTH 0 0
BBX 2 3 -1 -3
BITMAP
80
80
C0
ENDCHAR
STARTCHAR 0329
ENCODING 809
SWIDTH 0 0
DWIDTH 0 0
BBX 1 2 -1 -3
BITMAP
80
80
ENDCHAR
STARTCHAR 032A
ENCODING 810
SWIDTH 0 0
DWIDTH 0 0
BBX 6 2 -3 -3
BITMAP
FC
84
ENDCHAR
STARTCHAR 032B
ENCODING 811
SWIDTH 0 0
DWIDTH 0 0
BBX 4 2 -2 -3
BITMAP
D0
F0
ENDCHAR
STARTCHAR 032C
ENCODING 812
SWIDTH 0 0
DWIDTH 0 0
BBX 4 2 -2 -3
BITMAP
F0
60
ENDCHAR
STARTCHAR 032D
ENCODING 813
SWIDTH 0 0
DWIDTH 0 0
BBX 4 2 -2 -3
BITMAP
60
F0
ENDCHAR
STARTCHAR 032E
ENCODING 814
SWIDTH 0 0
DWIDTH 0 0
BBX 4 2 -2 -3
BITMAP
90
60
ENDCHAR
STARTCHAR 032F
ENCODING 815
SWIDTH 0 0
DWIDTH 0 0
BBX 4 2 -2 -3
BITMAP
60
90
ENDCHAR
STARTCHAR 0330
ENCODING 816
SWIDTH 0 0
DWIDTH 0 0
BBX 4 2 -2 -3
BITMAP
D0
B0
ENDCHAR
STARTCHAR 0331
ENCODING 817
SWIDTH 0 0
DWIDTH 0 0
BBX 4 1 -2 -2
BITMAP
F0
ENDCHAR
STARTCHAR 0332
ENCODING 818
SWIDTH 0 0
DWIDTH 0 0
BBX 8 1 -4 -3
BITMAP
FF
ENDCHAR
STARTCHAR 0333
ENCODING 819
SWIDTH 0 0
DWIDTH 0 0
BBX 4 3 -2 -4
BITMAP
F0
00
F0
ENDCHAR
STARTCHAR 0334
ENCODING 820
SWIDTH 0 0
DWIDTH 0 0
BBX 4 2 -2 2
BITMAP
D0
B0
ENDCHAR
STARTCHAR 0335
ENCODING 821
SWIDTH 0 0
DWIDTH 0 0
BBX 4 1 -2 2
BITMAP
F0
ENDCHAR
STARTCHAR 0336
ENCODING 822
SWIDTH 0 0
DWIDTH 0 0
BBX 8 1 -4 2
BITMAP
FF
ENDCHAR
STARTCHAR 0337
ENCODING 823
SWIDTH 0 0
DWIDTH 0 0
BBX 6 6 -3 0
BITMAP
04
0C
10
20
C0
80
ENDCHAR
STARTCHAR 0338
ENCODING 824
SWIDTH 0 0
DWIDTH 0 0
BBX 4 10 -2 0
BITMAP
30
30
20
20
60
60
40
40
C0
C0
ENDCHAR
STARTCHAR 0339
ENCODING 825
SWIDTH 0 0
DWIDTH 0 0
BBX 2 3 -1 -3
BITMAP
80
40
80
ENDCHAR
STARTCHAR 033A
ENCODING 826
SWIDTH 0 0
DWIDTH 0 0
BBX 6 2 -3 -3
BITMAP
84
FC
ENDCHAR
STARTCHAR 033B
ENCODING 827
SWIDTH 0 0
DWIDTH 0 0
BBX 2 3 -1 -3
BITMAP
C0
C0
C0
ENDCHAR
STARTCHAR 033C
ENCODING 828
SWIDTH 0 0
DWIDTH 0 0
BBX 4 2 -2 -3
BITMAP
F0
D0
ENDCHAR
STARTCHAR 033D
ENCODING 829
SWIDTH 0 0
DWIDTH 0 0
BBX 2 3 -1 9
BITMAP
C0
C0
C0
ENDCHAR
STARTCHAR 033E
ENCODING 830
SWIDTH 0 0
DWIDTH 0 0
BBX 2 4 -1 9
BITMAP
C0
80
40
80
ENDCHAR
STARTCHAR 033F
ENCODING 831
SWIDTH 0 0
DWIDTH 0 0
BBX 8 2 -4 11
BITMAP
FF
FF
ENDCHAR
STARTCHAR 0340
ENCODING 832
SWIDTH 0 0
DWIDTH 0 0
BBX 3 2 -3 9
BITMAP
C0
60
ENDCHAR
STARTCHAR 0341
ENCODING 833
SWIDTH 0 0
DWIDTH 0 0
BBX 3 2 0 9
BITMAP
60
C0
ENDCHAR
STARTCHAR 0342
ENCODING 834
SWIDTH 0 0
DWIDTH 0 0
BBX 4 2 -2 9
BITMAP
D0
B0
ENDCHAR
STARTCHAR 0343
ENCODING 835
SWIDTH 0 0
DWIDTH 0 0
BBX 2 4 -1 6
BITMAP
C0
C0
40
80
ENDCHAR
STARTCHAR 0344
ENCODING 836
SWIDTH 0 0
DWIDTH 0 0
BBX 6 2 -3 9
BITMAP
30
A4
ENDCHAR
STARTCHAR 0345
ENCODING 837
SWIDTH 0 0
DWIDTH 0 0
BBX 2 2 -1 -3
BITMAP
C0
C0
ENDCHAR
STARTCHAR 0346
ENCODING 838
SWIDTH 0 0
DWIDTH 0 0
BBX 6 2 -3 9
BITMAP
FC
84
ENDCHAR
STARTCHAR 0347
ENCODING 839
SWIDTH 0 0
DWIDTH 0 0
BBX 7 3 -3 -4
BITMAP
FE
00
FE
ENDCHAR
STARTCHAR 0348
ENCODING 840
SWIDTH 0 0
DWIDTH 0 0
BBX 2 2 -1 -3
BITMAP
C0
C0
ENDCHAR
STARTCHAR 0349
ENCODING 841
SWIDTH 0 0
DWIDTH 0 0
BBX 2 3 -1 -3
BITMAP
C0
40
40
ENDCHAR
STARTCHAR 034A
ENCODING 842
SWIDTH 0 0
DWIDTH 0 0
BBX 4 2 -2 9
BITMAP
F0
F0
ENDCHAR
STARTCHAR 034B
ENCODING 843
SWIDTH 0 0
DWIDTH 0 0
BBX 4 4 -2 9
BITMAP
60
D0
B0
60
ENDCHAR
STARTCHAR 034C
ENCODING 844
SWIDTH 0 0
DWIDTH 0 0
BBX 4 4 -2 9
BITMAP
D0
B0
D0
B0
ENDCHAR
STARTCHAR 034D
ENCODING 845
SWIDTH 0 0
DWIDTH 0 0
BBX 4 1 -2 -2
BITMAP
F0
ENDCHAR
STARTCHAR 034E
ENCODING 846
SWIDTH 0 0
DWIDTH 0 0
BBX 2 3 -1 -3
BITMAP
80
C0
80
ENDCHAR
STARTCHAR 034F
ENCODING 847
SWIDTH 0 0
DWIDTH 0 0
BBX 10 12 -5 0
BITMAP
CCC0
8040
9A40
2100
4100
C140
8040
4100
2100
9A40
8040
CCC0
ENDCHAR
STARTCHAR 0350
ENCODING 848
SWIDTH 0 0
DWIDTH 0 0
BBX 2 3 -1 9
BITMAP
80
40
80
ENDCHAR
STARTCHAR 0351
ENCODING 849
SWIDTH 0 0
DWIDTH 0 0
BBX 2 3 -1 9
BITMAP
40
80
40
ENDCHAR
STARTCHAR 0352
ENCODING 850
SWIDTH 0 0
DWIDTH 0 0
BBX 4 4 -2 9
BITMAP
60
90
60
60
ENDCHAR
STARTCHAR 0353
ENCODING 851
SWIDTH 0 0
DWIDTH 0 0
BBX 2 3 -1 -3
BITMAP
C0
C0
C0
ENDCHAR
STARTCHAR 0354
ENCODING 852
SWIDTH 0 0
DWIDTH 0 0
BBX 2 3 -1 -3
BITMAP
40
80
40
ENDCHAR
STARTCHAR 0355
ENCODING 853
SWIDTH 0 0
DWIDTH 0 0
BBX 2 3 -1 -3
BITMAP
80
40
80
ENDCHAR
STARTCHAR 0356
ENCODING 854
SWIDTH 0 0
DWIDTH 0 0
BBX 5 3 -2 -3
BITMAP
80
50
A8
ENDCHAR
STARTCHAR 0357
ENCODING 855
SWIDTH 0 0
DWIDTH 0 0
BBX 2 3 -1 9
BITMAP
80
40
80
ENDCHAR
STARTCHAR 0358
ENCODING 856
SWIDTH 0 0
DWIDTH 0 0
BBX 1 1 2 9
BITMAP
80
ENDCHAR
STARTCHAR 0359
ENCODING 857
SWIDTH 0 0
DWIDTH 0 0
BBX 2 3 -1 -3
BITMAP
80
C0
C0
ENDCHAR
STARTCHAR 035A
ENCODING 858
SWIDTH 0 0
DWIDTH 0 0
BBX 4 3 -2 -3
BITMAP
F0
D0
F0
ENDCHAR
STARTCHAR 035B
ENCODING 859
SWIDTH 0 0
DWIDTH 0 0
BBX 2 3 -1 9
BITMAP
80
C0
40
ENDCHAR
STARTCHAR 035C
ENCODING 860
SWIDTH 0 0
DWIDTH 0 0
BBX 10 2 -1 -3
BITMAP
C040
3F80
ENDCHAR
STARTCHAR 035D
ENCODING 861
SWIDTH 0 0
DWIDTH 0 0
BBX 10 3 -1 9
BITMAP
8040
60C0
1F00
ENDCHAR
STARTCHAR 035E
ENCODING 862
SWIDTH 0 0
DWIDTH 0 0
BBX 8 1 -1 9
BITMAP
FF
ENDCHAR
STARTCHAR 035F
ENCODING 863
SWIDTH 0 0
DWIDTH 0 0
BBX 8 1 -1 -2
BITMAP
FF
ENDCHAR
STARTCHAR 0360
ENCODING 864
SWIDTH 0 0
DWIDTH 0 0
BBX 10 2 -1 9
BITMAP
7840
87C0
ENDCHAR
STARTCHAR 0361
ENCODING 865
SWIDTH 0 0
DWIDTH 0 0
BBX 10 3 -1 9
BITMAP
1F00
60C0
8040
ENDCHAR
STARTCHAR 0362
ENCODING 866
SWIDTH 0 0
DWIDTH 0 0
BBX 8 1 -1 -2
BITMAP
FF
ENDCHAR
STARTCHAR 0363
ENCODING 867
SWIDTH 0 0
DWIDTH 0 0
BBX 4 5 -2 3
BITMAP
F0
90
70
90
F0
ENDCHAR
STARTCHAR 0364
ENCODING 868
SWIDTH 0 0
DWIDTH 0 0
BBX 4 5 -2 3
BITMAP
60
90
F0
80
F0
ENDCHAR
STARTCHAR 0365
ENCODING 869
SWIDTH 0 0
DWIDTH 0 0
BBX 2 7 -1 3
BITMAP
C0
00
C0
C0
C0
C0
C0
ENDCHAR
STARTCHAR 0366
ENCODING 870
SWIDTH 0 0
DWIDTH 0 0
BBX 6 5 -3 3
BITMAP
78
48
CC
48
78
ENDCHAR
STARTCHAR 0367
ENCODING 871
SWIDTH 0 0
DWIDTH 0 0
BBX 4 5 -2 3
BITMAP
90
90
90
90
F0
ENDCHAR
STARTCHAR 0368
ENCODING 872
SWIDTH 0 0
DWIDTH 0 0
BBX 4 5 -2 3
BITMAP
70
90
80
90
70
ENDCHAR
STARTCHAR 0369
ENCODING 873
SWIDTH 0 0
DWIDTH 0 0
BBX 4 7 -2 3
BITMAP
10
10
F0
90
90
90
F0
ENDCHAR
STARTCHAR 036A
ENCODING 874
SWIDTH 0 0
DWIDTH 0 0
BBX 4 7 -2 3
BITMAP
80
80
F0
90
90
90
90
ENDCHAR
STARTCHAR 036B
ENCODING 875
SWIDTH 0 0
DWIDTH 0 0
BBX 8 5 -4 3
BITMAP
F6
DB
DB
DB
DB
ENDCHAR
STARTCHAR 036C
ENCODING 876
SWIDTH 0 0
DWIDTH 0 0
BBX 3 5 -2 3
BITMAP
E0
C0
C0
C0
C0
ENDCHAR
STARTCHAR 036D
ENCODING 877
SWIDTH 0 0
DWIDTH 0 0
BBX 2 7 -1 3
BITMAP
80
80
C0
80
80
80
C0
ENDCHAR
STARTCHAR 036E
ENCODING 878
SWIDTH 0 0
DWIDTH 0 0
BBX 4 5 -2 3
BITMAP
90
90
F0
60
60
ENDCHAR
STARTCHAR 036F
ENCODING 879
SWIDTH 0 0
DWIDTH 0 0
BBX 4 5 -2 3
BITMAP
90
60
60
F0
90
ENDCHAR
STARTCHAR 0374
ENCODING 884
SWIDTH 360 0
DWIDTH 5 0
BBX 2 2 2 9
BITMAP
C0
80
ENDCHAR
STARTCHAR 0375
ENCODING 885
SWIDTH 360 0
DWIDTH 5 0
BBX 2 2 1 -3
BITMAP
40
C0
ENDCHAR
STARTCHAR 037A
ENCODING 890
SWIDTH 360 0
DWIDTH 5 0
BBX 2 2 1 -3
BITMAP
40
C0
ENDCHAR
STARTCHAR 037B
ENCODING 891
SWIDTH 576 0
DWIDTH 8 0
BBX 7 8 0 0
BITMAP
3C
7E
E6
06
06
C6
7E
3C
ENDCHAR
STARTCHAR 037C
ENCODING 892
SWIDTH 576 0
DWIDTH 8 0
BBX 6 8 1 0
BITMAP
78
FC
CC
F0
F0
CC
FC
78
ENDCHAR
STARTCHAR 037D
ENCODING 893
SWIDTH 576 0
DWIDTH 8 0
BBX 7 8 0 0
BITMAP
3C
7E
E6
1E
1E
C6
7E
3C
ENDCHAR
STARTCHAR 037E
ENCODING 894
SWIDTH 360 0
DWIDTH 5 0
BBX 2 10 1 -2
BITMAP
C0
C0
00
00
00
00
C0
C0
40
80
ENDCHAR
STARTCHAR 0384
ENCODING 900
SWIDTH 360 0
DWIDTH 5 0
BBX 2 2 2 8
BITMAP
C0
80
ENDCHAR
STARTCHAR 0385
ENCODING 901
SWIDTH 504 0
DWIDTH 7 0
BBX 7 2 0 8
BITMAP
10
F6
ENDCHAR
STARTCHAR 0386
ENCODING 902
SWIDTH 720 0
DWIDTH 10 0
BBX 10 10 0 0
BITMAP
6C00
DE00
1E00
1600
3300
3300
7F80
7F80
6180
C0C0
ENDCHAR
STARTCHAR 0387
ENCODING 903
SWIDTH 360 0
DWIDTH 5 0
BBX 2 2 1 6
BITMAP
C0
C0
ENDCHAR
STARTCHAR 0388
ENCODING 904
SWIDTH 864 0
DWIDTH 12 0
BBX 11 10 0 0
BITMAP
EFE0
8FE0
0C00
0C00
0FE0
0FE0
0C00
0C00
0FE0
0FE0
ENDCHAR
STARTCHAR 0389
ENCODING 905
SWIDTH 936 0
DWIDTH 13 0
BBX 12 10 0 0
BITMAP
EC30
8C30
0C30
0C30
0FF0
0FF0
0C30
0C30
0C30
0C30
ENDCHAR
STARTCHAR 038A
ENCODING 906
SWIDTH 504 0
DWIDTH 7 0
BBX 6 10 0 0
BITMAP
EC
8C
0C
0C
0C
0C
0C
0C
0C
0C
ENDCHAR
STARTCHAR 038C
ENCODING 908
SWIDTH 864 0
DWIDTH 12 0
BBX 11 10 0 0
BITMAP
CF00
BFC0
30C0
7060
6060
6060
7060
30C0
3FC0
0F80
ENDCHAR
STARTCHAR 038E
ENCODING 910
SWIDTH 936 0
DWIDTH 13 0
BBX 13 10 0 0
BITMAP
EC38
C630
0660
0360
03C0
01C0
0180
0180
0180
0180
ENDCHAR
STARTCHAR 038F
ENCODING 911
SWIDTH 864 0
DWIDTH 12 0
BBX 11 10 0 0
BITMAP
CF80
BFC0
30E0
7060
6060
2060
30C0
19C0
7FE0
7FE0
ENDCHAR
STARTCHAR 0390
ENCODING 912
SWIDTH 288 0
DWIDTH 4 0
BBX 7 11 -1 0
BITMAP
10
F6
00
30
30
30
30
30
30
30
30
ENDCHAR
STARTCHAR 0391
ENCODING 913
SWIDTH 720 0
DWIDTH 10 0
BBX 10 10 0 0
BITMAP
0C00
1E00
1E00
1600
3300
3300
7F80
7F80
6180
C0C0
ENDCHAR
STARTCHAR 0392
ENCODING 914
SWIDTH 720 0
DWIDTH 10 0
BBX 8 10 1 0
BITMAP
FE
FF
C3
C3
FE
FF
C3
C3
FF
FE
ENDCHAR
STARTCHAR 0393
ENCODING 915
SWIDTH 576 0
DWIDTH 8 0
BBX 7 10 1 0
BITMAP
FE
FE
C0
C0
C0
C0
C0
C0
C0
C0
ENDCHAR
STARTCHAR 0394
ENCODING 916
SWIDTH 720 0
DWIDTH 10 0
BBX 10 10 0 0
BITMAP
0C00
1E00
1E00
1E00
3300
3300
6180
6180
7F80
FFC0
ENDCHAR
STARTCHAR 0395
ENCODING 917
SWIDTH 648 0
DWIDTH 9 0
BBX 8 10 1 0
BITMAP
FE
FE
C0
C0
FE
FE
C0
C0
FF
FF
ENDCHAR
STARTCHAR 0396
ENCODING 918
SWIDTH 648 0
DWIDTH 9 0
BBX 8 10 0 0
BITMAP
7F
7F
06
0C
18
38
70
60
FF
FF
ENDCHAR
STARTCHAR 0397
ENCODING 919
SWIDTH 720 0
DWIDTH 10 0
BBX 8 10 1 0
BITMAP
C3
C3
C3
C3
FF
FF
C3
C3
C3
C3
ENDCHAR
STARTCHAR 0398
ENCODING 920
SWIDTH 792 0
DWIDTH 11 0
BBX 9 10 1 0
BITMAP
3E00
7F00
E380
C180
DD80
DD80
C180
E380
7F00
3E00
ENDCHAR
STARTCHAR 0399
ENCODING 921
SWIDTH 288 0
DWIDTH 4 0
BBX 2 10 1 0
BITMAP
C0
C0
C0
C0
C0
C0
C0
C0
C0
C0
ENDCHAR
STARTCHAR 039A
ENCODING 922
SWIDTH 720 0
DWIDTH 10 0
BBX 9 10 1 0
BITMAP
C300
C600
CC00
D800
FC00
EC00
CE00
C700
C300
C380
ENDCHAR
STARTCHAR 039B
ENCODING 923
SWIDTH 648 0
DWIDTH 9 0
BBX 9 10 0 0
BITMAP
1C00
1C00
1E00
3600
3600
3300
6300
6300
6180
C180
ENDCHAR
STARTCHAR 039C
ENCODING 924
SWIDTH 864 0
DWIDTH 12 0
BBX 10 10 1 0
BITMAP
E1C0
E3C0
F3C0
F2C0
F6C0
D6C0
DEC0
DCC0
DCC0
CCC0
ENDCHAR
STARTCHAR 039D
ENCODING 925
SWIDTH 720 0
DWIDTH 10 0
BBX 8 10 1 0
BITMAP
C3
E3
E3
F3
DB
DB
CF
CF
C7
C3
ENDCHAR
STARTCHAR 039E
ENCODING 926
SWIDTH 648 0
DWIDTH 9 0
BBX 7 10 1 0
BITMAP
FE
FE
00
00
FE
FE
00
00
FE
FE
ENDCHAR
STARTCHAR 039F
ENCODING 927
SWIDTH 792 0
DWIDTH 11 0
BBX 9 10 1 0
BITMAP
3E00
7F00
E380
C180
C180
C180
C180
E380
7F00
3E00
ENDCHAR
STARTCHAR 03A0
ENCODING 928
SWIDTH 720 0
DWIDTH 10 0
BBX 8 10 1 0
BITMAP
FF
FF
C3
C3
C3
C3
C3
C3
C3
C3
ENDCHAR
STARTCHAR 03A1
ENCODING 929
SWIDTH 648 0
DWIDTH 9 0
BBX 8 10 1 0
BITMAP
FC
FE
C7
C7
FE
FC
C0
C0
C0
C0
ENDCHAR
STARTCHAR 03A3
ENCODING 931
SWIDTH 576 0
DWIDTH 8 0
BBX 7 10 1 0
BITMAP
FE
FE
E0
70
30
30
60
C0
FE
FE
ENDCHAR
STARTCHAR 03A4
ENCODING 932
SWIDTH 648 0
DWIDTH 9 0
BBX 8 10 0 0
BITMAP
FF
FF
18
18
18
18
18
18
18
18
ENDCHAR
STARTCHAR 03A5
ENCODING 933
SWIDTH 648 0
DWIDTH 9 0
BBX 9 10 0 0
BITMAP
E180
6300
3300
3600
1E00
1C00
0C00
0C00
0C00
0C00
ENDCHAR
STARTCHAR 03A6
ENCODING 934
SWIDTH 792 0
DWIDTH 11 0
BBX 10 10 1 0
BITMAP
0C00
3F00
FF80
CDC0
CCC0
CCC0
CDC0
FF80
3F00
0C00
ENDCHAR
STARTCHAR 03A7
ENCODING 935
SWIDTH 648 0
DWIDTH 9 0
BBX 9 10 0 0
BITMAP
6380
7300
3600
1E00
1C00
1C00
3E00
3700
6300
E180
ENDCHAR
STARTCHAR 03A8
ENCODING 936
SWIDTH 792 0
DWIDTH 11 0
BBX 10 10 1 0
BITMAP
CCC0
CCC0
CCC0
CCC0
CDC0
FF80
7F00
0C00
0C00
0C00
ENDCHAR
STARTCHAR 03A9
ENCODING 937
SWIDTH 792 0
DWIDTH 11 0
BBX 10 10 1 0
BITMAP
3E00
7F00
E380
C180
C180
C180
C180
6300
F7C0
F7C0
ENDCHAR
STARTCHAR 03AA
ENCODING 938
SWIDTH 288 0
DWIDTH 4 0
BBX 5 12 0 0
BITMAP
D8
00
60
60
60
60
60
60
60
60
60
60
ENDCHAR
STARTCHAR 03AB
ENCODING 939
SWIDTH 648 0
DWIDTH 9 0
BBX 9 12 0 0
BITMAP
3600
0000
E180
6300
3300
3600
1E00
1C00
0C00
0C00
0C00
0C00
ENDCHAR
STARTCHAR 03AC
ENCODING 940
SWIDTH 648 0
DWIDTH 9 0
BBX 7 11 1 0
BITMAP
18
10
00
76
FE
CC
CC
C4
CC
FE
76
ENDCHAR
STARTCHAR 03AD
ENCODING 941
SWIDTH 504 0
DWIDTH 7 0
BBX 5 11 1 0
BITMAP
30
20
00
78
F8
C0
F0
F0
C0
F8
78
ENDCHAR
STARTCHAR 03AE
ENCODING 942
SWIDTH 648 0
DWIDTH 9 0
BBX 7 14 1 -3
BITMAP
18
10
00
FC
FC
CE
C6
C6
C6
C6
C6
06
06
06
ENDCHAR
STARTCHAR 03AF
ENCODING 943
SWIDTH 288 0
DWIDTH 4 0
BBX 3 11 1 0
BITMAP
60
40
00
C0
C0
C0
C0
C0
C0
C0
C0
ENDCHAR
STARTCHAR 03B0
ENCODING 944
SWIDTH 576 0
DWIDTH 8 0
BBX 7 11 1 0
BITMAP
10
F6
00
CC
CC
CC
CC
CC
CC
FC
78
ENDCHAR
STARTCHAR 03B1
ENCODING 945
SWIDTH 648 0
DWIDTH 9 0
BBX 7 8 1 0
BITMAP
76
FE
CC
CC
C4
CC
FE
76
ENDCHAR
STARTCHAR 03B2
ENCODING 946
SWIDTH 648 0
DWIDTH 9 0
BBX 7 13 1 -3
BITMAP
78
FC
C4
CC
D8
C6
C6
E6
FE
DC
C0
C0
C0
ENDCHAR
STARTCHAR 03B3
ENCODING 947
SWIDTH 576 0
DWIDTH 8 0
BBX 7 11 0 -3
BITMAP
C2
66
66
64
2C
3C
38
18
18
18
18
ENDCHAR
STARTCHAR 03B4
ENCODING 948
SWIDTH 576 0
DWIDTH 8 0
BBX 7 10 1 0
BITMAP
FC
FC
70
78
FC
C6
86
C6
FC
78
ENDCHAR
STARTCHAR 03B5
ENCODING 949
SWIDTH 504 0
DWIDTH 7 0
BBX 5 8 1 0
BITMAP
78
F8
C0
F0
F0
C0
F8
78
ENDCHAR
STARTCHAR 03B6
ENCODING 950
SWIDTH 432 0
DWIDTH 6 0
BBX 5 13 1 -3
BITMAP
F8
F8
30
60
40
C0
80
C0
F0
78
18
38
30
ENDCHAR
STARTCHAR 03B7
ENCODING 951
SWIDTH 648 0
DWIDTH 9 0
BBX 7 11 1 -3
BITMAP
FC
FC
CE
C6
C6
C6
C6
C6
06
06
06
ENDCHAR
STARTCHAR 03B8
ENCODING 952
SWIDTH 576 0
DWIDTH 8 0
BBX 6 10 1 0
BITMAP
78
F8
CC
CC
FC
FC
CC
CC
F8
78
ENDCHAR
STARTCHAR 03B9
ENCODING 953
SWIDTH 288 0
DWIDTH 4 0
BBX 2 8 1 0
BITMAP
C0
C0
C0
C0
C0
C0
C0
C0
ENDCHAR
STARTCHAR 03BA
ENCODING 954
SWIDTH 576 0
DWIDTH 8 0
BBX 6 8 1 0
BITMAP
CC
D8
F0
F0
F0
D8
DC
CC
ENDCHAR
STARTCHAR 03BB
ENCODING 955
SWIDTH 576 0
DWIDTH 8 0
BBX 7 10 0 0
BITMAP
30
18
18
38
3C
2C
64
66
46
C2
ENDCHAR
STARTCHAR 03BC
ENCODING 956
SWIDTH 648 0
DWIDTH 9 0
BBX 7 11 1 -3
BITMAP
C6
C6
C6
C6
C6
CE
FE
F6
C0
C0
C0
ENDCHAR
STARTCHAR 03BD
ENCODING 957
SWIDTH 576 0
DWIDTH 8 0
BBX 7 8 0 0
BITMAP
C6
66
66
6C
3C
3C
38
18
ENDCHAR
STARTCHAR 03BE
ENCODING 958
SWIDTH 432 0
DWIDTH 6 0
BBX 5 13 1 -3
BITMAP
70
F0
C0
F0
70
C0
C0
C0
F0
78
18
38
30
ENDCHAR
STARTCHAR 03BF
ENCODING 959
SWIDTH 648 0
DWIDTH 9 0
BBX 7 8 1 0
BITMAP
78
FC
C6
C6
C6
C6
FC
78
ENDCHAR
STARTCHAR 03C0
ENCODING 960
SWIDTH 792 0
DWIDTH 11 0
BBX 10 8 0 0
BITMAP
FFC0
FFC0
3100
3100
3100
3100
3100
3100
ENDCHAR
STARTCHAR 03C1
ENCODING 961
SWIDTH 648 0
DWIDTH 9 0
BBX 7 11 1 -3
BITMAP
78
FC
C6
C6
C6
C6
FC
F8
C0
C0
C0
ENDCHAR
STARTCHAR 03C2
ENCODING 962
SWIDTH 504 0
DWIDTH 7 0
BBX 6 11 1 -3
BITMAP
3C
7C
C0
80
80
C0
F8
7C
0C
3C
38
ENDCHAR
STARTCHAR 03C3
ENCODING 963
SWIDTH 720 0
DWIDTH 10 0
BBX 8 8 1 0
BITMAP
7F
FF
C6
C6
C6
C6
FC
78
ENDCHAR
STARTCHAR 03C4
ENCODING 964
SWIDTH 432 0
DWIDTH 6 0
BBX 6 8 0 0
BITMAP
FC
FC
30
30
30
30
30
30
ENDCHAR
STARTCHAR 03C5
ENCODING 965
SWIDTH 576 0
DWIDTH 8 0
BBX 6 8 1 0
BITMAP
CC
CC
CC
CC
CC
CC
FC
78
ENDCHAR
STARTCHAR 03C6
ENCODING 966
SWIDTH 720 0
DWIDTH 10 0
BBX 8 11 1 -3
BITMAP
6E
FF
DB
D9
DB
DB
FF
3C
18
18
18
ENDCHAR
STARTCHAR 03C7
ENCODING 967
SWIDTH 576 0
DWIDTH 8 0
BBX 8 11 0 -3
BITMAP
63
66
66
3C
3C
18
3C
3C
66
66
C3
ENDCHAR
STARTCHAR 03C8
ENCODING 968
SWIDTH 792 0
DWIDTH 11 0
BBX 9 11 1 -3
BITMAP
D980
D980
D980
D980
D980
DB80
FF00
7E00
1800
1800
1800
ENDCHAR
STARTCHAR 03C9
ENCODING 969
SWIDTH 864 0
DWIDTH 12 0
BBX 10 8 1 0
BITMAP
C0C0
C0C0
CCC0
CCC0
CCC0
CCC0
FFC0
7380
ENDCHAR
STARTCHAR 03CA
ENCODING 970
SWIDTH 288 0
DWIDTH 4 0
BBX 5 10 0 0
BITMAP
D8
00
60
60
60
60
60
60
60
60
ENDCHAR
STARTCHAR 03CB
ENCODING 971
SWIDTH 576 0
DWIDTH 8 0
BBX 6 10 1 0
BITMAP
6C
00
CC
CC
CC
CC
CC
CC
FC
78
ENDCHAR
STARTCHAR 03CC
ENCODING 972
SWIDTH 648 0
DWIDTH 9 0
BBX 7 11 1 0
BITMAP
18
10
00
78
FC
C6
C6
C6
C6
FC
78
ENDCHAR
STARTCHAR 03CD
ENCODING 973
SWIDTH 576 0
DWIDTH 8 0
BBX 6 11 1 0
BITMAP
18
10
00
CC
CC
CC
CC
CC
CC
FC
78
ENDCHAR
STARTCHAR 03CE
ENCODING 974
SWIDTH 864 0
DWIDTH 12 0
BBX 10 11 1 0
BITMAP
0C00
0800
0000
C0C0
C0C0
CCC0
CCC0
CCC0
CCC0
FFC0
7380
ENDCHAR
STARTCHAR 03D0
ENCODING 976
SWIDTH 648 0
DWIDTH 9 0
BBX 7 10 1 0
BITMAP
38
6C
FC
C0
FC
FE
C6
C6
7C
78
ENDCHAR
STARTCHAR 03D1
ENCODING 977
SWIDTH 576 0
DWIDTH 8 0
BBX 8 10 0 0
BITMAP
1C
3E
36
3F
1F
E2
E6
66
7C
38
ENDCHAR
STARTCHAR 03D2
ENCODING 978
SWIDTH 792 0
DWIDTH 11 0
BBX 11 10 0 0
BITMAP
E1C0
63E0
3300
3600
1E00
1C00
0C00
0C00
0C00
0C00
ENDCHAR
STARTCHAR 03D3
ENCODING 979
SWIDTH 1008 0
DWIDTH 14 0
BBX 13 10 1 0
BITMAP
F870
98F8
0CC0
0D80
0780
0700
0300
0300
0300
0300
ENDCHAR
STARTCHAR 03D4
ENCODING 980
SWIDTH 792 0
DWIDTH 11 0
BBX 11 12 0 0
BITMAP
3600
0000
E1C0
63E0
3300
3600
1E00
1C00
0C00
0C00
0C00
0C00
ENDCHAR
STARTCHAR 03D5
ENCODING 981
SWIDTH 792 0
DWIDTH 11 0
BBX 9 13 1 -3
BITMAP
1800
1800
7E00
FF00
DB80
D980
D980
DB80
FF00
7E00
1800
1800
1800
ENDCHAR
STARTCHAR 03D6
ENCODING 982
SWIDTH 864 0
DWIDTH 12 0
BBX 10 8 1 0
BITMAP
FFC0
FFC0
C0C0
CCC0
CCC0
CCC0
FFC0
7380
ENDCHAR
STARTCHAR 03D7
ENCODING 983
SWIDTH 648 0
DWIDTH 9 0
BBX 9 11 0 -3
BITMAP
E380
E700
3700
3F00
3F00
3B00
7380
6180
0180
0380
0380
ENDCHAR
STARTCHAR 03D8
ENCODING 984
SWIDTH 792 0
DWIDTH 11 0
BBX 9 13 1 -3
BITMAP
3E00
7F00
E380
C180
C180
C180
C180
E380
7F00
3E00
1800
1800
1800
ENDCHAR
STARTCHAR 03D9
ENCODING 985
SWIDTH 648 0
DWIDTH 9 0
BBX 7 11 1 -3
BITMAP
78
FC
C6
C6
C6
C6
FC
78
30
30
30
ENDCHAR
STARTCHAR 03DA
ENCODING 986
SWIDTH 720 0
DWIDTH 10 0
BBX 9 10 1 0
BITMAP
3E00
7F00
E380
C000
C000
E000
7800
3800
1800
1800
ENDCHAR
STARTCHAR 03DB
ENCODING 987
SWIDTH 576 0
DWIDTH 8 0
BBX 6 11 1 -3
BITMAP
78
FC
CC
C0
C0
E0
F8
3C
0C
7C
F8
ENDCHAR
STARTCHAR 03DC
ENCODING 988
SWIDTH 648 0
DWIDTH 9 0
BBX 7 10 1 0
BITMAP
FE
FE
C0
C0
FC
FC
CC
C0
C0
C0
ENDCHAR
STARTCHAR 03DD
ENCODING 989
SWIDTH 432 0
DWIDTH 6 0
BBX 5 11 1 -3
BITMAP
F8
F8
C0
C0
F8
F8
D8
C0
C0
C0
C0
ENDCHAR
STARTCHAR 03DE
ENCODING 990
SWIDTH 792 0
DWIDTH 11 0
BBX 10 10 0 0
BITMAP
E000
F000
3000
3380
2F80
7F80
7180
4180
01C0
00C0
ENDCHAR
STARTCHAR 03DF
ENCODING 991
SWIDTH 504 0
DWIDTH 7 0
BBX 7 10 0 0
BITMAP
20
20
60
40
7E
FE
04
04
0C
08
ENDCHAR
STARTCHAR 03E0
ENCODING 992
SWIDTH 792 0
DWIDTH 11 0
BBX 11 13 0 -3
BITMAP
3E00
7F00
F380
B1C0
33C0
07C0
06E0
0660
0660
0660
00C0
0FC0
0F00
ENDCHAR
STARTCHAR 03E1
ENCODING 993
SWIDTH 648 0
DWIDTH 9 0
BBX 8 13 0 -3
BITMAP
60
F0
1C
0E
3E
27
0F
1F
13
03
03
03
02
ENDCHAR
STARTCHAR 03E2
ENCODING 994
SWIDTH 1008 0
DWIDTH 14 0
BBX 12 13 1 -3
BITMAP
C630
C630
C630
C630
C630
C630
C630
CE70
FFF0
7BB0
0030
FFF0
FFE0
ENDCHAR
STARTCHAR 03E3
ENCODING 995
SWIDTH 864 0
DWIDTH 12 0
BBX 11 11 1 -3
BITMAP
CC60
CC60
CC60
CC60
CC60
CCE0
F7E0
7760
0060
FFC0
FFC0
ENDCHAR
STARTCHAR 03E4
ENCODING 996
SWIDTH 720 0
DWIDTH 10 0
BBX 8 10 1 0
BITMAP
7B
F3
C3
C3
C3
FF
7F
03
03
03
ENDCHAR
STARTCHAR 03E5
ENCODING 997
SWIDTH 648 0
DWIDTH 9 0
BBX 7 10 1 0
BITMAP
F6
F6
C6
C6
CE
FE
76
06
06
06
ENDCHAR
STARTCHAR 03E6
ENCODING 998
SWIDTH 720 0
DWIDTH 10 0
BBX 8 13 1 -3
BITMAP
C0
C0
C0
FC
FE
C7
C3
C3
C3
C3
06
FE
FC
ENDCHAR
STARTCHAR 03E7
ENCODING 999
SWIDTH 576 0
DWIDTH 8 0
BBX 8 8 0 0
BITMAP
38
7F
66
7F
3B
06
7E
FC
ENDCHAR
STARTCHAR 03E8
ENCODING 1000
SWIDTH 648 0
DWIDTH 9 0
BBX 7 10 1 0
BITMAP
7C
FE
C6
06
7E
FC
C6
C6
FE
7C
ENDCHAR
STARTCHAR 03E9
ENCODING 1001
SWIDTH 648 0
DWIDTH 9 0
BBX 7 10 1 0
BITMAP
7C
FE
C6
06
7E
FC
C0
C2
FE
7E
ENDCHAR
STARTCHAR 03EA
ENCODING 1002
SWIDTH 648 0
DWIDTH 9 0
BBX 9 10 0 0
BITMAP
F780
F780
1C00
1C00
1C00
1C00
3600
7700
7F00
7F00
ENDCHAR
STARTCHAR 03EB
ENCODING 1003
SWIDTH 576 0
DWIDTH 8 0
BBX 8 8 0 0
BITMAP
E7
FF
3C
1C
3C
76
7F
7F
ENDCHAR
STARTCHAR 03EC
ENCODING 1004
SWIDTH 720 0
DWIDTH 10 0
BBX 9 10 1 0
BITMAP
1F00
7F00
E000
FE00
FF00
C380
C180
C380
FF00
3E00
ENDCHAR
STARTCHAR 03ED
ENCODING 1005
SWIDTH 576 0
DWIDTH 8 0
BBX 7 8 1 0
BITMAP
3E
FE
C0
FC
FC
C6
FC
78
ENDCHAR
STARTCHAR 03EE
ENCODING 1006
SWIDTH 504 0
DWIDTH 7 0
BBX 7 10 0 0
BITMAP
18
18
7C
9A
9A
18
18
18
18
18
ENDCHAR
STARTCHAR 03EF
ENCODING 1007
SWIDTH 432 0
DWIDTH 6 0
BBX 6 10 0 0
BITMAP
20
38
30
FC
B0
30
30
30
70
10
ENDCHAR
STARTCHAR 03F0
ENCODING 1008
SWIDTH 648 0
DWIDTH 9 0
BBX 9 8 0 0
BITMAP
E380
E700
3700
3F00
3F00
3B00
7380
6180
ENDCHAR
STARTCHAR 03F1
ENCODING 1009
SWIDTH 648 0
DWIDTH 9 0
BBX 7 11 1 -3
BITMAP
78
FC
C6
C6
C6
C6
FC
B8
C0
FC
7E
ENDCHAR
STARTCHAR 03F2
ENCODING 1010
SWIDTH 576 0
DWIDTH 8 0
BBX 6 8 1 0
BITMAP
78
FC
CC
C0
C0
CC
FC
78
ENDCHAR
STARTCHAR 03F3
ENCODING 1011
SWIDTH 288 0
DWIDTH 4 0
BBX 4 13 -1 -3
BITMAP
30
00
30
30
30
30
30
30
30
30
30
70
E0
ENDCHAR
STARTCHAR 03F4
ENCODING 1012
SWIDTH 792 0
DWIDTH 11 0
BBX 9 10 1 0
BITMAP
3E00
7F00
E380
C180
FF80
FF80
C180
E380
7F00
3E00
ENDCHAR
STARTCHAR 03F5
ENCODING 1013
SWIDTH 504 0
DWIDTH 7 0
BBX 5 8 1 0
BITMAP
78
F8
C0
F0
F0
C0
F8
78
ENDCHAR
STARTCHAR 03F6
ENCODING 1014
SWIDTH 504 0
DWIDTH 7 0
BBX 5 8 1 0
BITMAP
F0
F8
18
78
78
18
F8
F0
ENDCHAR
STARTCHAR 03F7
ENCODING 1015
SWIDTH 648 0
DWIDTH 9 0
BBX 8 10 1 0
BITMAP
C0
C0
FC
FE
C7
C7
FE
FC
C0
C0
ENDCHAR
STARTCHAR 03F8
ENCODING 1016
SWIDTH 648 0
DWIDTH 9 0
BBX 7 13 1 -3
BITMAP
C0
C0
FC
FC
C6
C6
C6
C6
FC
FC
C0
C0
C0
ENDCHAR
STARTCHAR 03F9
ENCODING 1017
SWIDTH 720 0
DWIDTH 10 0
BBX 8 10 1 0
BITMAP
3E
7F
E3
C2
C0
C0
C2
E3
7F
3C
ENDCHAR
STARTCHAR 03FA
ENCODING 1018
SWIDTH 864 0
DWIDTH 12 0
BBX 10 10 1 0
BITMAP
E1C0
F3C0
F6C0
DEC0
CCC0
C0C0
C0C0
C0C0
C0C0
C0C0
ENDCHAR
STARTCHAR 03FB
ENCODING 1019
SWIDTH 720 0
DWIDTH 10 0
BBX 8 11 1 -3
BITMAP
E3
E3
E7
F7
F5
DD
DD
D9
C0
C0
C0
ENDCHAR
STARTCHAR 03FC
ENCODING 1020
SWIDTH 648 0
DWIDTH 9 0
BBX 8 11 0 -3
BITMAP
3C
7E
63
63
63
63
7E
7C
60
F8
60
ENDCHAR
STARTCHAR 03FD
ENCODING 1021
SWIDTH 720 0
DWIDTH 10 0
BBX 8 10 1 0
BITMAP
3C
7E
E7
C3
03
03
C3
C7
7E
3C
ENDCHAR
STARTCHAR 03FE
ENCODING 1022
SWIDTH 720 0
DWIDTH 10 0
BBX 8 10 1 0
BITMAP
3C
7F
E3
C3
D8
D8
C3
E3
7F
3C
ENDCHAR
STARTCHAR 03FF
ENCODING 1023
SWIDTH 720 0
DWIDTH 10 0
BBX 8 10 1 0
BITMAP
3C
7E
E7
C3
1B
1B
C3
C7
7E
3C
ENDCHAR
STARTCHAR 0400
ENCODING 1024
SWIDTH 648 0
DWIDTH 9 0
BBX 8 13 1 0
BITMAP
18
08
00
FE
FE
C0
C0
FE
FE
C0
C0
FF
FF
ENDCHAR
STARTCHAR 0401
ENCODING 1025
SWIDTH 648 0
DWIDTH 9 0
BBX 8 12 1 0
BITMAP
6C
00
FE
FE
C0
C0
FE
FE
C0
C0
FF
FF
ENDCHAR
STARTCHAR 0402
ENCODING 1026
SWIDTH 864 0
DWIDTH 12 0
BBX 12 10 0 0
BITMAP
FF00
FF00
1800
1BC0
1FE0
1C70
1830
1830
19E0
19C0
ENDCHAR
STARTCHAR 0403
ENCODING 1027
SWIDTH 576 0
DWIDTH 8 0
BBX 7 13 1 0
BITMAP
18
10
00
FE
FE
C0
C0
C0
C0
C0
C0
C0
C0
ENDCHAR
STARTCHAR 0404
ENCODING 1028
SWIDTH 720 0
DWIDTH 10 0
BBX 8 10 1 0
BITMAP
3E
7F
E2
C0
F8
F8
C0
E2
7F
3E
ENDCHAR
STARTCHAR 0405
ENCODING 1029
SWIDTH 648 0
DWIDTH 9 0
BBX 8 10 1 0
BITMAP
7C
FE
C6
E0
FC
3E
07
C7
FE
7C
ENDCHAR
STARTCHAR 0406
ENCODING 1030
SWIDTH 288 0
DWIDTH 4 0
BBX 2 10 1 0
BITMAP
C0
C0
C0
C0
C0
C0
C0
C0
C0
C0
ENDCHAR
STARTCHAR 0407
ENCODING 1031
SWIDTH 288 0
DWIDTH 4 0
BBX 5 12 0 0
BITMAP
D8
00
60
60
60
60
60
60
60
60
60
60
ENDCHAR
STARTCHAR 0408
ENCODING 1032
SWIDTH 576 0
DWIDTH 8 0
BBX 7 10 0 0
BITMAP
06
06
06
06
06
06
C6
CE
7C
38
ENDCHAR
STARTCHAR 0409
ENCODING 1033
SWIDTH 1080 0
DWIDTH 15 0
BBX 15 10 0 0
BITMAP
7F00
7F00
7300
7300
73F8
73FC
730E
630E
E3FC
E3F8
ENDCHAR
STARTCHAR 040A
ENCODING 1034
SWIDTH 1080 0
DWIDTH 15 0
BBX 13 10 1 0
BITMAP
C600
C600
C600
C600
FFF0
FFF8
C618
C618
C7F8
C7F0
ENDCHAR
STARTCHAR 040B
ENCODING 1035
SWIDTH 864 0
DWIDTH 12 0
BBX 11 10 0 0
BITMAP
FF00
FF00
1800
1FC0
1FE0
1860
1860
1860
1860
1860
ENDCHAR
STARTCHAR 040C
ENCODING 1036
SWIDTH 648 0
DWIDTH 9 0
BBX 7 13 1 0
BITMAP
18
10
00
C6
CC
C8
D8
F0
D8
CC
CC
CE
C6
ENDCHAR
STARTCHAR 040D
ENCODING 1037
SWIDTH 720 0
DWIDTH 10 0
BBX 8 13 1 0
BITMAP
30
10
00
C3
C7
C7
CF
DB
DB
F3
F3
E3
C3
ENDCHAR
STARTCHAR 040E
ENCODING 1038
SWIDTH 648 0
DWIDTH 9 0
BBX 8 13 0 0
BITMAP
24
1C
00
E3
63
77
36
1E
1C
0C
18
78
70
ENDCHAR
STARTCHAR 040F
ENCODING 1039
SWIDTH 720 0
DWIDTH 10 0
BBX 8 13 1 -3
BITMAP
C3
C3
C3
C3
C3
C3
C3
C3
FF
FF
18
18
18
ENDCHAR
STARTCHAR 0410
ENCODING 1040
SWIDTH 720 0
DWIDTH 10 0
BBX 10 10 0 0
BITMAP
0C00
1E00
1E00
1600
3300
3300
7F80
7F80
6180
C0C0
ENDCHAR
STARTCHAR 0411
ENCODING 1041
SWIDTH 720 0
DWIDTH 10 0
BBX 8 10 1 0
BITMAP
FF
FF
C0
C0
FE
FF
C3
C3
FF
FE
ENDCHAR
STARTCHAR 0412
ENCODING 1042
SWIDTH 720 0
DWIDTH 10 0
BBX 8 10 1 0
BITMAP
FE
FF
C3
C3
FE
FF
C3
C3
FF
FE
ENDCHAR
STARTCHAR 0413
ENCODING 1043
SWIDTH 576 0
DWIDTH 8 0
BBX 7 10 1 0
BITMAP
FE
FE
C0
C0
C0
C0
C0
C0
C0
C0
ENDCHAR
STARTCHAR 0414
ENCODING 1044
SWIDTH 720 0
DWIDTH 10 0
BBX 10 12 0 -2
BITMAP
3F80
3F80
3180
3180
3180
3180
6180
6180
FFC0
FFC0
C0C0
C0C0
ENDCHAR
STARTCHAR 0415
ENCODING 1045
SWIDTH 648 0
DWIDTH 9 0
BBX 8 10 1 0
BITMAP
FE
FE
C0
C0
FE
FE
C0
C0
FF
FF
ENDCHAR
STARTCHAR 0416
ENCODING 1046
SWIDTH 936 0
DWIDTH 13 0
BBX 12 10 0 0
BITMAP
E630
3660
3640
16C0
1F80
3EC0
3660
7660
6630
E630
ENDCHAR
STARTCHAR 0417
ENCODING 1047
SWIDTH 648 0
DWIDTH 9 0
BBX 8 10 0 0
BITMAP
3C
7E
67
66
1C
03
43
E3
7F
3E
ENDCHAR
STARTCHAR 0418
ENCODING 1048
SWIDTH 720 0
DWIDTH 10 0
BBX 8 10 1 0
BITMAP
C3
C7
C7
CF
DB
DB
F3
F3
E3
C3
ENDCHAR
STARTCHAR 0419
ENCODING 1049
SWIDTH 720 0
DWIDTH 10 0
BBX 8 13 1 0
BITMAP
24
1C
00
C3
C7
C7
CF
DB
DB
F3
F3
E3
C3
ENDCHAR
STARTCHAR 041A
ENCODING 1050
SWIDTH 648 0
DWIDTH 9 0
BBX 7 10 1 0
BITMAP
C6
CC
C8
D8
F0
D8
CC
CC
CE
C6
ENDCHAR
STARTCHAR 041B
ENCODING 1051
SWIDTH 720 0
DWIDTH 10 0
BBX 9 10 0 0
BITMAP
3F80
3F80
3180
3180
3180
3180
3180
3180
F180
E180
ENDCHAR
STARTCHAR 041C
ENCODING 1052
SWIDTH 864 0
DWIDTH 12 0
BBX 10 10 1 0
BITMAP
E1C0
E3C0
F3C0
F2C0
F6C0
D6C0
DEC0
DCC0
DCC0
CCC0
ENDCHAR
STARTCHAR 041D
ENCODING 1053
SWIDTH 720 0
DWIDTH 10 0
BBX 8 10 1 0
BITMAP
C3
C3
C3
C3
FF
FF
C3
C3
C3
C3
ENDCHAR
STARTCHAR 041E
ENCODING 1054
SWIDTH 792 0
DWIDTH 11 0
BBX 9 10 1 0
BITMAP
3E00
7F00
E380
C180
C180
C180
C180
E380
7F00
3E00
ENDCHAR
STARTCHAR 041F
ENCODING 1055
SWIDTH 720 0
DWIDTH 10 0
BBX 8 10 1 0
BITMAP
FF
FF
C3
C3
C3
C3
C3
C3
C3
C3
ENDCHAR
STARTCHAR 0420
ENCODING 1056
SWIDTH 648 0
DWIDTH 9 0
BBX 8 10 1 0
BITMAP
FC
FE
C7
C7
FE
FC
C0
C0
C0
C0
ENDCHAR
STARTCHAR 0421
ENCODING 1057
SWIDTH 720 0
DWIDTH 10 0
BBX 8 10 1 0
BITMAP
3E
7F
E3
C2
C0
C0
C2
E3
7F
3C
ENDCHAR
STARTCHAR 0422
ENCODING 1058
SWIDTH 648 0
DWIDTH 9 0
BBX 8 10 0 0
BITMAP
FF
FF
18
18
18
18
18
18
18
18
ENDCHAR
STARTCHAR 0423
ENCODING 1059
SWIDTH 648 0
DWIDTH 9 0
BBX 8 10 0 0
BITMAP
E3
63
77
36
1E
1C
0C
18
78
70
ENDCHAR
STARTCHAR 0424
ENCODING 1060
SWIDTH 864 0
DWIDTH 12 0
BBX 10 10 1 0
BITMAP
0C00
3F00
FFC0
CCC0
CCC0
CCC0
CCC0
FFC0
3F00
0C00
ENDCHAR
STARTCHAR 0425
ENCODING 1061
SWIDTH 648 0
DWIDTH 9 0
BBX 9 10 0 0
BITMAP
6380
7300
3600
1E00
1C00
1C00
3E00
3700
6300
E180
ENDCHAR
STARTCHAR 0426
ENCODING 1062
SWIDTH 720 0
DWIDTH 10 0
BBX 9 12 1 -2
BITMAP
C300
C300
C300
C300
C300
C300
C300
C300
FF80
FF80
0180
0180
ENDCHAR
STARTCHAR 0427
ENCODING 1063
SWIDTH 720 0
DWIDTH 10 0
BBX 8 10 1 0
BITMAP
C3
C3
C3
C3
C3
FF
7F
03
03
03
ENDCHAR
STARTCHAR 0428
ENCODING 1064
SWIDTH 1008 0
DWIDTH 14 0
BBX 12 10 1 0
BITMAP
C630
C630
C630
C630
C630
C630
C630
C630
FFF0
FFF0
ENDCHAR
STARTCHAR 0429
ENCODING 1065
SWIDTH 1008 0
DWIDTH 14 0
BBX 13 12 1 -2
BITMAP
C630
C630
C630
C630
C630
C630
C630
C630
FFF8
FFF8
0018
0018
ENDCHAR
STARTCHAR 042A
ENCODING 1066
SWIDTH 864 0
DWIDTH 12 0
BBX 12 10 0 0
BITMAP
F800
F800
1800
1800
1FC0
1FE0
1860
1870
1FE0
1FC0
ENDCHAR
STARTCHAR 042B
ENCODING 1067
SWIDTH 1008 0
DWIDTH 14 0
BBX 12 10 1 0
BITMAP
C030
C030
C030
C030
FE30
FF30
C330
C330
FF30
FE30
ENDCHAR
STARTCHAR 042C
ENCODING 1068
SWIDTH 720 0
DWIDTH 10 0
BBX 8 10 1 0
BITMAP
C0
C0
C0
C0
FE
FF
C3
C3
FF
FE
ENDCHAR
STARTCHAR 042D
ENCODING 1069
SWIDTH 720 0
DWIDTH 10 0
BBX 8 10 1 0
BITMAP
7C
FE
47
03
1F
1F
03
47
FE
7C
ENDCHAR
STARTCHAR 042E
ENCODING 1070
SWIDTH 1008 0
DWIDTH 14 0
BBX 13 10 1 0
BITMAP
C3E0
C7F0
CE30
CC38
FC18
FC18
CC38
CE30
C7F0
C3E0
ENDCHAR
STARTCHAR 042F
ENCODING 1071
SWIDTH 720 0
DWIDTH 10 0
BBX 9 10 0 0
BITMAP
3F80
7F80
6180
6180
7F80
1F80
3980
3180
6180
E180
ENDCHAR
STARTCHAR 0430
ENCODING 1072
SWIDTH 576 0
DWIDTH 8 0
BBX 6 8 1 0
BITMAP
78
FC
0C
3C
CC
CC
FC
EC
ENDCHAR
STARTCHAR 0431
ENCODING 1073
SWIDTH 648 0
DWIDTH 9 0
BBX 7 10 1 0
BITMAP
7E
FC
C0
B8
FC
C6
C6
C6
FC
78
ENDCHAR
STARTCHAR 0432
ENCODING 1074
SWIDTH 648 0
DWIDTH 9 0
BBX 7 8 1 0
BITMAP
FC
FE
C6
FC
FE
C6
FE
FC
ENDCHAR
STARTCHAR 0433
ENCODING 1075
SWIDTH 432 0
DWIDTH 6 0
BBX 5 8 1 0
BITMAP
F8
F8
C0
C0
C0
C0
C0
C0
ENDCHAR
STARTCHAR 0434
ENCODING 1076
SWIDTH 648 0
DWIDTH 9 0
BBX 9 10 0 -2
BITMAP
3F00
3F00
3300
2300
6300
6300
FF80
FF80
C180
C180
ENDCHAR
STARTCHAR 0435
ENCODING 1077
SWIDTH 576 0
DWIDTH 8 0
BBX 7 8 0 0
BITMAP
3C
7E
66
FE
FE
60
7E
3C
ENDCHAR
STARTCHAR 0436
ENCODING 1078
SWIDTH 720 0
DWIDTH 10 0
BBX 10 8 0 0
BITMAP
CCC0
EDC0
6D00
3F00
3F00
6D80
6D80
CCC0
ENDCHAR
STARTCHAR 0437
ENCODING 1079
SWIDTH 504 0
DWIDTH 7 0
BBX 6 8 0 0
BITMAP
38
7C
4C
18
1C
C4
7C
38
ENDCHAR
STARTCHAR 0438
ENCODING 1080
SWIDTH 648 0
DWIDTH 9 0
BBX 7 8 1 0
BITMAP
C6
CE
D6
D6
E6
E6
E6
C6
ENDCHAR
STARTCHAR 0439
ENCODING 1081
SWIDTH 648 0
DWIDTH 9 0
BBX 7 11 1 0
BITMAP
48
38
00
C6
CE
D6
D6
E6
E6
E6
C6
ENDCHAR
STARTCHAR 043A
ENCODING 1082
SWIDTH 504 0
DWIDTH 7 0
BBX 6 8 1 0
BITMAP
CC
DC
D0
F0
F0
D8
D8
CC
ENDCHAR
STARTCHAR 043B
ENCODING 1083
SWIDTH 648 0
DWIDTH 9 0
BBX 8 8 0 0
BITMAP
3F
3F
23
23
23
63
E3
E3
ENDCHAR
STARTCHAR 043C
ENCODING 1084
SWIDTH 720 0
DWIDTH 10 0
BBX 8 8 1 0
BITMAP
E3
E3
E7
F7
F5
DD
DD
D9
ENDCHAR
STARTCHAR 043D
ENCODING 1085
SWIDTH 576 0
DWIDTH 8 0
BBX 7 8 1 0
BITMAP
C6
C6
C6
FE
FE
C6
C6
C6
ENDCHAR
STARTCHAR 043E
ENCODING 1086
SWIDTH 648 0
DWIDTH 9 0
BBX 7 8 1 0
BITMAP
78
FC
C6
C6
C6
C6
FC
78
ENDCHAR
STARTCHAR 043F
ENCODING 1087
SWIDTH 576 0
DWIDTH 8 0
BBX 6 8 1 0
BITMAP
FC
FC
CC
CC
CC
CC
CC
CC
ENDCHAR
STARTCHAR 0440
ENCODING 1088
SWIDTH 648 0
DWIDTH 9 0
BBX 7 11 1 -3
BITMAP
FC
FC
C6
C6
C6
C6
FC
FC
C0
C0
C0
ENDCHAR
STARTCHAR 0441
ENCODING 1089
SWIDTH 576 0
DWIDTH 8 0
BBX 6 8 1 0
BITMAP
78
FC
CC
C0
C0
CC
FC
78
ENDCHAR
STARTCHAR 0442
ENCODING 1090
SWIDTH 504 0
DWIDTH 7 0
BBX 7 8 0 0
BITMAP
FE
FE
30
30
30
30
30
30
ENDCHAR
STARTCHAR 0443
ENCODING 1091
SWIDTH 576 0
DWIDTH 8 0
BBX 7 11 0 -3
BITMAP
C6
66
66
64
3C
3C
38
18
18
30
70
ENDCHAR
STARTCHAR 0444
ENCODING 1092
SWIDTH 864 0
DWIDTH 12 0
BBX 11 13 1 -3
BITMAP
0C00
0C00
7D80
FFC0
CCE0
CC60
CC60
CCE0
FFC0
7D80
0C00
0C00
0C00
ENDCHAR
STARTCHAR 0445
ENCODING 1093
SWIDTH 576 0
DWIDTH 8 0
BBX 7 8 0 0
BITMAP
66
6C
3C
38
38
3C
6E
E6
ENDCHAR
STARTCHAR 0446
ENCODING 1094
SWIDTH 648 0
DWIDTH 9 0
BBX 7 10 1 -2
BITMAP
C6
C6
C6
C6
C6
C6
FE
FE
02
02
ENDCHAR
STARTCHAR 0447
ENCODING 1095
SWIDTH 576 0
DWIDTH 8 0
BBX 6 8 1 0
BITMAP
CC
CC
CC
FC
7C
0C
0C
0C
ENDCHAR
STARTCHAR 0448
ENCODING 1096
SWIDTH 864 0
DWIDTH 12 0
BBX 10 8 1 0
BITMAP
CCC0
CCC0
CCC0
CCC0
CCC0
CCC0
FFC0
FFC0
ENDCHAR
STARTCHAR 0449
ENCODING 1097
SWIDTH 864 0
DWIDTH 12 0
BBX 11 10 1 -2
BITMAP
CCC0
CCC0
CCC0
CCC0
CCC0
CCC0
FFE0
FFE0
0060
0060
ENDCHAR
STARTCHAR 044A
ENCODING 1098
SWIDTH 720 0
DWIDTH 10 0
BBX 10 8 0 0
BITMAP
F800
F800
1800
1F80
1F80
18C0
1F80
1F80
ENDCHAR
STARTCHAR 044B
ENCODING 1099
SWIDTH 864 0
DWIDTH 12 0
BBX 10 8 1 0
BITMAP
C0C0
C0C0
C0C0
FCC0
FEC0
C6C0
FEC0
FCC0
ENDCHAR
STARTCHAR 044C
ENCODING 1100
SWIDTH 648 0
DWIDTH 9 0
BBX 7 8 1 0
BITMAP
C0
C0
C0
FC
FE
C6
FE
FC
ENDCHAR
STARTCHAR 044D
ENCODING 1101
SWIDTH 576 0
DWIDTH 8 0
BBX 6 8 1 0
BITMAP
78
FC
CC
3C
3C
8C
FC
78
ENDCHAR
STARTCHAR 044E
ENCODING 1102
SWIDTH 864 0
DWIDTH 12 0
BBX 10 8 1 0
BITMAP
C780
CFC0
CCC0
F8C0
F8C0
CCC0
CFC0
C780
ENDCHAR
STARTCHAR 044F
ENCODING 1103
SWIDTH 576 0
DWIDTH 8 0
BBX 7 8 0 0
BITMAP
7E
7E
66
7E
3E
36
66
E6
ENDCHAR
STARTCHAR 0450
ENCODING 1104
SWIDTH 576 0
DWIDTH 8 0
BBX 7 11 0 0
BITMAP
30
10
00
3C
7E
66
FE
FE
60
7E
3C
ENDCHAR
STARTCHAR 0451
ENCODING 1105
SWIDTH 576 0
DWIDTH 8 0
BBX 7 10 0 0
BITMAP
36
00
3C
7E
66
FE
FE
60
7E
3C
ENDCHAR
STARTCHAR 0452
ENCODING 1106
SWIDTH 648 0
DWIDTH 9 0
BBX 8 13 0 -3
BITMAP
F8
60
6E
7E
63
63
63
63
63
63
03
0E
0E
ENDCHAR
STARTCHAR 0453
ENCODING 1107
SWIDTH 432 0
DWIDTH 6 0
BBX 5 11 1 0
BITMAP
30
20
00
F8
F8
C0
C0
C0
C0
C0
C0
ENDCHAR
STARTCHAR 0454
ENCODING 1108
SWIDTH 576 0
DWIDTH 8 0
BBX 6 8 1 0
BITMAP
78
FC
CC
F0
F0
CC
FC
78
ENDCHAR
STARTCHAR 0455
ENCODING 1109
SWIDTH 576 0
DWIDTH 8 0
BBX 6 8 1 0
BITMAP
78
FC
80
F0
3C
0C
FC
78
ENDCHAR
STARTCHAR 0456
ENCODING 1110
SWIDTH 288 0
DWIDTH 4 0
BBX 2 10 1 0
BITMAP
C0
00
C0
C0
C0
C0
C0
C0
C0
C0
ENDCHAR
STARTCHAR 0457
ENCODING 1111
SWIDTH 288 0
DWIDTH 4 0
BBX 5 10 0 0
BITMAP
D8
00
60
60
60
60
60
60
60
60
ENDCHAR
STARTCHAR 0458
ENCODING 1112
SWIDTH 288 0
DWIDTH 4 0
BBX 4 13 -1 -3
BITMAP
30
00
30
30
30
30
30
30
30
30
30
70
E0
ENDCHAR
STARTCHAR 0459
ENCODING 1113
SWIDTH 1008 0
DWIDTH 14 0
BBX 13 8 0 0
BITMAP
3F00
3F00
2300
23F0
23F8
2318
E3F8
E3F0
ENDCHAR
STARTCHAR 045A
ENCODING 1114
SWIDTH 936 0
DWIDTH 13 0
BBX 11 8 1 0
BITMAP
CC00
CC00
CC00
FFC0
FFE0
CC60
CFE0
CFC0
ENDCHAR
STARTCHAR 045B
ENCODING 1115
SWIDTH 648 0
DWIDTH 9 0
BBX 8 10 0 0
BITMAP
F8
60
6E
7E
67
63
63
63
63
63
ENDCHAR
STARTCHAR 045C
ENCODING 1116
SWIDTH 504 0
DWIDTH 7 0
BBX 6 11 1 0
BITMAP
30
20
00
CC
DC
D0
F0
F0
D8
D8
CC
ENDCHAR
STARTCHAR 045D
ENCODING 1117
SWIDTH 648 0
DWIDTH 9 0
BBX 7 11 1 0
BITMAP
30
10
00
C6
CE
D6
D6
E6
E6
E6
C6
ENDCHAR
STARTCHAR 045E
ENCODING 1118
SWIDTH 576 0
DWIDTH 8 0
BBX 7 14 0 -3
BITMAP
24
1C
00
C6
66
66
64
3C
3C
38
18
18
30
70
ENDCHAR
STARTCHAR 045F
ENCODING 1119
SWIDTH 576 0
DWIDTH 8 0
BBX 7 10 1 -2
BITMAP
C6
C6
C6
C6
C6
C6
FE
FE
30
30
ENDCHAR
STARTCHAR 0460
ENCODING 1120
SWIDTH 1296 0
DWIDTH 18 0
BBX 16 10 1 0
BITMAP
3E7C
7C3E
E007
C003
C003
C183
C183
E387
7FFE
3E7C
ENDCHAR
STARTCHAR 0461
ENCODING 1121
SWIDTH 792 0
DWIDTH 11 0
BBX 11 8 0 0
BITMAP
CC60
CCC0
CCC0
6CC0
6F80
3F80
3B80
3B00
ENDCHAR
STARTCHAR 0462
ENCODING 1122
SWIDTH 864 0
DWIDTH 12 0
BBX 11 10 0 0
BITMAP
1800
1800
FF00
1800
1FC0
1FE0
1860
1860
1FE0
1FC0
ENDCHAR
STARTCHAR 0463
ENCODING 1123
SWIDTH 720 0
DWIDTH 10 0
BBX 9 10 0 0
BITMAP
3000
3000
FC00
FC00
3000
3F00
3F80
3180
3F80
3F00
ENDCHAR
STARTCHAR 0464
ENCODING 1124
SWIDTH 1008 0
DWIDTH 14 0
BBX 12 10 1 0
BITMAP
C3E0
CFF0
CC20
DC00
FF80
FF80
DC00
CC20
CFF0
C3E0
ENDCHAR
STARTCHAR 0465
ENCODING 1125
SWIDTH 792 0
DWIDTH 11 0
BBX 10 8 1 0
BITMAP
CF00
DF80
D880
FE00
FE00
D8C0
DF80
CF00
ENDCHAR
STARTCHAR 0466
ENCODING 1126
SWIDTH 648 0
DWIDTH 9 0
BBX 9 10 0 0
BITMAP
1C00
1C00
1E00
3600
3600
3F00
6B00
6B00
6980
C980
ENDCHAR
STARTCHAR 0467
ENCODING 1127
SWIDTH 576 0
DWIDTH 8 0
BBX 7 8 0 0
BITMAP
18
38
3C
3C
7C
76
76
D6
ENDCHAR
STARTCHAR 0468
ENCODING 1128
SWIDTH 936 0
DWIDTH 13 0
BBX 12 10 1 0
BITMAP
C380
C380
C780
C7C0
C6C0
FFC0
CF60
DF60
DB60
DB30
ENDCHAR
STARTCHAR 0469
ENCODING 1129
SWIDTH 792 0
DWIDTH 11 0
BBX 10 8 1 0
BITMAP
C600
C700
CF00
CD00
FF80
DB80
DA80
DAC0
ENDCHAR
STARTCHAR 046A
ENCODING 1130
SWIDTH 792 0
DWIDTH 11 0
BBX 10 10 1 0
BITMAP
FF80
7F00
3300
3600
7F00
FF80
CDC0
CCC0
CCC0
CCC0
ENDCHAR
STARTCHAR 046B
ENCODING 1131
SWIDTH 792 0
DWIDTH 11 0
BBX 9 8 1 0
BITMAP
7F00
3E00
3400
7E00
FF00
DB80
D980
D980
ENDCHAR
STARTCHAR 046C
ENCODING 1132
SWIDTH 1080 0
DWIDTH 15 0
BBX 14 10 1 0
BITMAP
CFF8
C7F0
C660
C360
FFF0
FFF8
CD98
D998
D99C
D99C
ENDCHAR
STARTCHAR 046D
ENCODING 1133
SWIDTH 1008 0
DWIDTH 14 0
BBX 12 8 1 0
BITMAP
CFE0
C7C0
C6C0
FEC0
FFE0
DB30
DB30
DB30
ENDCHAR
STARTCHAR 046E
ENCODING 1134
SWIDTH 648 0
DWIDTH 9 0
BBX 8 15 0 -3
BITMAP
26
1C
3C
7E
E7
06
1C
03
03
07
7F
7E
C0
7F
7F
ENDCHAR
STARTCHAR 046F
ENCODING 1135
SWIDTH 504 0
DWIDTH 7 0
BBX 7 13 0 -3
BITMAP
6C
28
78
4C
0C
18
0C
04
0C
7C
C0
7C
7E
ENDCHAR
STARTCHAR 0470
ENCODING 1136
SWIDTH 792 0
DWIDTH 11 0
BBX 10 10 1 0
BITMAP
CCC0
CCC0
CCC0
ECC0
6DC0
7F80
3F00
0C00
0C00
0C00
ENDCHAR
STARTCHAR 0471
ENCODING 1137
SWIDTH 792 0
DWIDTH 11 0
BBX 9 11 1 -3
BITMAP
D980
D980
D980
D980
7980
7B80
7F00
3E00
1800
1800
1800
ENDCHAR
STARTCHAR 0472
ENCODING 1138
SWIDTH 792 0
DWIDTH 11 0
BBX 9 10 1 0
BITMAP
3E00
7F00
E180
CF80
FF80
F180
C180
E380
7F00
3E00
ENDCHAR
STARTCHAR 0473
ENCODING 1139
SWIDTH 648 0
DWIDTH 9 0
BBX 7 8 1 0
BITMAP
78
FC
C6
DE
E6
CE
FC
78
ENDCHAR
STARTCHAR 0474
ENCODING 1140
SWIDTH 792 0
DWIDTH 11 0
BBX 11 10 0 0
BITMAP
C1C0
61E0
63A0
6300
3300
3600
3600
1E00
1C00
1C00
ENDCHAR
STARTCHAR 0475
ENCODING 1141
SWIDTH 648 0
DWIDTH 9 0
BBX 9 8 0 0
BITMAP
C300
6780
6600
6C00
3C00
3C00
3800
1800
ENDCHAR
STARTCHAR 0476
ENCODING 1142
SWIDTH 792 0
DWIDTH 11 0
BBX 11 13 0 0
BITMAP
2C00
1600
0000
C1C0
61E0
63A0
6300
3300
3600
3600
1E00
1C00
1C00
ENDCHAR
STARTCHAR 0477
ENCODING 1143
SWIDTH 648 0
DWIDTH 9 0
BBX 9 11 0 0
BITMAP
2C00
1600
0000
C300
6780
6600
6C00
3C00
3C00
3800
1800
ENDCHAR
STARTCHAR 0478
ENCODING 1144
SWIDTH 1152 0
DWIDTH 16 0
BBX 14 13 1 -3
BITMAP
7800
FC00
CF8C
C6CC
C6CC
C6D8
C678
CE78
FC70
7830
0070
00E0
00C0
ENDCHAR
STARTCHAR 0479
ENCODING 1145
SWIDTH 1008 0
DWIDTH 14 0
BBX 12 11 1 -3
BITMAP
7630
FB30
DB30
DB60
D9E0
D9E0
F9C0
70C0
01C0
0780
0300
ENDCHAR
STARTCHAR 047A
ENCODING 1146
SWIDTH 792 0
DWIDTH 11 0
BBX 11 12 0 -1
BITMAP
0600
1F80
7FC0
76E0
E060
C060
C060
E060
74E0
7FC0
1F80
0600
ENDCHAR
STARTCHAR 047B
ENCODING 1147
SWIDTH 648 0
DWIDTH 9 0
BBX 9 10 0 -1
BITMAP
0800
3E00
7F00
EB00
C180
C180
EB00
7F00
3E00
0800
ENDCHAR
STARTCHAR 047C
ENCODING 1148
SWIDTH 1296 0
DWIDTH 18 0
BBX 16 13 1 0
BITMAP
03C0
05B8
0100
3E7C
7C3E
E007
C003
C003
C003
C003
E187
7FFE
3E7C
ENDCHAR
STARTCHAR 047D
ENCODING 1149
SWIDTH 936 0
DWIDTH 13 0
BBX 11 13 1 0
BITMAP
1F00
31C0
0400
0400
0000
6180
E1C0
C060
C060
C060
C460
FFC0
7B80
ENDCHAR
STARTCHAR 047E
ENCODING 1150
SWIDTH 1296 0
DWIDTH 18 0
BBX 16 13 1 0
BITMAP
07E0
0520
0000
3E7C
7C3E
E007
C003
C003
C183
C183
E387
7FFE
3E7C
ENDCHAR
STARTCHAR 047F
ENCODING 1151
SWIDTH 792 0
DWIDTH 11 0
BBX 11 11 0 0
BITMAP
3F00
2900
0000
CC60
CCC0
CCC0
6CC0
6F80
3F80
3B80
3B00
ENDCHAR
STARTCHAR 0480
ENCODING 1152
SWIDTH 720 0
DWIDTH 10 0
BBX 8 13 1 -3
BITMAP
3C
7E
E3
C3
C0
C0
C0
E0
78
38
18
18
18
ENDCHAR
STARTCHAR 0481
ENCODING 1153
SWIDTH 576 0
DWIDTH 8 0
BBX 6 11 1 -3
BITMAP
78
FC
CC
C0
C0
C0
F0
70
30
30
30
ENDCHAR
STARTCHAR 0482
ENCODING 1154
SWIDTH 576 0
DWIDTH 8 0
BBX 8 10 0 0
BITMAP
04
0C
7C
7F
1F
F8
FE
1E
30
30
ENDCHAR
STARTCHAR 0483
ENCODING 1155
SWIDTH 0 0
DWIDTH 0 0
BBX 4 3 -2 9
BITMAP
10
F0
80
ENDCHAR
STARTCHAR 0484
ENCODING 1156
SWIDTH 0 0
DWIDTH 0 0
BBX 4 2 -2 9
BITMAP
30
D0
ENDCHAR
STARTCHAR 0485
ENCODING 1157
SWIDTH 0 0
DWIDTH 0 0
BBX 2 3 -1 7
BITMAP
C0
80
40
ENDCHAR
STARTCHAR 0486
ENCODING 1158
SWIDTH 0 0
DWIDTH 0 0
BBX 2 3 -1 7
BITMAP
C0
40
80
ENDCHAR
STARTCHAR 0487
ENCODING 1159
SWIDTH 0 0
DWIDTH 0 0
BBX 8 2 -4 9
BITMAP
7C
C7
ENDCHAR
STARTCHAR 0488
ENCODING 1160
SWIDTH 0 0
DWIDTH 0 0
BBX 14 14 -7 -3
BITMAP
0300
0500
7038
5028
0000
0000
6018
A014
0000
0000
7038
5028
0300
0500
ENDCHAR
STARTCHAR 0489
ENCODING 1161
SWIDTH 0 0
DWIDTH 0 0
BBX 12 16 -6 -3
BITMAP
0400
0400
0420
4040
2000
0000
0000
C030
C030
0000
0040
2020
4000
0400
0400
0400
ENDCHAR
STARTCHAR 048A
ENCODING 1162
SWIDTH 720 0
DWIDTH 10 0
BBX 9 15 1 -2
BITMAP
2400
1800
0000
C300
C700
C700
CF00
DB00
DB00
F300
F300
E380
C380
0100
0300
ENDCHAR
STARTCHAR 048B
ENCODING 1163
SWIDTH 648 0
DWIDTH 9 0
BBX 7 13 1 -2
BITMAP
48
38
00
CE
CE
DE
D6
F6
E6
E6
C6
06
06
ENDCHAR
STARTCHAR 048C
ENCODING 1164
SWIDTH 720 0
DWIDTH 10 0
BBX 9 10 0 0
BITMAP
6000
6000
F000
6000
7F00
7F80
6180
6180
7F80
7F00
ENDCHAR
STARTCHAR 048D
ENCODING 1165
SWIDTH 648 0
DWIDTH 9 0
BBX 8 10 0 0
BITMAP
60
F0
F0
60
60
7E
7F
63
7F
7E
ENDCHAR
STARTCHAR 048E
ENCODING 1166
SWIDTH 648 0
DWIDTH 9 0
BBX 8 10 1 0
BITMAP
FC
FE
C7
CB
CF
FE
FF
C0
C0
C0
ENDCHAR
STARTCHAR 048F
ENCODING 1167
SWIDTH 648 0
DWIDTH 9 0
BBX 7 11 1 -3
BITMAP
DC
FC
C6
C6
CE
CE
FC
DE
C0
C0
C0
ENDCHAR
STARTCHAR 0490
ENCODING 1168
SWIDTH 504 0
DWIDTH 7 0
BBX 5 12 1 0
BITMAP
08
08
F8
F8
C0
C0
C0
C0
C0
C0
C0
C0
ENDCHAR
STARTCHAR 0491
ENCODING 1169
SWIDTH 432 0
DWIDTH 6 0
BBX 5 10 1 0
BITMAP
18
18
F8
F8
C0
C0
C0
C0
C0
C0
ENDCHAR
STARTCHAR 0492
ENCODING 1170
SWIDTH 576 0
DWIDTH 8 0
BBX 8 10 0 0
BITMAP
7F
7F
60
60
60
F8
F8
60
60
60
ENDCHAR
STARTCHAR 0493
ENCODING 1171
SWIDTH 432 0
DWIDTH 6 0
BBX 6 8 0 0
BITMAP
7C
7C
60
60
F0
F0
60
60
ENDCHAR
STARTCHAR 0494
ENCODING 1172
SWIDTH 720 0
DWIDTH 10 0
BBX 8 13 1 -3
BITMAP
FE
FE
C0
FC
FE
C7
C3
C3
C3
C3
07
FE
7C
ENDCHAR
STARTCHAR 0495
ENCODING 1173
SWIDTH 576 0
DWIDTH 8 0
BBX 7 11 1 -3
BITMAP
F8
F8
C0
F8
FC
C6
C6
C6
06
FC
78
ENDCHAR
STARTCHAR 0496
ENCODING 1174
SWIDTH 936 0
DWIDTH 13 0
BBX 12 12 0 -2
BITMAP
E630
F670
3660
36C0
1FC0
1FC0
36E0
7660
6670
E630
0010
0010
ENDCHAR
STARTCHAR 0497
ENCODING 1175
SWIDTH 720 0
DWIDTH 10 0
BBX 10 10 0 -2
BITMAP
CCC0
EDC0
6D00
3F00
3F00
6D80
6DC0
CCC0
00C0
00C0
ENDCHAR
STARTCHAR 0498
ENCODING 1176
SWIDTH 648 0
DWIDTH 9 0
BBX 8 13 0 -3
BITMAP
3C
7E
67
66
1C
03
43
E3
7F
3E
08
08
38
ENDCHAR
STARTCHAR 0499
ENCODING 1177
SWIDTH 504 0
DWIDTH 7 0
BBX 6 11 0 -3
BITMAP
38
7C
CC
18
0C
CC
7C
78
10
10
70
ENDCHAR
STARTCHAR 049A
ENCODING 1178
SWIDTH 648 0
DWIDTH 9 0
BBX 7 12 1 -2
BITMAP
C6
CE
CC
D8
F8
F8
DC
CC
CE
C6
02
02
ENDCHAR
STARTCHAR 049B
ENCODING 1179
SWIDTH 504 0
DWIDTH 7 0
BBX 6 10 1 -2
BITMAP
CC
DC
D8
F0
F0
D8
DC
CC
0C
0C
ENDCHAR
STARTCHAR 049C
ENCODING 1180
SWIDTH 648 0
DWIDTH 9 0
BBX 7 10 1 0
BITMAP
C6
EE
EC
D8
F8
F8
DC
EC
EE
C6
ENDCHAR
STARTCHAR 049D
ENCODING 1181
SWIDTH 504 0
DWIDTH 7 0
BBX 6 8 1 0
BITMAP
CC
FC
F8
F0
F0
F8
F8
CC
ENDCHAR
STARTCHAR 049E
ENCODING 1182
SWIDTH 648 0
DWIDTH 9 0
BBX 8 10 0 0
BITMAP
63
66
F4
6C
78
6C
66
66
67
63
ENDCHAR
STARTCHAR 049F
ENCODING 1183
SWIDTH 504 0
DWIDTH 7 0
BBX 7 10 0 0
BITMAP
60
F0
F6
6E
68
78
78
6C
6C
66
ENDCHAR
STARTCHAR 04A0
ENCODING 1184
SWIDTH 792 0
DWIDTH 11 0
BBX 10 10 0 0
BITMAP
F8C0
F980
1900
1B00
1E00
1B00
1980
1980
18C0
18C0
ENDCHAR
STARTCHAR 04A1
ENCODING 1185
SWIDTH 648 0
DWIDTH 9 0
BBX 8 8 0 0
BITMAP
FB
FB
1E
1E
1E
1E
1B
1B
ENDCHAR
STARTCHAR 04A2
ENCODING 1186
SWIDTH 720 0
DWIDTH 10 0
BBX 9 12 1 -2
BITMAP
C300
C300
C300
C300
FF00
FF00
C300
C300
C380
C380
0180
0180
ENDCHAR
STARTCHAR 04A3
ENCODING 1187
SWIDTH 576 0
DWIDTH 8 0
BBX 7 10 1 -2
BITMAP
C6
C6
C6
FE
FE
C6
C6
C6
02
02
ENDCHAR
STARTCHAR 04A4
ENCODING 1188
SWIDTH 864 0
DWIDTH 12 0
BBX 11 10 1 0
BITMAP
C3E0
C3E0
C300
C300
FF00
FF00
C300
C300
C300
C300
ENDCHAR
STARTCHAR 04A5
ENCODING 1189
SWIDTH 720 0
DWIDTH 10 0
BBX 9 8 1 0
BITMAP
C780
C780
C600
FE00
FE00
C600
C600
C600
ENDCHAR
STARTCHAR 04A6
ENCODING 1190
SWIDTH 1152 0
DWIDTH 16 0
BBX 14 13 1 -3
BITMAP
FF00
FF00
C300
C3F0
C3F8
C31C
C30C
C30C
C30C
C30C
0018
03F8
01F0
ENDCHAR
STARTCHAR 04A7
ENCODING 1191
SWIDTH 936 0
DWIDTH 13 0
BBX 12 11 1 -3
BITMAP
FC00
FC00
CC00
CFC0
CFE0
CC60
CC30
CC30
0060
07E0
03C0
ENDCHAR
STARTCHAR 04A8
ENCODING 1192
SWIDTH 720 0
DWIDTH 10 0
BBX 10 10 0 0
BITMAP
3C00
7800
6700
6F80
CD80
CD80
6D80
6F00
7FC0
3FC0
ENDCHAR
STARTCHAR 04A9
ENCODING 1193
SWIDTH 576 0
DWIDTH 8 0
BBX 8 8 0 0
BITMAP
30
70
6E
CA
DA
6E
7F
3F
ENDCHAR
STARTCHAR 04AA
ENCODING 1194
SWIDTH 720 0
DWIDTH 10 0
BBX 8 13 1 -3
BITMAP
3C
7F
E3
C3
C0
C0
C3
E3
7F
3C
08
08
38
ENDCHAR
STARTCHAR 04AB
ENCODING 1195
SWIDTH 576 0
DWIDTH 8 0
BBX 6 11 1 -3
BITMAP
78
FC
CC
C0
C0
CC
FC
78
10
10
70
ENDCHAR
STARTCHAR 04AC
ENCODING 1196
SWIDTH 648 0
DWIDTH 9 0
BBX 8 12 0 -2
BITMAP
FF
FF
18
18
18
18
18
18
1C
1C
0C
0C
ENDCHAR
STARTCHAR 04AD
ENCODING 1197
SWIDTH 504 0
DWIDTH 7 0
BBX 7 10 0 -2
BITMAP
FE
FE
30
30
30
30
38
38
08
08
ENDCHAR
STARTCHAR 04AE
ENCODING 1198
SWIDTH 576 0
DWIDTH 8 0
BBX 7 10 0 0
BITMAP
C6
66
6E
3C
3C
18
18
18
18
18
ENDCHAR
STARTCHAR 04AF
ENCODING 1199
SWIDTH 576 0
DWIDTH 8 0
BBX 7 11 0 -3
BITMAP
C2
66
66
64
3C
3C
38
18
18
18
18
ENDCHAR
STARTCHAR 04B0
ENCODING 1200
SWIDTH 576 0
DWIDTH 8 0
BBX 7 10 0 0
BITMAP
C6
66
6C
3C
FE
FE
18
18
18
18
ENDCHAR
STARTCHAR 04B1
ENCODING 1201
SWIDTH 576 0
DWIDTH 8 0
BBX 7 11 0 -3
BITMAP
C2
66
66
64
3C
3C
38
18
7E
7E
18
ENDCHAR
STARTCHAR 04B2
ENCODING 1202
SWIDTH 648 0
DWIDTH 9 0
BBX 9 12 0 -2
BITMAP
6380
7300
3600
1E00
1C00
1C00
3E00
3700
6380
E180
0080
0080
ENDCHAR
STARTCHAR 04B3
ENCODING 1203
SWIDTH 576 0
DWIDTH 8 0
BBX 8 10 0 -2
BITMAP
66
7C
3C
38
3C
3C
6F
E7
03
03
ENDCHAR
STARTCHAR 04B4
ENCODING 1204
SWIDTH 864 0
DWIDTH 12 0
BBX 12 12 0 -2
BITMAP
FE60
FE60
1860
1860
1860
1860
1860
1860
1FF0
1FF0
0030
0030
ENDCHAR
STARTCHAR 04B5
ENCODING 1205
SWIDTH 720 0
DWIDTH 10 0
BBX 9 10 0 -2
BITMAP
FD80
FD80
3180
3180
3180
3180
3F80
3F80
0080
0080
ENDCHAR
STARTCHAR 04B6
ENCODING 1206
SWIDTH 720 0
DWIDTH 10 0
BBX 9 12 1 -2
BITMAP
C300
C300
C300
C300
C300
FF00
7F00
0300
0380
0380
0180
0180
ENDCHAR
STARTCHAR 04B7
ENCODING 1207
SWIDTH 576 0
DWIDTH 8 0
BBX 7 10 1 -2
BITMAP
CC
CC
CC
FC
7C
0C
0E
0E
06
06
ENDCHAR
STARTCHAR 04B8
ENCODING 1208
SWIDTH 720 0
DWIDTH 10 0
BBX 8 10 1 0
BITMAP
C3
C3
D3
D3
D3
FF
7F
13
03
03
ENDCHAR
STARTCHAR 04B9
ENCODING 1209
SWIDTH 576 0
DWIDTH 8 0
BBX 6 8 1 0
BITMAP
CC
EC
EC
FC
7C
2C
2C
0C
ENDCHAR
STARTCHAR 04BA
ENCODING 1210
SWIDTH 720 0
DWIDTH 10 0
BBX 8 10 1 0
BITMAP
C0
C0
C0
FE
FF
C3
C3
C3
C3
C3
ENDCHAR
STARTCHAR 04BB
ENCODING 1211
SWIDTH 648 0
DWIDTH 9 0
BBX 7 10 1 0
BITMAP
C0
C0
DC
FC
CE
C6
C6
C6
C6
C6
ENDCHAR
STARTCHAR 04BC
ENCODING 1212
SWIDTH 864 0
DWIDTH 12 0
BBX 11 10 0 0
BITMAP
0780
1FC0
D860
D860
FFE0
7FE0
1800
1860
0FE0
0780
ENDCHAR
STARTCHAR 04BD
ENCODING 1213
SWIDTH 720 0
DWIDTH 10 0
BBX 9 8 0 0
BITMAP
0E00
9F00
B180
FF80
7F80
3000
1F80
0F00
ENDCHAR
STARTCHAR 04BE
ENCODING 1214
SWIDTH 864 0
DWIDTH 12 0
BBX 11 12 0 -2
BITMAP
0780
1FC0
D860
D860
FFE0
7FE0
1800
1860
1FE0
07C0
0300
0300
ENDCHAR
STARTCHAR 04BF
ENCODING 1215
SWIDTH 720 0
DWIDTH 10 0
BBX 9 10 0 -2
BITMAP
0E00
9F00
B180
7F80
3000
3980
1F00
0F00
0400
0400
ENDCHAR
STARTCHAR 04C0
ENCODING 1216
SWIDTH 288 0
DWIDTH 4 0
BBX 2 10 1 0
BITMAP
C0
C0
C0
C0
C0
C0
C0
C0
C0
C0
ENDCHAR
STARTCHAR 04C1
ENCODING 1217
SWIDTH 936 0
DWIDTH 13 0
BBX 12 13 0 0
BITMAP
0900
0700
0000
E630
3660
3640
16C0
1F80
3EC0
3660
7660
6630
E630
ENDCHAR
STARTCHAR 04C2
ENCODING 1218
SWIDTH 720 0
DWIDTH 10 0
BBX 10 11 0 0
BITMAP
1200
0E00
0000
CCC0
EDC0
6D00
3F00
3F00
6D80
6D80
CCC0
ENDCHAR
STARTCHAR 04C3
ENCODING 1219
SWIDTH 720 0
DWIDTH 10 0
BBX 8 13 1 -3
BITMAP
C6
CC
C8
D8
FC
C6
C3
C3
C3
C3
07
FE
7C
ENDCHAR
STARTCHAR 04C4
ENCODING 1220
SWIDTH 576 0
DWIDTH 8 0
BBX 7 11 1 -3
BITMAP
CC
DC
D0
FC
FE
C6
C6
C6
06
FC
78
ENDCHAR
STARTCHAR 04C5
ENCODING 1221
SWIDTH 720 0
DWIDTH 10 0
BBX 10 12 0 -2
BITMAP
3F80
3F80
3180
3180
3180
3180
3180
3180
F1C0
E180
0180
0180
ENDCHAR
STARTCHAR 04C6
ENCODING 1222
SWIDTH 648 0
DWIDTH 9 0
BBX 9 10 0 -2
BITMAP
3F00
3F00
2300
2300
2300
2300
E380
E300
0100
0300
ENDCHAR
STARTCHAR 04C7
ENCODING 1223
SWIDTH 720 0
DWIDTH 10 0
BBX 8 13 1 -3
BITMAP
C3
C3
C3
C3
FF
FF
C3
C3
C3
C3
07
FE
7C
ENDCHAR
STARTCHAR 04C8
ENCODING 1224
SWIDTH 576 0
DWIDTH 8 0
BBX 7 11 1 -3
BITMAP
C6
C6
C6
FE
FE
C6
C6
C6
0C
FC
78
ENDCHAR
STARTCHAR 04C9
ENCODING 1225
SWIDTH 720 0
DWIDTH 10 0
BBX 9 12 1 -2
BITMAP
C300
C300
C300
C300
FF00
FF00
C300
C300
C380
C380
0100
0300
ENDCHAR
STARTCHAR 04CA
ENCODING 1226
SWIDTH 576 0
DWIDTH 8 0
BBX 7 10 1 -2
BITMAP
C6
C6
C6
FE
FE
C6
C6
C6
06
04
ENDCHAR
STARTCHAR 04CB
ENCODING 1227
SWIDTH 720 0
DWIDTH 10 0
BBX 8 12 1 -2
BITMAP
C3
C3
C3
C3
C3
FF
7F
03
07
07
06
06
ENDCHAR
STARTCHAR 04CC
ENCODING 1228
SWIDTH 576 0
DWIDTH 8 0
BBX 6 10 1 -2
BITMAP
CC
CC
CC
FC
7C
0C
0C
0C
08
08
ENDCHAR
STARTCHAR 04CD
ENCODING 1229
SWIDTH 864 0
DWIDTH 12 0
BBX 11 12 1 -2
BITMAP
E1C0
E3C0
F3C0
F2C0
F6C0
D6C0
DEC0
DCC0
DCE0
CCC0
00C0
00C0
ENDCHAR
STARTCHAR 04CE
ENCODING 1230
SWIDTH 720 0
DWIDTH 10 0
BBX 9 10 1 -2
BITMAP
E300
E300
E700
E500
F500
D500
D980
D980
0180
0100
ENDCHAR
STARTCHAR 04CF
ENCODING 1231
SWIDTH 288 0
DWIDTH 4 0
BBX 2 10 1 0
BITMAP
C0
C0
C0
C0
C0
C0
C0
C0
C0
C0
ENDCHAR
STARTCHAR 04D0
ENCODING 1232
SWIDTH 720 0
DWIDTH 10 0
BBX 10 13 0 0
BITMAP
1200
0E00
0000
0C00
1E00
1E00
1600
3300
3300
7F80
7F80
6180
C0C0
ENDCHAR
STARTCHAR 04D1
ENCODING 1233
SWIDTH 576 0
DWIDTH 8 0
BBX 6 11 1 0
BITMAP
90
70
00
78
FC
0C
3C
CC
CC
FC
EC
ENDCHAR
STARTCHAR 04D2
ENCODING 1234
SWIDTH 720 0
DWIDTH 10 0
BBX 10 12 0 0
BITMAP
1B00
0000
0C00
1E00
1E00
1600
3300
3300
7F80
7F80
6180
C0C0
ENDCHAR
STARTCHAR 04D3
ENCODING 1235
SWIDTH 576 0
DWIDTH 8 0
BBX 6 10 1 0
BITMAP
6C
00
78
FC
0C
3C
CC
CC
FC
EC
ENDCHAR
STARTCHAR 04D4
ENCODING 1236
SWIDTH 1008 0
DWIDTH 14 0
BBX 13 10 0 0
BITMAP
0FF8
1BF8
1B00
3300
33F8
33F8
7F00
7F00
C3F8
C3F8
ENDCHAR
STARTCHAR 04D5
ENCODING 1237
SWIDTH 864 0
DWIDTH 12 0
BBX 11 8 1 0
BITMAP
7B80
FFC0
CC60
3FE0
CC00
CC60
FFC0
F380
ENDCHAR
STARTCHAR 04D6
ENCODING 1238
SWIDTH 648 0
DWIDTH 9 0
BBX 8 13 1 0
BITMAP
48
38
00
FE
FE
C0
C0
FE
FE
C0
C0
FF
FF
ENDCHAR
STARTCHAR 04D7
ENCODING 1239
SWIDTH 576 0
DWIDTH 8 0
BBX 7 11 0 0
BITMAP
24
1C
00
3C
7E
66
FE
FE
60
7E
3C
ENDCHAR
STARTCHAR 04D8
ENCODING 1240
SWIDTH 720 0
DWIDTH 10 0
BBX 9 10 1 0
BITMAP
3C00
FE00
C300
0300
FF80
FF80
C300
E300
7F00
3C00
ENDCHAR
STARTCHAR 04D9
ENCODING 1241
SWIDTH 576 0
DWIDTH 8 0
BBX 6 8 1 0
BITMAP
78
FC
CC
0C
FC
CC
FC
78
ENDCHAR
STARTCHAR 04DA
ENCODING 1242
SWIDTH 720 0
DWIDTH 10 0
BBX 9 12 1 0
BITMAP
3600
0000
3C00
FE00
C300
0300
FF80
FF80
C300
E300
7F00
3C00
ENDCHAR
STARTCHAR 04DB
ENCODING 1243
SWIDTH 576 0
DWIDTH 8 0
BBX 6 10 1 0
BITMAP
D8
00
78
FC
CC
0C
FC
CC
FC
78
ENDCHAR
STARTCHAR 04DC
ENCODING 1244
SWIDTH 936 0
DWIDTH 13 0
BBX 12 12 0 0
BITMAP
0D80
0000
E630
3660
3640
16C0
1F80
3EC0
3660
7660
6630
E630
ENDCHAR
STARTCHAR 04DD
ENCODING 1245
SWIDTH 720 0
DWIDTH 10 0
BBX 10 10 0 0
BITMAP
1B00
0000
CCC0
EDC0
6D00
3F00
3F00
6D80
6D80
CCC0
ENDCHAR
STARTCHAR 04DE
ENCODING 1246
SWIDTH 648 0
DWIDTH 9 0
BBX 8 12 0 0
BITMAP
36
00
3C
7E
67
66
1C
03
43
E3
7F
3E
ENDCHAR
STARTCHAR 04DF
ENCODING 1247
SWIDTH 504 0
DWIDTH 7 0
BBX 6 10 0 0
BITMAP
6C
00
38
7C
4C
18
1C
C4
7C
38
ENDCHAR
STARTCHAR 04E0
ENCODING 1248
SWIDTH 648 0
DWIDTH 9 0
BBX 7 10 1 0
BITMAP
FE
FE
0C
18
3C
3E
06
C6
FE
78
ENDCHAR
STARTCHAR 04E1
ENCODING 1249
SWIDTH 504 0
DWIDTH 7 0
BBX 7 11 0 -3
BITMAP
7E
7E
0C
18
1C
06
06
06
C6
7E
3C
ENDCHAR
STARTCHAR 04E2
ENCODING 1250
SWIDTH 720 0
DWIDTH 10 0
BBX 8 12 1 0
BITMAP
3E
00
C3
C7
C7
CF
DB
DB
F3
F3
E3
C3
ENDCHAR
STARTCHAR 04E3
ENCODING 1251
SWIDTH 648 0
DWIDTH 9 0
BBX 7 10 1 0
BITMAP
7C
00
C6
CE
D6
D6
E6
E6
E6
C6
ENDCHAR
STARTCHAR 04E4
ENCODING 1252
SWIDTH 720 0
DWIDTH 10 0
BBX 8 12 1 0
BITMAP
36
00
C3
C7
C7
CF
DB
DB
F3
F3
E3
C3
ENDCHAR
STARTCHAR 04E5
ENCODING 1253
SWIDTH 648 0
DWIDTH 9 0
BBX 7 10 1 0
BITMAP
6C
00
C6
CE
D6
D6
E6
E6
E6
C6
ENDCHAR
STARTCHAR 04E6
ENCODING 1254
SWIDTH 792 0
DWIDTH 11 0
BBX 9 12 1 0
BITMAP
3600
0000
3E00
7F00
E380
C180
C180
C180
C180
E380
7F00
3E00
ENDCHAR
STARTCHAR 04E7
ENCODING 1255
SWIDTH 648 0
DWIDTH 9 0
BBX 7 10 1 0
BITMAP
6C
00
78
FC
C6
C6
C6
C6
FC
78
ENDCHAR
STARTCHAR 04E8
ENCODING 1256
SWIDTH 792 0
DWIDTH 11 0
BBX 9 10 1 0
BITMAP
3E00
7F00
E380
C180
FF80
FF80
C180
E380
7F00
3E00
ENDCHAR
STARTCHAR 04E9
ENCODING 1257
SWIDTH 648 0
DWIDTH 9 0
BBX 7 8 1 0
BITMAP
78
FC
C6
FE
C6
CE
FC
78
ENDCHAR
STARTCHAR 04EA
ENCODING 1258
SWIDTH 792 0
DWIDTH 11 0
BBX 9 12 1 0
BITMAP
3600
0000
3E00
7F00
E380
C180
FF80
FF80
C180
E380
7F00
3E00
ENDCHAR
STARTCHAR 04EB
ENCODING 1259
SWIDTH 648 0
DWIDTH 9 0
BBX 7 10 1 0
BITMAP
6C
00
78
FC
C6
FE
C6
CE
FC
78
ENDCHAR
STARTCHAR 04EC
ENCODING 1260
SWIDTH 720 0
DWIDTH 10 0
BBX 8 12 1 0
BITMAP
6C
00
7C
FE
47
03
1F
1F
03
47
FE
7C
ENDCHAR
STARTCHAR 04ED
ENCODING 1261
SWIDTH 576 0
DWIDTH 8 0
BBX 6 10 1 0
BITMAP
D8
00
78
FC
CC
3C
3C
8C
FC
78
ENDCHAR
STARTCHAR 04EE
ENCODING 1262
SWIDTH 648 0
DWIDTH 9 0
BBX 8 12 0 0
BITMAP
3E
00
E3
63
77
36
1E
1C
0C
18
78
70
ENDCHAR
STARTCHAR 04EF
ENCODING 1263
SWIDTH 576 0
DWIDTH 8 0
BBX 7 13 0 -3
BITMAP
3E
00
C6
66
66
64
3C
3C
38
18
18
30
70
ENDCHAR
STARTCHAR 04F0
ENCODING 1264
SWIDTH 648 0
DWIDTH 9 0
BBX 8 12 0 0
BITMAP
36
00
E3
63
77
36
1E
1C
0C
18
78
70
ENDCHAR
STARTCHAR 04F1
ENCODING 1265
SWIDTH 576 0
DWIDTH 8 0
BBX 7 13 0 -3
BITMAP
36
00
C6
66
66
64
3C
3C
38
18
18
30
70
ENDCHAR
STARTCHAR 04F2
ENCODING 1266
SWIDTH 648 0
DWIDTH 9 0
BBX 8 13 0 0
BITMAP
1B
16
00
E3
63
77
36
1E
1C
0C
18
78
70
ENDCHAR
STARTCHAR 04F3
ENCODING 1267
SWIDTH 576 0
DWIDTH 8 0
BBX 7 14 0 -3
BITMAP
36
2C
00
C6
66
66
64
3C
3C
38
18
18
30
70
ENDCHAR
STARTCHAR 04F4
ENCODING 1268
SWIDTH 720 0
DWIDTH 10 0
BBX 8 12 1 0
BITMAP
6C
00
C3
C3
C3
C3
C3
FF
7F
03
03
03
ENDCHAR
STARTCHAR 04F5
ENCODING 1269
SWIDTH 576 0
DWIDTH 8 0
BBX 6 10 1 0
BITMAP
6C
00
CC
CC
CC
FC
7C
0C
0C
0C
ENDCHAR
STARTCHAR 04F6
ENCODING 1270
SWIDTH 576 0
DWIDTH 8 0
BBX 7 12 1 -2
BITMAP
FE
FE
C0
C0
C0
C0
C0
C0
E0
E0
60
60
ENDCHAR
STARTCHAR 04F7
ENCODING 1271
SWIDTH 432 0
DWIDTH 6 0
BBX 5 10 1 -2
BITMAP
F8
F8
C0
C0
C0
C0
E0
E0
60
60
ENDCHAR
STARTCHAR 04F8
ENCODING 1272
SWIDTH 1008 0
DWIDTH 14 0
BBX 12 12 1 0
BITMAP
1B00
0000
C030
C030
C030
C030
FE30
FF30
C330
C330
FF30
FE30
ENDCHAR
STARTCHAR 04F9
ENCODING 1273
SWIDTH 864 0
DWIDTH 12 0
BBX 10 10 1 0
BITMAP
3600
0000
C0C0
C0C0
C0C0
FCC0
FEC0
C6C0
FEC0
FCC0
ENDCHAR
STARTCHAR 04FA
ENCODING 1274
SWIDTH 576 0
DWIDTH 8 0
BBX 8 13 0 -3
BITMAP
7F
7F
60
60
60
F8
60
60
70
70
30
30
60
ENDCHAR
STARTCHAR 04FB
ENCODING 1275
SWIDTH 432 0
DWIDTH 6 0
BBX 6 11 0 -3
BITMAP
7C
7C
60
60
F0
60
60
60
20
20
60
ENDCHAR
STARTCHAR 04FC
ENCODING 1276
SWIDTH 648 0
DWIDTH 9 0
BBX 9 13 0 -3
BITMAP
6380
7300
3600
3E00
1C00
1C00
3E00
3700
6300
E380
0180
0180
0380
ENDCHAR
STARTCHAR 04FD
ENCODING 1277
SWIDTH 576 0
DWIDTH 8 0
BBX 8 11 0 -3
BITMAP
E6
6C
3C
38
38
3C
6E
E6
07
03
0E
ENDCHAR
STARTCHAR 04FE
ENCODING 1278
SWIDTH 648 0
DWIDTH 9 0
BBX 9 10 0 0
BITMAP
6380
7300
3600
1E00
7F00
1E00
3E00
7700
6300
E180
ENDCHAR
STARTCHAR 04FF
ENCODING 1279
SWIDTH 576 0
DWIDTH 8 0
BBX 7 8 0 0
BITMAP
66
6C
3C
7E
3C
7C
6E
E6
ENDCHAR
STARTCHAR 0500
ENCODING 1280
SWIDTH 720 0
DWIDTH 10 0
BBX 8 10 1 0
BITMAP
03
03
03
03
7F
FF
C3
C3
FF
7F
ENDCHAR
STARTCHAR 0501
ENCODING 1281
SWIDTH 648 0
DWIDTH 9 0
BBX 7 10 1 0
BITMAP
06
06
76
FE
CE
C6
C6
CE
FE
76
ENDCHAR
STARTCHAR 0502
ENCODING 1282
SWIDTH 1008 0
DWIDTH 14 0
BBX 13 10 1 0
BITMAP
0300
0300
0300
0300
7F18
FF18
C318
C338
FFF0
7DE0
ENDCHAR
STARTCHAR 0503
ENCODING 1283
SWIDTH 936 0
DWIDTH 13 0
BBX 11 10 1 0
BITMAP
0600
0600
7600
FE00
CE00
C660
C660
CE60
FFE0
73C0
ENDCHAR
STARTCHAR 0504
ENCODING 1284
SWIDTH 936 0
DWIDTH 13 0
BBX 12 10 1 0
BITMAP
7800
FC00
CE00
CC00
3C30
0630
0630
0670
07E0
03C0
ENDCHAR
STARTCHAR 0505
ENCODING 1285
SWIDTH 864 0
DWIDTH 12 0
BBX 11 8 0 0
BITMAP
3800
7C00
CC00
1860
0C60
0660
07E0
03C0
ENDCHAR
STARTCHAR 0506
ENCODING 1286
SWIDTH 648 0
DWIDTH 9 0
BBX 8 12 1 -2
BITMAP
78
FC
CE
CC
3C
06
06
06
07
07
03
03
ENDCHAR
STARTCHAR 0507
ENCODING 1287
SWIDTH 576 0
DWIDTH 8 0
BBX 7 10 0 -2
BITMAP
38
7C
CC
18
0C
0C
0E
0E
02
02
ENDCHAR
STARTCHAR 0508
ENCODING 1288
SWIDTH 1008 0
DWIDTH 14 0
BBX 13 10 0 0
BITMAP
3F80
3F80
3180
3180
3198
3198
3198
3198
F1F8
E0F0
ENDCHAR
STARTCHAR 0509
ENCODING 1289
SWIDTH 936 0
DWIDTH 13 0
BBX 13 8 0 0
BITMAP
3F00
3F00
2300
2318
2318
2330
E3F0
E1E0
ENDCHAR
STARTCHAR 050A
ENCODING 1290
SWIDTH 1008 0
DWIDTH 14 0
BBX 13 10 1 0
BITMAP
C300
C300
C300
C300
FF18
FF18
C318
C338
C3F0
C1E0
ENDCHAR
STARTCHAR 050B
ENCODING 1291
SWIDTH 936 0
DWIDTH 13 0
BBX 11 8 1 0
BITMAP
C600
C600
C600
FE60
FE60
C660
C7E0
C3C0
ENDCHAR
STARTCHAR 050C
ENCODING 1292
SWIDTH 792 0
DWIDTH 11 0
BBX 9 10 1 0
BITMAP
3E00
7F00
E380
C180
C000
C780
C780
E180
7F00
3E00
ENDCHAR
STARTCHAR 050D
ENCODING 1293
SWIDTH 576 0
DWIDTH 8 0
BBX 7 8 1 0
BITMAP
7C
FE
C0
DE
DE
C4
FC
78
ENDCHAR
STARTCHAR 050E
ENCODING 1294
SWIDTH 792 0
DWIDTH 11 0
BBX 10 10 0 0
BITMAP
FF00
FF00
1800
1800
18C0
18C0
18C0
1CC0
0FC0
0F80
ENDCHAR
STARTCHAR 050F
ENCODING 1295
SWIDTH 720 0
DWIDTH 10 0
BBX 9 8 0 0
BITMAP
FE00
FE00
3000
3180
3180
1980
1F80
0F00
ENDCHAR
STARTCHAR 0510
ENCODING 1296
SWIDTH 648 0
DWIDTH 9 0
BBX 7 10 1 0
BITMAP
7C
FE
C6
46
70
C0
C6
C6
FE
7C
ENDCHAR
STARTCHAR 0511
ENCODING 1297
SWIDTH 504 0
DWIDTH 7 0
BBX 6 8 1 0
BITMAP
70
F8
C8
60
C0
CC
F8
78
ENDCHAR
STARTCHAR 0512
ENCODING 1298
SWIDTH 720 0
DWIDTH 10 0
BBX 9 13 0 -3
BITMAP
3F80
3F80
3180
3180
3180
3180
3180
3180
3180
E180
0180
0180
0700
ENDCHAR
STARTCHAR 0513
ENCODING 1299
SWIDTH 648 0
DWIDTH 9 0
BBX 8 11 0 -3
BITMAP
3F
3F
23
23
23
23
63
E3
03
03
06
ENDCHAR
STARTCHAR 051A
ENCODING 1306
SWIDTH 792 0
DWIDTH 11 0
BBX 9 11 1 -1
BITMAP
3E00
7F00
E380
C180
C180
C180
CD80
E780
7F80
3F80
0080
ENDCHAR
STARTCHAR 051B
ENCODING 1307
SWIDTH 648 0
DWIDTH 9 0
BBX 7 11 1 -3
BITMAP
76
FE
CE
C6
C6
CE
FE
76
06
06
06
ENDCHAR
STARTCHAR 051C
ENCODING 1308
SWIDTH 936 0
DWIDTH 13 0
BBX 13 10 0 0
BITMAP
C718
C718
6798
65B0
6DB0
6DB0
3CF0
38E0
38E0
38E0
ENDCHAR
STARTCHAR 051D
ENCODING 1309
SWIDTH 792 0
DWIDTH 11 0
BBX 11 8 0 0
BITMAP
CE60
CE40
6EC0
6AC0
7AC0
3B80
3B80
3180
ENDCHAR
STARTCHAR 0591
ENCODING 1425
SWIDTH 0 0
DWIDTH 0 0
BBX 2 3 -1 -3
BITMAP
80
C0
C0
ENDCHAR
STARTCHAR 0592
ENCODING 1426
SWIDTH 0 0
DWIDTH 0 0
BBX 4 2 -2 9
BITMAP
60
90
ENDCHAR
STARTCHAR 0593
ENCODING 1427
SWIDTH 0 0
DWIDTH 0 0
BBX 2 4 -1 10
BITMAP
80
40
80
40
ENDCHAR
STARTCHAR 0594
ENCODING 1428
SWIDTH 0 0
DWIDTH 0 0
BBX 2 3 -1 9
BITMAP
C0
00
C0
ENDCHAR
STARTCHAR 0595
ENCODING 1429
SWIDTH 0 0
DWIDTH 0 0
BBX 2 3 -1 9
BITMAP
C0
80
C0
ENDCHAR
STARTCHAR 0596
ENCODING 1430
SWIDTH 0 0
DWIDTH 0 0
BBX 2 2 -1 -3
BITMAP
80
C0
ENDCHAR
STARTCHAR 0597
ENCODING 1431
SWIDTH 0 0
DWIDTH 0 0
BBX 2 3 -1 9
BITMAP
80
C0
80
ENDCHAR
STARTCHAR 0598
ENCODING 1432
SWIDTH 0 0
DWIDTH 0 0
BBX 4 2 -2 9
BITMAP
D0
B0
ENDCHAR
STARTCHAR 0599
ENCODING 1433
SWIDTH 0 0
DWIDTH 0 0
BBX 2 3 -2 9
BITMAP
80
40
40
ENDCHAR
STARTCHAR 059A
ENCODING 1434
SWIDTH 0 0
DWIDTH 0 0
BBX 2 3 0 -3
BITMAP
40
80
40
ENDCHAR
STARTCHAR 059B
ENCODING 1435
SWIDTH 0 0
DWIDTH 0 0
BBX 2 2 -1 -3
BITMAP
C0
C0
ENDCHAR
STARTCHAR 059C
ENCODING 1436
SWIDTH 0 0
DWIDTH 0 0
BBX 2 3 -1 9
BITMAP
40
80
80
ENDCHAR
STARTCHAR 059D
ENCODING 1437
SWIDTH 0 0
DWIDTH 0 0
BBX 2 3 0 9
BITMAP
40
80
80
ENDCHAR
STARTCHAR 059E
ENCODING 1438
SWIDTH 0 0
DWIDTH 0 0
BBX 4 3 -2 9
BITMAP
D0
A0
A0
ENDCHAR
STARTCHAR 059F
ENCODING 1439
SWIDTH 0 0
DWIDTH 0 0
BBX 8 3 -4 9
BITMAP
C3
A5
E7
ENDCHAR
STARTCHAR 05A0
ENCODING 1440
SWIDTH 0 0
DWIDTH 0 0
BBX 4 3 0 9
BITMAP
60
90
E0
ENDCHAR
STARTCHAR 05A1
ENCODING 1441
SWIDTH 0 0
DWIDTH 0 0
BBX 2 3 -1 9
BITMAP
C0
C0
80
ENDCHAR
STARTCHAR 05A2
ENCODING 1442
SWIDTH 0 0
DWIDTH 0 0
BBX 2 3 -1 -3
BITMAP
C0
C0
80
ENDCHAR
STARTCHAR 05A3
ENCODING 1443
SWIDTH 0 0
DWIDTH 0 0
BBX 2 2 -1 -3
BITMAP
40
C0
ENDCHAR
STARTCHAR 05A4
ENCODING 1444
SWIDTH 0 0
DWIDTH 0 0
BBX 2 3 -1 -3
BITMAP
40
80
40
ENDCHAR
STARTCHAR 05A5
ENCODING 1445
SWIDTH 0 0
DWIDTH 0 0
BBX 2 2 -1 -3
BITMAP
40
C0
ENDCHAR
STARTCHAR 05A6
ENCODING 1446
SWIDTH 0 0
DWIDTH 0 0
BBX 4 2 -2 -3
BITMAP
50
B0
ENDCHAR
STARTCHAR 05A7
ENCODING 1447
SWIDTH 0 0
DWIDTH 0 0
BBX 2 3 -1 -3
BITMAP
C0
80
C0
ENDCHAR
STARTCHAR 05A8
ENCODING 1448
SWIDTH 0 0
DWIDTH 0 0
BBX 2 3 -1 9
BITMAP
80
40
40
ENDCHAR
STARTCHAR 05A9
ENCODING 1449
SWIDTH 0 0
DWIDTH 0 0
BBX 4 3 -4 9
BITMAP
60
A0
70
ENDCHAR
STARTCHAR 05AA
ENCODING 1450
SWIDTH 0 0
DWIDTH 0 0
BBX 2 3 -1 -3
BITMAP
C0
C0
80
ENDCHAR
STARTCHAR 05AB
ENCODING 1451
SWIDTH 0 0
DWIDTH 0 0
BBX 2 3 -1 9
BITMAP
40
80
40
ENDCHAR
STARTCHAR 05AC
ENCODING 1452
SWIDTH 0 0
DWIDTH 0 0
BBX 2 2 -1 9
BITMAP
40
C0
ENDCHAR
STARTCHAR 05AD
ENCODING 1453
SWIDTH 0 0
DWIDTH 0 0
BBX 2 2 0 -3
BITMAP
80
40
ENDCHAR
STARTCHAR 05AE
ENCODING 1454
SWIDTH 0 0
DWIDTH 0 0
BBX 4 2 -4 9
BITMAP
D0
B0
ENDCHAR
STARTCHAR 05AF
ENCODING 1455
SWIDTH 0 0
DWIDTH 0 0
BBX 2 3 -1 9
BITMAP
C0
C0
C0
ENDCHAR
STARTCHAR 05B0
ENCODING 1456
SWIDTH 0 0
DWIDTH 0 0
BBX 1 3 2 -3
BITMAP
80
00
80
ENDCHAR
STARTCHAR 05B1
ENCODING 1457
SWIDTH 0 0
DWIDTH 0 0
BBX 4 3 0 -3
BITMAP
B0
00
50
ENDCHAR
STARTCHAR 05B2
ENCODING 1458
SWIDTH 0 0
DWIDTH 0 0
BBX 4 3 0 -3
BITMAP
F0
00
10
ENDCHAR
STARTCHAR 05B3
ENCODING 1459
SWIDTH 0 0
DWIDTH 0 0
BBX 4 3 0 -3
BITMAP
F0
40
10
ENDCHAR
STARTCHAR 05B4
ENCODING 1460
SWIDTH 0 0
DWIDTH 0 0
BBX 1 1 2 -2
BITMAP
80
ENDCHAR
STARTCHAR 05B5
ENCODING 1461
SWIDTH 0 0
DWIDTH 0 0
BBX 3 1 1 -2
BITMAP
A0
ENDCHAR
STARTCHAR 05B6
ENCODING 1462
SWIDTH 0 0
DWIDTH 0 0
BBX 3 3 1 -3
BITMAP
A0
00
40
ENDCHAR
STARTCHAR 05B7
ENCODING 1463
SWIDTH 0 0
DWIDTH 0 0
BBX 3 1 1 -2
BITMAP
E0
ENDCHAR
STARTCHAR 05B8
ENCODING 1464
SWIDTH 0 0
DWIDTH 0 0
BBX 3 2 1 -3
BITMAP
E0
40
ENDCHAR
STARTCHAR 05B9
ENCODING 1465
SWIDTH 0 0
DWIDTH 0 0
BBX 1 1 2 9
BITMAP
80
ENDCHAR
STARTCHAR 05BA
ENCODING 1466
SWIDTH 0 0
DWIDTH 0 0
BBX 1 1 -2 9
BITMAP
80
ENDCHAR
STARTCHAR 05BB
ENCODING 1467
SWIDTH 0 0
DWIDTH 0 0
BBX 5 3 0 -3
BITMAP
80
20
18
ENDCHAR
STARTCHAR 05BC
ENCODING 1468
SWIDTH 0 0
DWIDTH 0 0
BBX 1 1 2 3
BITMAP
80
ENDCHAR
STARTCHAR 05BD
ENCODING 1469
SWIDTH 0 0
DWIDTH 0 0
BBX 1 2 2 -3
BITMAP
80
80
ENDCHAR
STARTCHAR 05BE
ENCODING 1470
SWIDTH 432 0
DWIDTH 6 0
BBX 4 2 1 6
BITMAP
F0
F0
ENDCHAR
STARTCHAR 05BF
ENCODING 1471
SWIDTH 0 0
DWIDTH 0 0
BBX 3 1 1 9
BITMAP
E0
ENDCHAR
STARTCHAR 05C0
ENCODING 1472
SWIDTH 288 0
DWIDTH 4 0
BBX 2 10 1 -1
BITMAP
C0
C0
C0
C0
C0
C0
C0
C0
C0
C0
ENDCHAR
STARTCHAR 05C1
ENCODING 1473
SWIDTH 0 0
DWIDTH 0 0
BBX 1 1 5 9
BITMAP
80
ENDCHAR
STARTCHAR 05C2
ENCODING 1474
SWIDTH 0 0
DWIDTH 0 0
BBX 1 1 -2 9
BITMAP
80
ENDCHAR
STARTCHAR 05C3
ENCODING 1475
SWIDTH 360 0
DWIDTH 5 0
BBX 2 8 1 0
BITMAP
C0
C0
00
00
00
00
C0
C0
ENDCHAR
STARTCHAR 05C4
ENCODING 1476
SWIDTH 0 0
DWIDTH 0 0
BBX 1 1 2 9
BITMAP
80
ENDCHAR
STARTCHAR 05C5
ENCODING 1477
SWIDTH 0 0
DWIDTH 0 0
BBX 2 1 -1 -2
BITMAP
C0
ENDCHAR
STARTCHAR 05C6
ENCODING 1478
SWIDTH 360 0
DWIDTH 5 0
BBX 4 8 1 0
BITMAP
70
F0
C0
C0
C0
C0
F0
F0
ENDCHAR
STARTCHAR 05C7
ENCODING 1479
SWIDTH 0 0
DWIDTH 0 0
BBX 2 3 -1 -3
BITMAP
C0
80
80
ENDCHAR
STARTCHAR 05D0
ENCODING 1488
SWIDTH 576 0
DWIDTH 8 0
BBX 7 8 1 0
BITMAP
C4
64
6C
FC
F8
D8
CC
CE
ENDCHAR
STARTCHAR 05D1
ENCODING 1489
SWIDTH 576 0
DWIDTH 8 0
BBX 8 8 0 0
BITMAP
F8
7C
0C
0C
04
04
7F
7F
ENDCHAR
STARTCHAR 05D2
ENCODING 1490
SWIDTH 432 0
DWIDTH 6 0
BBX 6 8 0 0
BITMAP
70
78
18
18
38
78
6C
CC
ENDCHAR
STARTCHAR 05D3
ENCODING 1491
SWIDTH 576 0
DWIDTH 8 0
BBX 7 8 0 0
BITMAP
FE
FE
0C
0C
0C
0C
0C
0C
ENDCHAR
STARTCHAR 05D4
ENCODING 1492
SWIDTH 648 0
DWIDTH 9 0
BBX 7 8 1 0
BITMAP
F8
FC
0E
06
C6
C6
C6
C6
ENDCHAR
STARTCHAR 05D5
ENCODING 1493
SWIDTH 288 0
DWIDTH 4 0
BBX 2 8 1 0
BITMAP
C0
C0
C0
C0
C0
C0
C0
C0
ENDCHAR
STARTCHAR 05D6
ENCODING 1494
SWIDTH 432 0
DWIDTH 6 0
BBX 5 8 1 0
BITMAP
F8
F8
60
40
60
60
60
60
ENDCHAR
STARTCHAR 05D7
ENCODING 1495
SWIDTH 648 0
DWIDTH 9 0
BBX 7 8 1 0
BITMAP
F8
FC
CE
C6
C6
C6
C6
C6
ENDCHAR
STARTCHAR 05D8
ENCODING 1496
SWIDTH 648 0
DWIDTH 9 0
BBX 7 8 1 0
BITMAP
CC
DE
D6
C6
C6
C6
7C
38
ENDCHAR
STARTCHAR 05D9
ENCODING 1497
SWIDTH 288 0
DWIDTH 4 0
BBX 2 5 1 3
BITMAP
C0
C0
C0
C0
C0
ENDCHAR
STARTCHAR 05DA
ENCODING 1498
SWIDTH 504 0
DWIDTH 7 0
BBX 6 11 0 -3
BITMAP
F8
FC
0C
0C
04
04
04
04
04
04
04
ENDCHAR
STARTCHAR 05DB
ENCODING 1499
SWIDTH 504 0
DWIDTH 7 0
BBX 5 8 1 0
BITMAP
E0
F8
18
18
18
18
F8
E0
ENDCHAR
STARTCHAR 05DC
ENCODING 1500
SWIDTH 504 0
DWIDTH 7 0
BBX 6 10 0 0
BITMAP
C0
C0
FC
FC
0C
0C
0C
18
18
18
ENDCHAR
STARTCHAR 05DD
ENCODING 1501
SWIDTH 648 0
DWIDTH 9 0
BBX 7 8 1 0
BITMAP
F8
FC
CE
C6
C6
C6
FE
FE
ENDCHAR
STARTCHAR 05DE
ENCODING 1502
SWIDTH 648 0
DWIDTH 9 0
BBX 7 8 1 0
BITMAP
9C
FC
E6
E6
C6
C6
DE
DE
ENDCHAR
STARTCHAR 05DF
ENCODING 1503
SWIDTH 288 0
DWIDTH 4 0
BBX 2 11 1 -3
BITMAP
C0
C0
C0
C0
C0
C0
C0
C0
C0
C0
C0
ENDCHAR
STARTCHAR 05E0
ENCODING 1504
SWIDTH 360 0
DWIDTH 5 0
BBX 4 8 1 0
BITMAP
E0
E0
70
30
30
30
F0
F0
ENDCHAR
STARTCHAR 05E1
ENCODING 1505
SWIDTH 648 0
DWIDTH 9 0
BBX 7 8 1 0
BITMAP
78
FC
C6
C6
C6
C6
FC
78
ENDCHAR
STARTCHAR 05E2
ENCODING 1506
SWIDTH 576 0
DWIDTH 8 0
BBX 7 9 0 -1
BITMAP
66
66
66
66
26
3C
3C
F8
E0
ENDCHAR
STARTCHAR 05E3
ENCODING 1507
SWIDTH 576 0
DWIDTH 8 0
BBX 6 11 1 -3
BITMAP
F8
FC
8C
CC
E4
E4
04
04
04
04
04
ENDCHAR
STARTCHAR 05E4
ENCODING 1508
SWIDTH 576 0
DWIDTH 8 0
BBX 7 8 1 0
BITMAP
F8
FC
CC
E6
66
0C
FC
F8
ENDCHAR
STARTCHAR 05E5
ENCODING 1509
SWIDTH 504 0
DWIDTH 7 0
BBX 6 11 0 -3
BITMAP
CC
6C
6C
3C
38
30
30
30
30
30
30
ENDCHAR
STARTCHAR 05E6
ENCODING 1510
SWIDTH 504 0
DWIDTH 7 0
BBX 6 8 0 0
BITMAP
C4
64
2C
3C
18
18
FC
FC
ENDCHAR
STARTCHAR 05E7
ENCODING 1511
SWIDTH 576 0
DWIDTH 8 0
BBX 6 11 1 -3
BITMAP
FC
FC
0C
CC
CC
D8
D8
D8
C0
C0
C0
ENDCHAR
STARTCHAR 05E8
ENCODING 1512
SWIDTH 504 0
DWIDTH 7 0
BBX 6 8 0 0
BITMAP
F8
FC
0C
0C
04
04
04
04
ENDCHAR
STARTCHAR 05E9
ENCODING 1513
SWIDTH 720 0
DWIDTH 10 0
BBX 8 8 1 0
BITMAP
D9
DB
DB
FB
F3
C7
7E
3C
ENDCHAR
STARTCHAR 05EA
ENCODING 1514
SWIDTH 648 0
DWIDTH 9 0
BBX 9 8 0 0
BITMAP
FE00
7F00
3300
3100
3180
3180
7180
F180
ENDCHAR
STARTCHAR 05F0
ENCODING 1520
SWIDTH 576 0
DWIDTH 8 0
BBX 6 8 1 0
BITMAP
CC
CC
CC
CC
CC
CC
CC
CC
ENDCHAR
STARTCHAR 05F1
ENCODING 1521
SWIDTH 576 0
DWIDTH 8 0
BBX 6 8 1 0
BITMAP
CC
CC
CC
CC
CC
0C
0C
0C
ENDCHAR
STARTCHAR 05F2
ENCODING 1522
SWIDTH 576 0
DWIDTH 8 0
BBX 6 5 1 3
BITMAP
CC
CC
CC
CC
CC
ENDCHAR
STARTCHAR 05F3
ENCODING 1523
SWIDTH 288 0
DWIDTH 4 0
BBX 2 3 1 5
BITMAP
C0
C0
80
ENDCHAR
STARTCHAR 05F4
ENCODING 1524
SWIDTH 504 0
DWIDTH 7 0
BBX 5 3 1 5
BITMAP
D8
D8
90
ENDCHAR
STARTCHAR 0600
ENCODING 1536
SWIDTH 720 0
DWIDTH 10 0
BBX 10 5 0 -3
BITMAP
0080
0080
0080
FFC0
FFC0
ENDCHAR
STARTCHAR 0601
ENCODING 1537
SWIDTH 1368 0
DWIDTH 19 0
BBX 18 4 0 -3
BITMAP
010000
9D07C0
FFFFC0
66F880
ENDCHAR
STARTCHAR 0602
ENCODING 1538
SWIDTH 792 0
DWIDTH 11 0
BBX 10 5 0 -3
BITMAP
7000
5000
9000
7FC0
7FC0
ENDCHAR
STARTCHAR 0603
ENCODING 1539
SWIDTH 792 0
DWIDTH 11 0
BBX 11 5 0 -3
BITMAP
00E0
21E0
2320
FFE0
DFE0
ENDCHAR
STARTCHAR 060B
ENCODING 1547
SWIDTH 360 0
DWIDTH 5 0
BBX 5 12 0 -2
BITMAP
70
00
30
70
50
78
F8
F8
00
60
60
60
ENDCHAR
STARTCHAR 060C
ENCODING 1548
SWIDTH 288 0
DWIDTH 4 0
BBX 2 3 1 3
BITMAP
80
C0
C0
ENDCHAR
STARTCHAR 060D
ENCODING 1549
SWIDTH 216 0
DWIDTH 3 0
BBX 3 5 0 -1
BITMAP
20
60
40
80
80
ENDCHAR
STARTCHAR 060E
ENCODING 1550
SWIDTH 648 0
DWIDTH 9 0
BBX 9 5 0 2
BITMAP
E000
A000
A000
FF80
FF80
ENDCHAR
STARTCHAR 060F
ENCODING 1551
SWIDTH 576 0
DWIDTH 8 0
BBX 7 11 0 -3
BITMAP
38
40
40
6C
3C
70
5C
BE
C2
7E
BC
ENDCHAR
STARTCHAR 0610
ENCODING 1552
SWIDTH 0 0
DWIDTH 0 0
BBX 3 2 -1 9
BITMAP
60
C0
ENDCHAR
STARTCHAR 0611
ENCODING 1553
SWIDTH 0 0
DWIDTH 0 0
BBX 2 2 -1 9
BITMAP
40
C0
ENDCHAR
STARTCHAR 0612
ENCODING 1554
SWIDTH 0 0
DWIDTH 0 0
BBX 4 3 -2 9
BITMAP
F0
90
30
ENDCHAR
STARTCHAR 0613
ENCODING 1555
SWIDTH 0 0
DWIDTH 0 0
BBX 4 4 -2 9
BITMAP
40
70
F0
30
ENDCHAR
STARTCHAR 0614
ENCODING 1556
SWIDTH 0 0
DWIDTH 0 0
BBX 4 1 -2 11
BITMAP
F0
ENDCHAR
STARTCHAR 0615
ENCODING 1557
SWIDTH 0 0
DWIDTH 0 0
BBX 4 4 -2 8
BITMAP
40
40
70
F0
ENDCHAR
STARTCHAR 061B
ENCODING 1563
SWIDTH 288 0
DWIDTH 4 0
BBX 2 6 1 3
BITMAP
80
C0
C0
00
40
40
ENDCHAR
STARTCHAR 061E
ENCODING 1566
SWIDTH 432 0
DWIDTH 6 0
BBX 5 5 0 2
BITMAP
20
70
68
F8
48
ENDCHAR
STARTCHAR 061F
ENCODING 1567
SWIDTH 360 0
DWIDTH 5 0
BBX 5 8 0 2
BITMAP
70
C8
50
20
20
00
20
20
ENDCHAR
STARTCHAR 0621
ENCODING 1569
SWIDTH 504 0
DWIDTH 7 0
BBX 5 6 1 1
BITMAP
70
E0
80
D8
70
C0
ENDCHAR
STARTCHAR 0622
ENCODING 1570
SWIDTH 216 0
DWIDTH 3 0
BBX 3 10 0 2
BITMAP
E0
00
40
40
40
40
40
20
40
40
ENDCHAR
STARTCHAR 0623
ENCODING 1571
SWIDTH 216 0
DWIDTH 3 0
BBX 2 11 1 2
BITMAP
80
80
00
80
80
80
80
80
40
80
80
ENDCHAR
STARTCHAR 0624
ENCODING 1572
SWIDTH 432 0
DWIDTH 6 0
BBX 6 11 0 -1
BITMAP
20
30
00
0C
0C
14
1C
0C
8C
7C
38
ENDCHAR
STARTCHAR 0625
ENCODING 1573
SWIDTH 216 0
DWIDTH 3 0
BBX 2 11 1 -1
BITMAP
80
80
80
80
80
40
80
80
00
80
80
ENDCHAR
STARTCHAR 0626
ENCODING 1574
SWIDTH 648 0
DWIDTH 9 0
BBX 7 8 1 -1
BITMAP
40
C6
0E
48
8E
86
FC
F8
ENDCHAR
STARTCHAR 0627
ENCODING 1575
SWIDTH 216 0
DWIDTH 3 0
BBX 2 8 1 2
BITMAP
80
80
80
80
80
40
80
80
ENDCHAR
STARTCHAR 0628
ENCODING 1576
SWIDTH 648 0
DWIDTH 9 0
BBX 9 7 0 0
BITMAP
0080
8080
8080
7F80
7F80
0000
0C00
ENDCHAR
STARTCHAR 0629
ENCODING 1577
SWIDTH 360 0
DWIDTH 5 0
BBX 4 7 0 2
BITMAP
70
00
20
70
90
70
60
ENDCHAR
STARTCHAR 062A
ENCODING 1578
SWIDTH 648 0
DWIDTH 9 0
BBX 9 6 0 2
BITMAP
1C00
0080
8080
8080
7F80
7F80
ENDCHAR
STARTCHAR 062B
ENCODING 1579
SWIDTH 648 0
DWIDTH 9 0
BBX 9 7 0 2
BITMAP
0800
1C00
0080
8080
C080
7F80
7F80
ENDCHAR
STARTCHAR 062C
ENCODING 1580
SWIDTH 576 0
DWIDTH 8 0
BBX 8 10 0 -3
BITMAP
7E
7E
B0
40
40
9C
C0
60
7F
3E
ENDCHAR
STARTCHAR 062D
ENCODING 1581
SWIDTH 576 0
DWIDTH 8 0
BBX 8 10 0 -3
BITMAP
7E
7E
B0
40
40
80
C0
60
7F
3E
ENDCHAR
STARTCHAR 062E
ENCODING 1582
SWIDTH 576 0
DWIDTH 8 0
BBX 8 12 0 -3
BITMAP
38
00
7E
7E
B0
40
40
80
C0
60
7F
3E
ENDCHAR
STARTCHAR 062F
ENCODING 1583
SWIDTH 360 0
DWIDTH 5 0
BBX 4 6 1 2
BITMAP
20
20
30
10
F0
F0
ENDCHAR
STARTCHAR 0630
ENCODING 1584
SWIDTH 360 0
DWIDTH 5 0
BBX 4 8 1 2
BITMAP
E0
00
20
20
30
10
F0
F0
ENDCHAR
STARTCHAR 0631
ENCODING 1585
SWIDTH 432 0
DWIDTH 6 0
BBX 6 7 0 -1
BITMAP
04
04
04
04
04
98
70
ENDCHAR
STARTCHAR 0632
ENCODING 1586
SWIDTH 432 0
DWIDTH 6 0
BBX 6 9 0 -1
BITMAP
1C
00
04
04
04
04
04
98
70
ENDCHAR
STARTCHAR 0633
ENCODING 1587
SWIDTH 936 0
DWIDTH 13 0
BBX 13 7 0 -1
BITMAP
0230
4328
41F8
81D8
C300
7E00
7C00
ENDCHAR
STARTCHAR 0634
ENCODING 1588
SWIDTH 936 0
DWIDTH 13 0
BBX 13 10 0 -1
BITMAP
0060
0070
0000
0230
4328
41F8
81D8
C300
7E00
7C00
ENDCHAR
STARTCHAR 0635
ENCODING 1589
SWIDTH 1080 0
DWIDTH 15 0
BBX 15 8 0 -1
BITMAP
000C
023E
4362
41FE
81FE
C300
7E00
7C00
ENDCHAR
STARTCHAR 0636
ENCODING 1590
SWIDTH 1080 0
DWIDTH 15 0
BBX 15 10 0 -1
BITMAP
0060
0000
000C
023E
4362
41FE
81FE
C300
7E00
7C00
ENDCHAR
STARTCHAR 0637
ENCODING 1591
SWIDTH 504 0
DWIDTH 7 0
BBX 7 8 0 3
BITMAP
60
60
20
2E
3E
62
FE
FE
ENDCHAR
STARTCHAR 0638
ENCODING 1592
SWIDTH 504 0
DWIDTH 7 0
BBX 7 8 0 3
BITMAP
60
6C
20
2E
3E
62
FE
FE
ENDCHAR
STARTCHAR 0639
ENCODING 1593
SWIDTH 576 0
DWIDTH 8 0
BBX 7 11 0 -3
BITMAP
38
40
40
6C
3C
70
C0
80
C0
7E
3C
ENDCHAR
STARTCHAR 063A
ENCODING 1594
SWIDTH 576 0
DWIDTH 8 0
BBX 7 13 0 -3
BITMAP
30
00
38
40
40
6C
3C
70
C0
80
C0
7E
3C
ENDCHAR
STARTCHAR 0640
ENCODING 1600
SWIDTH 216 0
DWIDTH 3 0
BBX 3 2 0 2
BITMAP
E0
E0
ENDCHAR
STARTCHAR 0641
ENCODING 1601
SWIDTH 792 0
DWIDTH 11 0
BBX 11 8 0 2
BITMAP
00C0
0000
00C0
40C0
8160
81E0
FFE0
7FE0
ENDCHAR
STARTCHAR 0642
ENCODING 1602
SWIDTH 648 0
DWIDTH 9 0
BBX 9 11 0 -2
BITMAP
0700
0000
0300
0300
4580
4780
8380
8080
C180
7F00
3E00
ENDCHAR
STARTCHAR 0643
ENCODING 1603
SWIDTH 576 0
DWIDTH 8 0
BBX 8 9 0 2
BITMAP
04
0B
16
1A
4A
BA
82
FF
7F
ENDCHAR
STARTCHAR 0644
ENCODING 1604
SWIDTH 432 0
DWIDTH 6 0
BBX 6 11 0 0
BITMAP
0C
0C
04
04
04
44
84
84
84
FC
78
ENDCHAR
STARTCHAR 0645
ENCODING 1605
SWIDTH 360 0
DWIDTH 5 0
BBX 5 10 0 -3
BITMAP
30
70
18
78
F8
80
80
40
40
40
ENDCHAR
STARTCHAR 0646
ENCODING 1606
SWIDTH 576 0
DWIDTH 8 0
BBX 8 8 0 -1
BITMAP
18
00
42
41
81
C3
7E
7C
ENDCHAR
STARTCHAR 0647
ENCODING 1607
SWIDTH 360 0
DWIDTH 5 0
BBX 3 5 1 2
BITMAP
40
E0
A0
E0
C0
ENDCHAR
STARTCHAR 0648
ENCODING 1608
SWIDTH 432 0
DWIDTH 6 0
BBX 6 8 0 -1
BITMAP
0C
0C
14
1C
0C
8C
7C
38
ENDCHAR
STARTCHAR 0649
ENCODING 1609
SWIDTH 648 0
DWIDTH 9 0
BBX 7 7 1 -1
BITMAP
06
0E
48
8E
86
FC
F8
ENDCHAR
STARTCHAR 064A
ENCODING 1610
SWIDTH 648 0
DWIDTH 9 0
BBX 7 9 1 -3
BITMAP
06
0E
48
8E
86
FC
F8
00
38
ENDCHAR
STARTCHAR 064B
ENCODING 1611
SWIDTH 0 0
DWIDTH 0 0
BBX 3 4 0 10
BITMAP
20
C0
20
C0
ENDCHAR
STARTCHAR 064C
ENCODING 1612
SWIDTH 0 0
DWIDTH 0 0
BBX 2 2 1 10
BITMAP
C0
C0
ENDCHAR
STARTCHAR 064D
ENCODING 1613
SWIDTH 0 0
DWIDTH 0 0
BBX 2 3 1 -2
BITMAP
C0
00
C0
ENDCHAR
STARTCHAR 064E
ENCODING 1614
SWIDTH 0 0
DWIDTH 0 0
BBX 2 1 1 10
BITMAP
C0
ENDCHAR
STARTCHAR 064F
ENCODING 1615
SWIDTH 0 0
DWIDTH 0 0
BBX 2 2 1 10
BITMAP
40
C0
ENDCHAR
STARTCHAR 0650
ENCODING 1616
SWIDTH 0 0
DWIDTH 0 0
BBX 2 1 1 0
BITMAP
C0
ENDCHAR
STARTCHAR 0651
ENCODING 1617
SWIDTH 0 0
DWIDTH 0 0
BBX 2 1 1 11
BITMAP
C0
ENDCHAR
STARTCHAR 0652
ENCODING 1618
SWIDTH 0 0
DWIDTH 0 0
BBX 1 2 1 10
BITMAP
80
80
ENDCHAR
STARTCHAR 0653
ENCODING 1619
SWIDTH 0 0
DWIDTH 0 0
BBX 3 2 0 10
BITMAP
80
60
ENDCHAR
STARTCHAR 0654
ENCODING 1620
SWIDTH 0 0
DWIDTH 0 0
BBX 1 2 1 10
BITMAP
80
80
ENDCHAR
STARTCHAR 0655
ENCODING 1621
SWIDTH 0 0
DWIDTH 0 0
BBX 1 2 1 -2
BITMAP
80
80
ENDCHAR
STARTCHAR 0656
ENCODING 1622
SWIDTH 0 0
DWIDTH 0 0
BBX 1 2 -1 -2
BITMAP
80
80
ENDCHAR
STARTCHAR 0657
ENCODING 1623
SWIDTH 0 0
DWIDTH 0 0
BBX 2 2 -1 10
BITMAP
C0
80
ENDCHAR
STARTCHAR 0658
ENCODING 1624
SWIDTH 0 0
DWIDTH 0 0
BBX 2 2 -1 10
BITMAP
C0
C0
ENDCHAR
STARTCHAR 0659
ENCODING 1625
SWIDTH 0 0
DWIDTH 0 0
BBX 2 1 -1 9
BITMAP
C0
ENDCHAR
STARTCHAR 065A
ENCODING 1626
SWIDTH 0 0
DWIDTH 0 0
BBX 2 2 -1 8
BITMAP
C0
C0
ENDCHAR
STARTCHAR 065B
ENCODING 1627
SWIDTH 0 0
DWIDTH 0 0
BBX 2 2 -1 8
BITMAP
C0
C0
ENDCHAR
STARTCHAR 065C
ENCODING 1628
SWIDTH 0 0
DWIDTH 0 0
BBX 2 2 -1 -1
BITMAP
C0
C0
ENDCHAR
STARTCHAR 065D
ENCODING 1629
SWIDTH 0 0
DWIDTH 0 0
BBX 2 2 -1 10
BITMAP
80
C0
ENDCHAR
STARTCHAR 065E
ENCODING 1630
SWIDTH 0 0
DWIDTH 0 0
BBX 2 4 -1 8
BITMAP
80
40
80
40
ENDCHAR
STARTCHAR 0660
ENCODING 1632
SWIDTH 576 0
DWIDTH 8 0
BBX 2 4 3 3
BITMAP
80
C0
C0
40
ENDCHAR
STARTCHAR 0661
ENCODING 1633
SWIDTH 576 0
DWIDTH 8 0
BBX 3 8 2 2
BITMAP
40
40
E0
60
20
20
20
20
ENDCHAR
STARTCHAR 0662
ENCODING 1634
SWIDTH 576 0
DWIDTH 8 0
BBX 4 8 2 2
BITMAP
90
F0
E0
40
60
20
20
20
ENDCHAR
STARTCHAR 0663
ENCODING 1635
SWIDTH 576 0
DWIDTH 8 0
BBX 6 7 1 2
BITMAP
94
FC
FC
48
60
20
20
ENDCHAR
STARTCHAR 0664
ENCODING 1636
SWIDTH 576 0
DWIDTH 8 0
BBX 4 8 2 2
BITMAP
20
60
40
E0
C0
40
F0
60
ENDCHAR
STARTCHAR 0665
ENCODING 1637
SWIDTH 576 0
DWIDTH 8 0
BBX 4 6 2 3
BITMAP
60
F0
B0
90
F0
E0
ENDCHAR
STARTCHAR 0666
ENCODING 1638
SWIDTH 576 0
DWIDTH 8 0
BBX 5 8 1 2
BITMAP
80
F0
70
10
10
18
18
08
ENDCHAR
STARTCHAR 0667
ENCODING 1639
SWIDTH 576 0
DWIDTH 8 0
BBX 5 8 1 2
BITMAP
88
C8
C8
50
30
30
20
20
ENDCHAR
STARTCHAR 0668
ENCODING 1640
SWIDTH 576 0
DWIDTH 8 0
BBX 6 8 1 2
BITMAP
20
20
30
50
50
48
CC
88
ENDCHAR
STARTCHAR 0669
ENCODING 1641
SWIDTH 576 0
DWIDTH 8 0
BBX 4 8 2 2
BITMAP
60
E0
A0
E0
E0
30
30
10
ENDCHAR
STARTCHAR 066A
ENCODING 1642
SWIDTH 504 0
DWIDTH 7 0
BBX 5 10 1 1
BITMAP
C8
C8
10
10
20
20
40
40
98
98
ENDCHAR
STARTCHAR 066B
ENCODING 1643
SWIDTH 288 0
DWIDTH 4 0
BBX 2 4 1 0
BITMAP
C0
40
40
80
ENDCHAR
STARTCHAR 066C
ENCODING 1644
SWIDTH 288 0
DWIDTH 4 0
BBX 2 3 1 3
BITMAP
80
C0
C0
ENDCHAR
STARTCHAR 066D
ENCODING 1645
SWIDTH 504 0
DWIDTH 7 0
BBX 5 5 1 5
BITMAP
70
70
D8
70
70
ENDCHAR
STARTCHAR 066E
ENCODING 1646
SWIDTH 648 0
DWIDTH 9 0
BBX 9 5 0 2
BITMAP
8080
8080
8080
7F80
7F80
ENDCHAR
STARTCHAR 066F
ENCODING 1647
SWIDTH 648 0
DWIDTH 9 0
BBX 9 9 0 -2
BITMAP
0300
0300
4580
4780
8380
8080
C180
7F00
3E00
ENDCHAR
STARTCHAR 0670
ENCODING 1648
SWIDTH 0 0
DWIDTH 0 0
BBX 1 2 -1 9
BITMAP
80
80
ENDCHAR
STARTCHAR 0671
ENCODING 1649
SWIDTH 216 0
DWIDTH 3 0
BBX 3 10 0 2
BITMAP
60
E0
00
40
40
40
40
20
40
40
ENDCHAR
STARTCHAR 0672
ENCODING 1650
SWIDTH 216 0
DWIDTH 3 0
BBX 3 10 0 2
BITMAP
40
C0
00
40
40
40
40
20
40
40
ENDCHAR
STARTCHAR 0673
ENCODING 1651
SWIDTH 216 0
DWIDTH 3 0
BBX 3 12 0 -2
BITMAP
40
40
40
40
40
20
40
40
00
00
40
C0
ENDCHAR
STARTCHAR 0674
ENCODING 1652
SWIDTH 0 0
DWIDTH 0 0
BBX 1 2 1 10
BITMAP
80
80
ENDCHAR
STARTCHAR 0675
ENCODING 1653
SWIDTH 216 0
DWIDTH 3 0
BBX 3 8 1 2
BITMAP
A0
A0
80
80
80
40
80
80
ENDCHAR
STARTCHAR 0676
ENCODING 1654
SWIDTH 432 0
DWIDTH 6 0
BBX 6 11 0 -1
BITMAP
04
04
00
0C
0C
14
1C
0C
8C
7C
38
ENDCHAR
STARTCHAR 0677
ENCODING 1655
SWIDTH 432 0
DWIDTH 6 0
BBX 6 11 0 -1
BITMAP
0C
1C
00
0C
0C
14
1C
0C
8C
7C
38
ENDCHAR
STARTCHAR 0678
ENCODING 1656
SWIDTH 648 0
DWIDTH 9 0
BBX 8 10 1 -1
BITMAP
01
01
00
06
0E
48
8E
86
FC
F8
ENDCHAR
STARTCHAR 0679
ENCODING 1657
SWIDTH 648 0
DWIDTH 9 0
BBX 9 10 0 2
BITMAP
0800
0800
0E00
1E00
0000
8080
8080
8080
7F80
7F80
ENDCHAR
STARTCHAR 067A
ENCODING 1658
SWIDTH 648 0
DWIDTH 9 0
BBX 9 8 0 2
BITMAP
0800
0400
0000
8080
8080
8080
7F80
7F80
ENDCHAR
STARTCHAR 067B
ENCODING 1659
SWIDTH 648 0
DWIDTH 9 0
BBX 9 8 0 -1
BITMAP
8080
8080
8080
7F80
7F80
0000
0800
0400
ENDCHAR
STARTCHAR 067C
ENCODING 1660
SWIDTH 648 0
DWIDTH 9 0
BBX 9 8 0 0
BITMAP
1C00
0080
8080
8080
7F80
7F80
0400
0400
ENDCHAR
STARTCHAR 067D
ENCODING 1661
SWIDTH 648 0
DWIDTH 9 0
BBX 9 7 0 2
BITMAP
1C00
0400
8080
8080
8080
7F80
7F80
ENDCHAR
STARTCHAR 067E
ENCODING 1662
SWIDTH 648 0
DWIDTH 9 0
BBX 9 8 0 -1
BITMAP
0080
8080
8080
7F80
7F80
0000
1E00
0400
ENDCHAR
STARTCHAR 067F
ENCODING 1663
SWIDTH 648 0
DWIDTH 9 0
BBX 9 7 0 2
BITMAP
1C00
0E00
8080
8080
8080
7F80
7F80
ENDCHAR
STARTCHAR 0680
ENCODING 1664
SWIDTH 648 0
DWIDTH 9 0
BBX 9 8 0 -1
BITMAP
8080
8080
8080
7F80
7F80
0000
1C00
0E00
ENDCHAR
STARTCHAR 0681
ENCODING 1665
SWIDTH 576 0
DWIDTH 8 0
BBX 8 13 0 -3
BITMAP
08
08
00
7E
7E
B0
40
40
80
C0
60
7F
3E
ENDCHAR
STARTCHAR 0682
ENCODING 1666
SWIDTH 576 0
DWIDTH 8 0
BBX 8 13 0 -3
BITMAP
10
08
00
7E
7E
B0
40
40
80
C0
60
7F
3E
ENDCHAR
STARTCHAR 0683
ENCODING 1667
SWIDTH 576 0
DWIDTH 8 0
BBX 8 10 0 -3
BITMAP
7E
7E
B0
40
5E
80
C0
60
7F
3E
ENDCHAR
STARTCHAR 0684
ENCODING 1668
SWIDTH 576 0
DWIDTH 8 0
BBX 8 10 0 -3
BITMAP
7E
7E
B0
40
48
84
C0
60
7F
3E
ENDCHAR
STARTCHAR 0685
ENCODING 1669
SWIDTH 576 0
DWIDTH 8 0
BBX 8 13 0 -3
BITMAP
10
3C
00
7E
7E
B0
40
40
80
C0
60
7F
3E
ENDCHAR
STARTCHAR 0686
ENCODING 1670
SWIDTH 576 0
DWIDTH 8 0
BBX 8 10 0 -3
BITMAP
7E
7E
B0
40
5C
8C
C0
60
7F
3E
ENDCHAR
STARTCHAR 0687
ENCODING 1671
SWIDTH 576 0
DWIDTH 8 0
BBX 8 10 0 -3
BITMAP
7E
7E
B0
40
5C
8E
C0
60
7F
3E
ENDCHAR
STARTCHAR 0688
ENCODING 1672
SWIDTH 360 0
DWIDTH 5 0
BBX 5 11 0 2
BITMAP
40
40
70
F0
00
10
10
18
08
78
78
ENDCHAR
STARTCHAR 0689
ENCODING 1673
SWIDTH 360 0
DWIDTH 5 0
BBX 4 8 1 0
BITMAP
20
20
30
10
F0
F0
20
20
ENDCHAR
STARTCHAR 068A
ENCODING 1674
SWIDTH 360 0
DWIDTH 5 0
BBX 4 8 1 0
BITMAP
20
20
30
10
F0
F0
00
60
ENDCHAR
STARTCHAR 068B
ENCODING 1675
SWIDTH 360 0
DWIDTH 5 0
BBX 5 13 0 0
BITMAP
40
40
70
F0
00
10
10
18
08
78
78
00
30
ENDCHAR
STARTCHAR 068C
ENCODING 1676
SWIDTH 360 0
DWIDTH 5 0
BBX 4 8 1 2
BITMAP
F0
00
20
20
30
10
F0
F0
ENDCHAR
STARTCHAR 068D
ENCODING 1677
SWIDTH 360 0
DWIDTH 5 0
BBX 4 8 1 0
BITMAP
20
20
30
10
F0
F0
00
F0
ENDCHAR
STARTCHAR 068E
ENCODING 1678
SWIDTH 360 0
DWIDTH 5 0
BBX 4 9 1 2
BITMAP
40
F0
00
20
20
30
10
F0
F0
ENDCHAR
STARTCHAR 068F
ENCODING 1679
SWIDTH 360 0
DWIDTH 5 0
BBX 5 9 0 2
BITMAP
E0
20
00
10
10
18
08
78
78
ENDCHAR
STARTCHAR 0690
ENCODING 1680
SWIDTH 360 0
DWIDTH 5 0
BBX 4 9 1 2
BITMAP
E0
70
00
20
20
30
10
F0
F0
ENDCHAR
STARTCHAR 0691
ENCODING 1681
SWIDTH 432 0
DWIDTH 6 0
BBX 6 12 0 -1
BITMAP
10
10
1C
3C
00
04
04
04
04
04
98
70
ENDCHAR
STARTCHAR 0692
ENCODING 1682
SWIDTH 432 0
DWIDTH 6 0
BBX 6 10 0 -1
BITMAP
18
08
00
04
04
04
04
04
98
70
ENDCHAR
STARTCHAR 0693
ENCODING 1683
SWIDTH 432 0
DWIDTH 6 0
BBX 6 8 0 -2
BITMAP
04
04
04
04
04
98
74
04
ENDCHAR
STARTCHAR 0694
ENCODING 1684
SWIDTH 432 0
DWIDTH 6 0
BBX 7 8 0 -2
BITMAP
04
04
04
04
04
98
70
06
ENDCHAR
STARTCHAR 0695
ENCODING 1685
SWIDTH 432 0
DWIDTH 6 0
BBX 6 9 0 -3
BITMAP
04
04
04
04
04
98
70
0C
04
ENDCHAR
STARTCHAR 0696
ENCODING 1686
SWIDTH 432 0
DWIDTH 6 0
BBX 7 8 0 -2
BITMAP
04
04
04
34
04
98
70
06
ENDCHAR
STARTCHAR 0697
ENCODING 1687
SWIDTH 432 0
DWIDTH 6 0
BBX 7 9 0 -1
BITMAP
1E
00
04
04
04
04
04
98
70
ENDCHAR
STARTCHAR 0698
ENCODING 1688
SWIDTH 432 0
DWIDTH 6 0
BBX 6 10 0 -1
BITMAP
18
1C
00
04
04
04
04
04
98
70
ENDCHAR
STARTCHAR 0699
ENCODING 1689
SWIDTH 432 0
DWIDTH 6 0
BBX 6 10 0 -1
BITMAP
38
1C
00
04
04
04
04
04
98
70
ENDCHAR
STARTCHAR 069A
ENCODING 1690
SWIDTH 936 0
DWIDTH 13 0
BBX 13 9 0 -1
BITMAP
00C0
0000
0230
4328
41F8
81D8
C300
7E60
7C00
ENDCHAR
STARTCHAR 069B
ENCODING 1691
SWIDTH 936 0
DWIDTH 13 0
BBX 13 7 0 -1
BITMAP
0230
4328
41F8
81D8
C300
7EE0
7C20
ENDCHAR
STARTCHAR 069C
ENCODING 1692
SWIDTH 936 0
DWIDTH 13 0
BBX 13 10 0 -1
BITMAP
0060
0070
0000
0230
4328
41F8
81D8
C300
7EE0
7C20
ENDCHAR
STARTCHAR 069D
ENCODING 1693
SWIDTH 1080 0
DWIDTH 15 0
BBX 15 8 0 -1
BITMAP
000C
023E
4362
41FE
81FE
C300
7E3C
7C00
ENDCHAR
STARTCHAR 069E
ENCODING 1694
SWIDTH 1080 0
DWIDTH 15 0
BBX 15 11 0 -1
BITMAP
0040
00F0
0000
000C
023E
4362
41FE
81FE
C300
7E00
7C00
ENDCHAR
STARTCHAR 069F
ENCODING 1695
SWIDTH 504 0
DWIDTH 7 0
BBX 8 9 0 2
BITMAP
04
6F
60
20
2E
3E
62
FE
FE
ENDCHAR
STARTCHAR 06A0
ENCODING 1696
SWIDTH 576 0
DWIDTH 8 0
BBX 7 14 0 -3
BITMAP
40
F0
00
38
40
40
6C
3C
70
C0
80
C0
7E
3C
ENDCHAR
STARTCHAR 06A1
ENCODING 1697
SWIDTH 792 0
DWIDTH 11 0
BBX 11 6 0 2
BITMAP
00C0
40C0
8160
81E0
FFE0
7FE0
ENDCHAR
STARTCHAR 06A2
ENCODING 1698
SWIDTH 792 0
DWIDTH 11 0
BBX 11 8 0 0
BITMAP
00C0
40C0
8160
81E0
FFE0
7FE0
0000
00C0
ENDCHAR
STARTCHAR 06A3
ENCODING 1699
SWIDTH 792 0
DWIDTH 11 0
BBX 11 10 0 0
BITMAP
00C0
0000
00C0
40C0
8160
81E0
FFE0
7FE0
0000
0600
ENDCHAR
STARTCHAR 06A4
ENCODING 1700
SWIDTH 792 0
DWIDTH 11 0
BBX 11 9 0 2
BITMAP
0080
01E0
0000
00C0
40C0
8160
81E0
FFE0
7FE0
ENDCHAR
STARTCHAR 06A5
ENCODING 1701
SWIDTH 792 0
DWIDTH 11 0
BBX 11 9 0 -1
BITMAP
00C0
40C0
8160
81E0
FFE0
7FE0
0000
01C0
0040
ENDCHAR
STARTCHAR 06A6
ENCODING 1702
SWIDTH 792 0
DWIDTH 11 0
BBX 11 9 0 2
BITMAP
0380
01C0
0000
00C0
40C0
8160
81E0
FFE0
7FE0
ENDCHAR
STARTCHAR 06A7
ENCODING 1703
SWIDTH 648 0
DWIDTH 9 0
BBX 9 11 0 -2
BITMAP
0600
0000
0300
0300
4580
4780
8380
8080
C180
7F00
3E00
ENDCHAR
STARTCHAR 06A8
ENCODING 1704
SWIDTH 648 0
DWIDTH 9 0
BBX 9 12 0 -2
BITMAP
0400
0F00
0000
0300
0300
4580
4780
8380
8080
C180
7F00
3E00
ENDCHAR
STARTCHAR 06A9
ENCODING 1705
SWIDTH 792 0
DWIDTH 11 0
BBX 11 8 0 2
BITMAP
0040
01C0
0300
4300
8180
8040
FFE0
7FE0
ENDCHAR
STARTCHAR 06AA
ENCODING 1706
SWIDTH 1152 0
DWIDTH 16 0
BBX 15 9 1 2
BITMAP
0200
0600
0C00
107C
1FFE
1F82
001C
FFFC
7FC0
ENDCHAR
STARTCHAR 06AB
ENCODING 1707
SWIDTH 792 0
DWIDTH 11 0
BBX 11 8 0 2
BITMAP
0040
01C0
0340
4340
8180
8040
FFE0
7FE0
ENDCHAR
STARTCHAR 06AC
ENCODING 1708
SWIDTH 576 0
DWIDTH 8 0
BBX 8 10 0 2
BITMAP
18
04
0B
16
1A
4A
BA
82
FF
7F
ENDCHAR
STARTCHAR 06AD
ENCODING 1709
SWIDTH 576 0
DWIDTH 8 0
BBX 8 10 0 2
BITMAP
18
14
0B
16
1A
4A
BA
82
FF
7F
ENDCHAR
STARTCHAR 06AE
ENCODING 1710
SWIDTH 576 0
DWIDTH 8 0
BBX 8 12 0 -1
BITMAP
04
0B
16
1A
4A
BA
82
FF
7F
00
38
08
ENDCHAR
STARTCHAR 06AF
ENCODING 1711
SWIDTH 792 0
DWIDTH 11 0
BBX 11 10 0 2
BITMAP
0040
0180
0240
01C0
0300
4300
8180
8040
FFE0
7FE0
ENDCHAR
STARTCHAR 06B0
ENCODING 1712
SWIDTH 792 0
DWIDTH 11 0
BBX 11 10 0 2
BITMAP
0040
0180
0240
01C0
0340
4340
8180
8040
FFE0
7FE0
ENDCHAR
STARTCHAR 06B1
ENCODING 1713
SWIDTH 792 0
DWIDTH 11 0
BBX 11 10 0 2
BITMAP
03C0
0180
0240
01C0
0300
4300
8180
8040
FFE0
7FE0
ENDCHAR
STARTCHAR 06B2
ENCODING 1714
SWIDTH 792 0
DWIDTH 11 0
BBX 11 12 0 0
BITMAP
0040
0180
0240
01C0
0300
4300
8180
8040
FFE0
7FE0
0000
0F00
ENDCHAR
STARTCHAR 06B3
ENCODING 1715
SWIDTH 792 0
DWIDTH 11 0
BBX 11 13 0 -1
BITMAP
0040
0180
0240
01C0
0300
4300
8180
8040
FFE0
7FE0
0000
0400
0200
ENDCHAR
STARTCHAR 06B4
ENCODING 1716
SWIDTH 792 0
DWIDTH 11 0
BBX 11 10 0 2
BITMAP
0340
0380
0240
01C0
0300
4300
8180
8040
FFE0
7FE0
ENDCHAR
STARTCHAR 06B5
ENCODING 1717
SWIDTH 432 0
DWIDTH 6 0
BBX 6 13 0 -1
BITMAP
18
08
08
0C
04
04
04
44
84
84
84
FC
78
ENDCHAR
STARTCHAR 06B6
ENCODING 1718
SWIDTH 432 0
DWIDTH 6 0
BBX 6 13 0 -1
BITMAP
18
00
08
0C
04
04
04
44
84
84
84
FC
78
ENDCHAR
STARTCHAR 06B7
ENCODING 1719
SWIDTH 432 0
DWIDTH 6 0
BBX 6 13 0 -1
BITMAP
0C
08
08
0C
04
04
04
44
84
84
84
FC
78
ENDCHAR
STARTCHAR 06B8
ENCODING 1720
SWIDTH 432 0
DWIDTH 6 0
BBX 6 13 0 -2
BITMAP
0C
0C
04
04
04
44
84
84
84
FC
78
30
20
ENDCHAR
STARTCHAR 06B9
ENCODING 1721
SWIDTH 576 0
DWIDTH 8 0
BBX 8 10 0 -3
BITMAP
18
00
42
41
81
C3
7E
7C
00
18
ENDCHAR
STARTCHAR 06BA
ENCODING 1722
SWIDTH 576 0
DWIDTH 8 0
BBX 8 6 0 0
BITMAP
42
41
81
C3
7E
7C
ENDCHAR
STARTCHAR 06BB
ENCODING 1723
SWIDTH 576 0
DWIDTH 8 0
BBX 8 12 0 -1
BITMAP
10
10
1C
3C
00
00
42
41
81
C3
7E
7C
ENDCHAR
STARTCHAR 06BC
ENCODING 1724
SWIDTH 576 0
DWIDTH 8 0
BBX 8 10 0 -3
BITMAP
18
00
42
41
81
C3
7E
7C
10
10
ENDCHAR
STARTCHAR 06BD
ENCODING 1725
SWIDTH 576 0
DWIDTH 8 0
BBX 8 10 0 -1
BITMAP
10
3C
00
00
42
41
81
C3
7E
7C
ENDCHAR
STARTCHAR 06BE
ENCODING 1726
SWIDTH 504 0
DWIDTH 7 0
BBX 6 7 0 2
BITMAP
20
30
38
58
68
FC
D8
ENDCHAR
STARTCHAR 06BF
ENCODING 1727
SWIDTH 576 0
DWIDTH 8 0
BBX 8 12 0 -3
BITMAP
18
00
7E
7E
B0
40
5C
8C
C0
60
7F
3E
ENDCHAR
STARTCHAR 06C0
ENCODING 1728
SWIDTH 360 0
DWIDTH 5 0
BBX 3 8 1 2
BITMAP
80
80
00
40
E0
A0
E0
C0
ENDCHAR
STARTCHAR 06C1
ENCODING 1729
SWIDTH 360 0
DWIDTH 5 0
BBX 5 5 0 1
BITMAP
30
30
58
88
80
ENDCHAR
STARTCHAR 06C2
ENCODING 1730
SWIDTH 360 0
DWIDTH 5 0
BBX 5 8 0 1
BITMAP
20
20
00
30
30
58
88
80
ENDCHAR
STARTCHAR 06C3
ENCODING 1731
SWIDTH 360 0
DWIDTH 5 0
BBX 5 7 0 1
BITMAP
78
00
30
30
58
88
80
ENDCHAR
STARTCHAR 06C4
ENCODING 1732
SWIDTH 432 0
DWIDTH 6 0
BBX 6 8 0 -1
BITMAP
0C
0C
14
1C
0C
9C
7C
38
ENDCHAR
STARTCHAR 06C5
ENCODING 1733
SWIDTH 432 0
DWIDTH 6 0
BBX 6 8 0 -1
BITMAP
0C
0C
14
1C
0C
3C
8C
78
ENDCHAR
STARTCHAR 06C6
ENCODING 1734
SWIDTH 432 0
DWIDTH 6 0
BBX 6 11 0 -1
BITMAP
18
08
00
0C
0C
14
1C
0C
8C
7C
38
ENDCHAR
STARTCHAR 06C7
ENCODING 1735
SWIDTH 432 0
DWIDTH 6 0
BBX 6 11 0 -1
BITMAP
04
0C
00
0C
0C
14
1C
0C
8C
7C
38
ENDCHAR
STARTCHAR 06C8
ENCODING 1736
SWIDTH 432 0
DWIDTH 6 0
BBX 6 12 0 0
BITMAP
10
10
00
00
0C
0C
14
1C
0C
8C
7C
38
ENDCHAR
STARTCHAR 06C9
ENCODING 1737
SWIDTH 432 0
DWIDTH 6 0
BBX 6 11 0 -1
BITMAP
08
18
00
0C
0C
14
1C
0C
8C
7C
38
ENDCHAR
STARTCHAR 06CA
ENCODING 1738
SWIDTH 432 0
DWIDTH 6 0
BBX 6 10 0 -1
BITMAP
3C
00
0C
0C
14
1C
0C
8C
7C
38
ENDCHAR
STARTCHAR 06CB
ENCODING 1739
SWIDTH 432 0
DWIDTH 6 0
BBX 6 11 0 -1
BITMAP
10
3C
00
0C
0C
14
1C
0C
8C
7C
38
ENDCHAR
STARTCHAR 06CC
ENCODING 1740
SWIDTH 648 0
DWIDTH 9 0
BBX 7 7 1 -1
BITMAP
06
0E
48
8E
86
FC
F8
ENDCHAR
STARTCHAR 06CD
ENCODING 1741
SWIDTH 648 0
DWIDTH 9 0
BBX 8 7 0 -1
BITMAP
03
07
44
C7
43
7E
7C
ENDCHAR
STARTCHAR 06CE
ENCODING 1742
SWIDTH 648 0
DWIDTH 9 0
BBX 7 8 1 -1
BITMAP
60
26
0E
48
8E
86
FC
F8
ENDCHAR
STARTCHAR 06CF
ENCODING 1743
SWIDTH 432 0
DWIDTH 6 0
BBX 6 10 0 -1
BITMAP
18
00
0C
0C
14
1C
0C
8C
7C
38
ENDCHAR
STARTCHAR 06D0
ENCODING 1744
SWIDTH 648 0
DWIDTH 9 0
BBX 7 9 1 -3
BITMAP
06
0E
48
8E
86
FC
F8
20
20
ENDCHAR
STARTCHAR 06D1
ENCODING 1745
SWIDTH 648 0
DWIDTH 9 0
BBX 7 9 1 -3
BITMAP
06
0E
48
8E
86
FC
F8
30
20
ENDCHAR
STARTCHAR 06D2
ENCODING 1746
SWIDTH 792 0
DWIDTH 11 0
BBX 11 7 0 0
BITMAP
0400
0C00
3000
7000
4000
7FE0
FFC0
ENDCHAR
STARTCHAR 06D3
ENCODING 1747
SWIDTH 792 0
DWIDTH 11 0
BBX 11 9 0 0
BITMAP
1000
1000
0400
0C00
3000
7000
4000
7FE0
FFC0
ENDCHAR
STARTCHAR 06D4
ENCODING 1748
SWIDTH 216 0
DWIDTH 3 0
BBX 3 2 0 2
BITMAP
E0
E0
ENDCHAR
STARTCHAR 06D5
ENCODING 1749
SWIDTH 360 0
DWIDTH 5 0
BBX 3 5 1 2
BITMAP
40
E0
A0
E0
C0
ENDCHAR
STARTCHAR 06D6
ENCODING 1750
SWIDTH 0 0
DWIDTH 0 0
BBX 6 4 -3 8
BITMAP
4C
7C
80
F8
ENDCHAR
STARTCHAR 06D7
ENCODING 1751
SWIDTH 0 0
DWIDTH 0 0
BBX 6 4 -3 8
BITMAP
38
38
C0
FC
ENDCHAR
STARTCHAR 06D8
ENCODING 1752
SWIDTH 0 0
DWIDTH 0 0
BBX 3 2 -1 8
BITMAP
40
E0
ENDCHAR
STARTCHAR 06D9
ENCODING 1753
SWIDTH 0 0
DWIDTH 0 0
BBX 4 4 -2 8
BITMAP
90
60
20
60
ENDCHAR
STARTCHAR 06DA
ENCODING 1754
SWIDTH 0 0
DWIDTH 0 0
BBX 3 4 -2 8
BITMAP
E0
80
A0
60
ENDCHAR
STARTCHAR 06DB
ENCODING 1755
SWIDTH 0 0
DWIDTH 0 0
BBX 2 2 -1 8
BITMAP
80
C0
ENDCHAR
STARTCHAR 06DC
ENCODING 1756
SWIDTH 0 0
DWIDTH 0 0
BBX 6 3 -3 8
BITMAP
A4
9C
E0
ENDCHAR
STARTCHAR 06DD
ENCODING 1757
SWIDTH 1152 0
DWIDTH 16 0
BBX 15 15 0 -3
BITMAP
07C0
1C30
2FE8
1018
2004
4002
8002
8002
8002
4002
2004
1018
2FE8
1C30
07C0
ENDCHAR
STARTCHAR 06DE
ENCODING 1758
SWIDTH 1080 0
DWIDTH 15 0
BBX 13 15 1 -3
BITMAP
0200
0500
7FF0
5050
6030
4310
C518
C518
4318
4010
6030
5050
7FF0
0500
0200
ENDCHAR
STARTCHAR 06DF
ENCODING 1759
SWIDTH 0 0
DWIDTH 0 0
BBX 2 1 -1 8
BITMAP
C0
ENDCHAR
STARTCHAR 06E0
ENCODING 1760
SWIDTH 0 0
DWIDTH 0 0
BBX 0 0 0 8
BITMAP
ENDCHAR
STARTCHAR 06E1
ENCODING 1761
SWIDTH 0 0
DWIDTH 0 0
BBX 4 3 -2 8
BITMAP
40
20
F0
ENDCHAR
STARTCHAR 06E2
ENCODING 1762
SWIDTH 0 0
DWIDTH 0 0
BBX 2 4 -1 8
BITMAP
C0
C0
80
80
ENDCHAR
STARTCHAR 06E3
ENCODING 1763
SWIDTH 0 0
DWIDTH 0 0
BBX 6 3 -3 -3
BITMAP
A4
9C
E0
ENDCHAR
STARTCHAR 06E4
ENCODING 1764
SWIDTH 0 0
DWIDTH 0 0
BBX 2 1 -1 8
BITMAP
C0
ENDCHAR
STARTCHAR 06E5
ENCODING 1765
SWIDTH 216 0
DWIDTH 3 0
BBX 3 4 0 8
BITMAP
20
20
20
C0
ENDCHAR
STARTCHAR 06E6
ENCODING 1766
SWIDTH 360 0
DWIDTH 5 0
BBX 5 3 0 8
BITMAP
60
80
F8
ENDCHAR
STARTCHAR 06E7
ENCODING 1767
SWIDTH 0 0
DWIDTH 0 0
BBX 5 3 -3 8
BITMAP
60
80
F8
ENDCHAR
STARTCHAR 06E8
ENCODING 1768
SWIDTH 0 0
DWIDTH 0 0
BBX 4 4 -2 8
BITMAP
20
00
90
F0
ENDCHAR
STARTCHAR 06E9
ENCODING 1769
SWIDTH 576 0
DWIDTH 8 0
BBX 8 12 0 0
BITMAP
08
3C
56
FB
26
56
56
5E
66
5E
81
7F
ENDCHAR
STARTCHAR 06EA
ENCODING 1770
SWIDTH 0 0
DWIDTH 0 0
BBX 2 3 -1 -2
BITMAP
80
C0
80
ENDCHAR
STARTCHAR 06EB
ENCODING 1771
SWIDTH 0 0
DWIDTH 0 0
BBX 2 3 -1 8
BITMAP
80
C0
80
ENDCHAR
STARTCHAR 06EC
ENCODING 1772
SWIDTH 0 0
DWIDTH 0 0
BBX 2 1 -1 8
BITMAP
C0
ENDCHAR
STARTCHAR 06ED
ENCODING 1773
SWIDTH 0 0
DWIDTH 0 0
BBX 2 4 -1 -3
BITMAP
C0
C0
80
80
ENDCHAR
STARTCHAR 06EE
ENCODING 1774
SWIDTH 360 0
DWIDTH 5 0
BBX 4 10 1 2
BITMAP
40
C0
00
00
20
20
30
10
F0
F0
ENDCHAR
STARTCHAR 06EF
ENCODING 1775
SWIDTH 432 0
DWIDTH 6 0
BBX 6 10 0 -1
BITMAP
08
18
00
04
04
04
04
04
98
70
ENDCHAR
STARTCHAR 06F0
ENCODING 1776
SWIDTH 576 0
DWIDTH 8 0
BBX 2 4 3 3
BITMAP
80
C0
C0
40
ENDCHAR
STARTCHAR 06F1
ENCODING 1777
SWIDTH 576 0
DWIDTH 8 0
BBX 3 8 2 2
BITMAP
40
40
E0
60
20
20
20
20
ENDCHAR
STARTCHAR 06F2
ENCODING 1778
SWIDTH 576 0
DWIDTH 8 0
BBX 4 8 2 2
BITMAP
90
F0
E0
40
60
20
20
20
ENDCHAR
STARTCHAR 06F3
ENCODING 1779
SWIDTH 576 0
DWIDTH 8 0
BBX 6 7 1 2
BITMAP
94
FC
FC
48
60
20
20
ENDCHAR
STARTCHAR 06F4
ENCODING 1780
SWIDTH 576 0
DWIDTH 8 0
BBX 6 8 1 2
BITMAP
18
E0
FC
78
20
20
20
20
ENDCHAR
STARTCHAR 06F5
ENCODING 1781
SWIDTH 576 0
DWIDTH 8 0
BBX 5 8 1 2
BITMAP
20
30
38
58
48
D8
F8
78
ENDCHAR
STARTCHAR 06F6
ENCODING 1782
SWIDTH 576 0
DWIDTH 8 0
BBX 4 8 2 2
BITMAP
70
80
F0
F0
60
40
80
80
ENDCHAR
STARTCHAR 06F7
ENCODING 1783
SWIDTH 576 0
DWIDTH 8 0
BBX 5 8 1 2
BITMAP
88
C8
C8
50
30
30
20
20
ENDCHAR
STARTCHAR 06F8
ENCODING 1784
SWIDTH 576 0
DWIDTH 8 0
BBX 6 8 1 2
BITMAP
20
20
30
50
50
48
CC
88
ENDCHAR
STARTCHAR 06F9
ENCODING 1785
SWIDTH 576 0
DWIDTH 8 0
BBX 4 8 2 2
BITMAP
60
E0
A0
E0
E0
30
30
10
ENDCHAR
STARTCHAR 06FA
ENCODING 1786
SWIDTH 936 0
DWIDTH 13 0
BBX 13 10 0 -1
BITMAP
0060
0070
0000
0230
4328
41F8
81D8
C300
7E60
7C00
ENDCHAR
STARTCHAR 06FB
ENCODING 1787
SWIDTH 1080 0
DWIDTH 15 0
BBX 15 10 0 -1
BITMAP
0060
0000
000C
023E
4362
41FE
81FE
C300
7E30
7C00
ENDCHAR
STARTCHAR 06FC
ENCODING 1788
SWIDTH 576 0
DWIDTH 8 0
BBX 7 13 0 -3
BITMAP
30
00
38
40
40
6C
3C
70
CC
80
C0
7E
3C
ENDCHAR
STARTCHAR 06FD
ENCODING 1789
SWIDTH 504 0
DWIDTH 7 0
BBX 5 9 1 -2
BITMAP
70
E0
80
D8
70
C0
50
50
50
ENDCHAR
STARTCHAR 06FE
ENCODING 1790
SWIDTH 360 0
DWIDTH 5 0
BBX 5 10 0 -3
BITMAP
30
70
18
78
F8
80
A8
68
68
40
ENDCHAR
STARTCHAR 06FF
ENCODING 1791
SWIDTH 504 0
DWIDTH 7 0
BBX 6 10 0 2
BITMAP
20
60
00
20
30
38
58
68
FC
D8
ENDCHAR
STARTCHAR 0750
ENCODING 1872
SWIDTH 648 0
DWIDTH 9 0
BBX 9 8 0 -1
BITMAP
8080
8080
8080
7F80
7F80
0000
1E00
1E00
ENDCHAR
STARTCHAR 0751
ENCODING 1873
SWIDTH 648 0
DWIDTH 9 0
BBX 9 9 0 0
BITMAP
0800
1C00
0080
8080
C080
7F80
7F80
0000
0C00
ENDCHAR
STARTCHAR 0752
ENCODING 1874
SWIDTH 648 0
DWIDTH 9 0
BBX 9 8 0 -1
BITMAP
8080
8080
8080
7F80
7F80
0000
0800
1E00
ENDCHAR
STARTCHAR 0753
ENCODING 1875
SWIDTH 648 0
DWIDTH 9 0
BBX 9 9 0 -1
BITMAP
1C00
0080
8080
8080
7F80
7F80
0000
0800
1E00
ENDCHAR
STARTCHAR 0754
ENCODING 1876
SWIDTH 648 0
DWIDTH 9 0
BBX 9 9 0 0
BITMAP
0C00
0000
8080
8080
8080
7F80
7F80
0000
1E00
ENDCHAR
STARTCHAR 0755
ENCODING 1877
SWIDTH 648 0
DWIDTH 9 0
BBX 9 8 0 -1
BITMAP
8080
8080
8080
7F80
7F80
0000
0400
0C00
ENDCHAR
STARTCHAR 0756
ENCODING 1878
SWIDTH 648 0
DWIDTH 9 0
BBX 9 8 0 2
BITMAP
0C00
0400
0000
8080
8080
8080
7F80
7F80
ENDCHAR
STARTCHAR 0757
ENCODING 1879
SWIDTH 576 0
DWIDTH 8 0
BBX 8 12 0 -3
BITMAP
3C
00
7E
7E
B0
40
40
80
C0
60
7F
3E
ENDCHAR
STARTCHAR 0758
ENCODING 1880
SWIDTH 576 0
DWIDTH 8 0
BBX 8 10 0 -3
BITMAP
7E
7E
B0
40
48
9E
C0
60
7F
3E
ENDCHAR
STARTCHAR 0759
ENCODING 1881
SWIDTH 360 0
DWIDTH 5 0
BBX 5 14 0 -1
BITMAP
40
40
70
F0
00
10
10
18
08
78
78
00
20
10
ENDCHAR
STARTCHAR 075A
ENCODING 1882
SWIDTH 360 0
DWIDTH 5 0
BBX 4 9 1 -1
BITMAP
20
20
30
10
F0
F0
00
20
60
ENDCHAR
STARTCHAR 075B
ENCODING 1883
SWIDTH 432 0
DWIDTH 6 0
BBX 6 7 0 -1
BITMAP
04
04
04
04
3C
98
70
ENDCHAR
STARTCHAR 075C
ENCODING 1884
SWIDTH 936 0
DWIDTH 13 0
BBX 13 11 0 -1
BITMAP
00E0
0070
0000
0000
0230
4328
41F8
81D8
C300
7E00
7C00
ENDCHAR
STARTCHAR 075D
ENCODING 1885
SWIDTH 576 0
DWIDTH 8 0
BBX 7 13 0 -3
BITMAP
78
00
38
40
40
6C
3C
70
C0
80
C0
7E
3C
ENDCHAR
STARTCHAR 075E
ENCODING 1886
SWIDTH 576 0
DWIDTH 8 0
BBX 7 14 0 -3
BITMAP
70
10
00
38
40
40
6C
3C
70
C0
80
C0
7E
3C
ENDCHAR
STARTCHAR 075F
ENCODING 1887
SWIDTH 576 0
DWIDTH 8 0
BBX 7 14 0 -3
BITMAP
20
10
00
38
40
40
6C
3C
70
C0
80
C0
7E
3C
ENDCHAR
STARTCHAR 0760
ENCODING 1888
SWIDTH 792 0
DWIDTH 11 0
BBX 11 8 0 0
BITMAP
00C0
40C0
8160
81E0
FFE0
7FE0
0000
01E0
ENDCHAR
STARTCHAR 0761
ENCODING 1889
SWIDTH 792 0
DWIDTH 11 0
BBX 11 9 0 -1
BITMAP
00C0
40C0
8160
81E0
FFE0
7FE0
0000
0080
01E0
ENDCHAR
STARTCHAR 0762
ENCODING 1890
SWIDTH 792 0
DWIDTH 11 0
BBX 11 10 0 2
BITMAP
0180
0000
0040
01C0
0300
4300
8180
8040
FFE0
7FE0
ENDCHAR
STARTCHAR 0763
ENCODING 1891
SWIDTH 792 0
DWIDTH 11 0
BBX 11 10 0 2
BITMAP
0180
0100
0040
01C0
0300
4300
8180
8040
FFE0
7FE0
ENDCHAR
STARTCHAR 0764
ENCODING 1892
SWIDTH 792 0
DWIDTH 11 0
BBX 11 11 0 -1
BITMAP
0040
01C0
0300
4300
8180
8040
FFE0
7FE0
0000
0400
0F00
ENDCHAR
STARTCHAR 0765
ENCODING 1893
SWIDTH 360 0
DWIDTH 5 0
BBX 5 12 0 -3
BITMAP
60
00
30
70
18
78
F8
80
80
40
40
40
ENDCHAR
STARTCHAR 0766
ENCODING 1894
SWIDTH 360 0
DWIDTH 5 0
BBX 5 10 0 -3
BITMAP
30
70
18
78
F8
80
98
40
40
40
ENDCHAR
STARTCHAR 0767
ENCODING 1895
SWIDTH 576 0
DWIDTH 8 0
BBX 8 10 0 -3
BITMAP
18
00
42
41
81
C3
7E
7C
08
30
ENDCHAR
STARTCHAR 0768
ENCODING 1896
SWIDTH 576 0
DWIDTH 8 0
BBX 8 14 0 -1
BITMAP
10
10
1C
3C
00
18
00
00
42
41
81
C3
7E
7C
ENDCHAR
STARTCHAR 0769
ENCODING 1897
SWIDTH 576 0
DWIDTH 8 0
BBX 8 12 0 -1
BITMAP
18
08
00
18
00
00
42
41
81
C3
7E
7C
ENDCHAR
STARTCHAR 076A
ENCODING 1898
SWIDTH 432 0
DWIDTH 6 0
BBX 6 11 0 0
BITMAP
0C
0C
04
1C
04
44
84
84
84
FC
78
ENDCHAR
STARTCHAR 076B
ENCODING 1899
SWIDTH 432 0
DWIDTH 6 0
BBX 6 11 0 -1
BITMAP
10
08
00
00
04
04
04
04
04
98
70
ENDCHAR
STARTCHAR 076C
ENCODING 1900
SWIDTH 432 0
DWIDTH 6 0
BBX 6 10 0 -1
BITMAP
08
08
00
04
04
04
04
04
98
70
ENDCHAR
STARTCHAR 076D
ENCODING 1901
SWIDTH 936 0
DWIDTH 13 0
BBX 13 10 0 -1
BITMAP
0040
0020
0000
0230
4328
41F8
81D8
C300
7E00
7C00
ENDCHAR
STARTCHAR 1D00
ENCODING 7424
SWIDTH 576 0
DWIDTH 8 0
BBX 8 8 0 0
BITMAP
1C
3C
3C
26
7E
7E
43
C3
ENDCHAR
STARTCHAR 1D01
ENCODING 7425
SWIDTH 792 0
DWIDTH 11 0
BBX 10 8 0 0
BITMAP
1FC0
1FC0
3600
37C0
7FC0
7E00
67C0
C7C0
ENDCHAR
STARTCHAR 1D02
ENCODING 7426
SWIDTH 864 0
DWIDTH 12 0
BBX 11 8 1 0
BITMAP
7BC0
FFE0
0E60
FCC0
FF00
CC00
FFC0
73C0
ENDCHAR
STARTCHAR 1D03
ENCODING 7427
SWIDTH 648 0
DWIDTH 9 0
BBX 9 8 0 0
BITMAP
7E00
7F00
6300
FF80
FF80
6300
7F00
7E00
ENDCHAR
STARTCHAR 1D04
ENCODING 7428
SWIDTH 576 0
DWIDTH 8 0
BBX 6 8 1 0
BITMAP
78
FC
CC
C0
C0
CC
FC
78
ENDCHAR
STARTCHAR 1D05
ENCODING 7429
SWIDTH 576 0
DWIDTH 8 0
BBX 7 8 1 0
BITMAP
F8
FC
CC
C6
C6
CC
FC
F8
ENDCHAR
STARTCHAR 1D06
ENCODING 7430
SWIDTH 576 0
DWIDTH 8 0
BBX 8 8 0 0
BITMAP
7C
7E
66
F3
F3
66
7E
7C
ENDCHAR
STARTCHAR 1D07
ENCODING 7431
SWIDTH 504 0
DWIDTH 7 0
BBX 6 8 1 0
BITMAP
F8
F8
C0
F8
F8
C0
FC
FC
ENDCHAR
STARTCHAR 1D08
ENCODING 7432
SWIDTH 504 0
DWIDTH 7 0
BBX 6 8 0 0
BITMAP
38
7C
4C
18
1C
C4
7C
38
ENDCHAR
STARTCHAR 1D09
ENCODING 7433
SWIDTH 288 0
DWIDTH 4 0
BBX 2 11 1 -3
BITMAP
C0
C0
C0
C0
C0
C0
C0
C0
00
00
C0
ENDCHAR
STARTCHAR 1D0A
ENCODING 7434
SWIDTH 504 0
DWIDTH 7 0
BBX 5 8 1 0
BITMAP
18
18
18
18
18
D8
F8
70
ENDCHAR
STARTCHAR 1D0B
ENCODING 7435
SWIDTH 576 0
DWIDTH 8 0
BBX 6 8 1 0
BITMAP
CC
D8
F0
F0
F0
D8
DC
CC
ENDCHAR
STARTCHAR 1D0C
ENCODING 7436
SWIDTH 432 0
DWIDTH 6 0
BBX 6 8 0 0
BITMAP
60
70
70
60
E0
E0
7C
7C
ENDCHAR
STARTCHAR 1D0D
ENCODING 7437
SWIDTH 720 0
DWIDTH 10 0
BBX 8 8 1 0
BITMAP
E3
E3
E7
F7
F5
DD
DD
D9
ENDCHAR
STARTCHAR 1D0E
ENCODING 7438
SWIDTH 648 0
DWIDTH 9 0
BBX 7 8 1 0
BITMAP
C6
CE
D6
D6
E6
E6
E6
C6
ENDCHAR
STARTCHAR 1D0F
ENCODING 7439
SWIDTH 648 0
DWIDTH 9 0
BBX 7 8 1 0
BITMAP
78
FC
C6
C6
C6
C6
FC
78
ENDCHAR
STARTCHAR 1D10
ENCODING 7440
SWIDTH 576 0
DWIDTH 8 0
BBX 7 8 0 0
BITMAP
3C
7E
E6
06
06
C6
7E
3C
ENDCHAR
STARTCHAR 1D11
ENCODING 7441
SWIDTH 648 0
DWIDTH 9 0
BBX 7 8 1 0
BITMAP
78
FC
C6
82
82
C6
FC
78
ENDCHAR
STARTCHAR 1D12
ENCODING 7442
SWIDTH 648 0
DWIDTH 9 0
BBX 7 8 1 0
BITMAP
78
FC
C6
82
82
C6
C6
44
ENDCHAR
STARTCHAR 1D13
ENCODING 7443
SWIDTH 648 0
DWIDTH 9 0
BBX 7 8 1 0
BITMAP
78
FC
C6
B2
9A
CE
FE
7A
ENDCHAR
STARTCHAR 1D14
ENCODING 7444
SWIDTH 936 0
DWIDTH 13 0
BBX 12 8 1 0
BITMAP
7BC0
FFE0
0E60
FC30
FC30
CE60
FFE0
7BC0
ENDCHAR
STARTCHAR 1D15
ENCODING 7445
SWIDTH 576 0
DWIDTH 8 0
BBX 6 8 1 0
BITMAP
CC
CC
78
FC
CC
CC
FC
78
ENDCHAR
STARTCHAR 1D16
ENCODING 7446
SWIDTH 648 0
DWIDTH 9 0
BBX 7 4 1 4
BITMAP
78
FC
C6
C6
ENDCHAR
STARTCHAR 1D17
ENCODING 7447
SWIDTH 648 0
DWIDTH 9 0
BBX 7 4 1 0
BITMAP
C6
C6
FC
78
ENDCHAR
STARTCHAR 1D18
ENCODING 7448
SWIDTH 648 0
DWIDTH 9 0
BBX 7 8 1 0
BITMAP
FC
FE
C6
C6
FE
FC
C0
C0
ENDCHAR
STARTCHAR 1D19
ENCODING 7449
SWIDTH 576 0
DWIDTH 8 0
BBX 7 8 0 0
BITMAP
7E
7E
66
7E
3E
36
66
E6
ENDCHAR
STARTCHAR 1D1A
ENCODING 7450
SWIDTH 576 0
DWIDTH 8 0
BBX 7 8 0 0
BITMAP
E6
66
36
7E
7E
66
7E
7E
ENDCHAR
STARTCHAR 1D1B
ENCODING 7451
SWIDTH 504 0
DWIDTH 7 0
BBX 7 8 0 0
BITMAP
FE
FE
30
30
30
30
30
30
ENDCHAR
STARTCHAR 1D1C
ENCODING 7452
SWIDTH 576 0
DWIDTH 8 0
BBX 6 8 1 0
BITMAP
CC
CC
CC
CC
CC
CC
FC
78
ENDCHAR
STARTCHAR 1D1D
ENCODING 7453
SWIDTH 648 0
DWIDTH 9 0
BBX 7 7 1 0
BITMAP
FE
FE
04
02
06
FE
FC
ENDCHAR
STARTCHAR 1D1E
ENCODING 7454
SWIDTH 792 0
DWIDTH 11 0
BBX 9 7 1 0
BITMAP
3F80
BF80
0100
0080
0180
BF80
3F00
ENDCHAR
STARTCHAR 1D1F
ENCODING 7455
SWIDTH 648 0
DWIDTH 9 0
BBX 7 10 1 -1
BITMAP
FE
FE
04
06
FE
FC
06
06
FE
FC
ENDCHAR
STARTCHAR 1D20
ENCODING 7456
SWIDTH 576 0
DWIDTH 8 0
BBX 7 8 0 0
BITMAP
C6
66
66
6C
3C
3C
38
18
ENDCHAR
STARTCHAR 1D21
ENCODING 7457
SWIDTH 792 0
DWIDTH 11 0
BBX 11 8 0 0
BITMAP
CE60
CE40
6EC0
6AC0
7AC0
3B80
3B80
3180
ENDCHAR
STARTCHAR 1D22
ENCODING 7458
SWIDTH 504 0
DWIDTH 7 0
BBX 7 8 0 0
BITMAP
FE
FE
1C
18
30
60
FE
FE
ENDCHAR
STARTCHAR 1D23
ENCODING 7459
SWIDTH 504 0
DWIDTH 7 0
BBX 6 8 0 0
BITMAP
7C
7C
18
1C
0C
CC
7C
38
ENDCHAR
STARTCHAR 1D24
ENCODING 7460
SWIDTH 504 0
DWIDTH 7 0
BBX 5 8 1 0
BITMAP
F0
98
18
78
E0
C0
C8
70
ENDCHAR
STARTCHAR 1D25
ENCODING 7461
SWIDTH 648 0
DWIDTH 9 0
BBX 8 8 0 0
BITMAP
3C
3E
3E
3E
1C
9D
FF
77
ENDCHAR
STARTCHAR 1D26
ENCODING 7462
SWIDTH 432 0
DWIDTH 6 0
BBX 5 8 1 0
BITMAP
F8
F8
C0
C0
C0
C0
C0
C0
ENDCHAR
STARTCHAR 1D27
ENCODING 7463
SWIDTH 576 0
DWIDTH 8 0
BBX 7 8 0 0
BITMAP
18
38
3C
3C
64
66
66
C2
ENDCHAR
STARTCHAR 1D28
ENCODING 7464
SWIDTH 576 0
DWIDTH 8 0
BBX 6 8 1 0
BITMAP
FC
FC
CC
CC
CC
CC
CC
CC
ENDCHAR
STARTCHAR 1D29
ENCODING 7465
SWIDTH 648 0
DWIDTH 9 0
BBX 7 8 1 0
BITMAP
FC
FE
C6
C6
FE
FC
C0
C0
ENDCHAR
STARTCHAR 1D2A
ENCODING 7466
SWIDTH 792 0
DWIDTH 11 0
BBX 9 8 1 0
BITMAP
D980
D980
D980
DB80
FF00
7E00
1800
1800
ENDCHAR
STARTCHAR 1D2B
ENCODING 7467
SWIDTH 648 0
DWIDTH 9 0
BBX 8 8 0 0
BITMAP
3F
3F
23
23
23
63
E3
E3
ENDCHAR
STARTCHAR 1D2C
ENCODING 7468
SWIDTH 504 0
DWIDTH 7 0
BBX 7 7 0 3
BITMAP
30
28
28
68
7C
44
C6
ENDCHAR
STARTCHAR 1D2D
ENCODING 7469
SWIDTH 720 0
DWIDTH 10 0
BBX 9 7 0 3
BITMAP
1F80
3400
2400
2780
7C00
4400
C780
ENDCHAR
STARTCHAR 1D2E
ENCODING 7470
SWIDTH 432 0
DWIDTH 6 0
BBX 6 7 0 3
BITMAP
F8
CC
CC
F8
CC
C4
F8
ENDCHAR
STARTCHAR 1D2F
ENCODING 7471
SWIDTH 432 0
DWIDTH 6 0
BBX 6 7 0 3
BITMAP
F8
CC
CC
FC
CC
C4
F8
ENDCHAR
STARTCHAR 1D30
ENCODING 7472
SWIDTH 432 0
DWIDTH 6 0
BBX 6 7 0 3
BITMAP
F8
CC
C4
C4
C4
CC
F8
ENDCHAR
STARTCHAR 1D31
ENCODING 7473
SWIDTH 432 0
DWIDTH 6 0
BBX 5 7 0 3
BITMAP
F8
C0
C0
F8
C0
C0
F8
ENDCHAR
STARTCHAR 1D32
ENCODING 7474
SWIDTH 432 0
DWIDTH 6 0
BBX 5 7 0 3
BITMAP
F8
08
08
78
08
08
F8
ENDCHAR
STARTCHAR 1D33
ENCODING 7475
SWIDTH 504 0
DWIDTH 7 0
BBX 7 7 0 3
BITMAP
3C
46
C0
CE
C6
46
3C
ENDCHAR
STARTCHAR 1D34
ENCODING 7476
SWIDTH 432 0
DWIDTH 6 0
BBX 6 7 0 3
BITMAP
CC
CC
CC
FC
CC
CC
CC
ENDCHAR
STARTCHAR 1D35
ENCODING 7477
SWIDTH 216 0
DWIDTH 3 0
BBX 1 7 1 3
BITMAP
80
80
80
80
80
80
80
ENDCHAR
STARTCHAR 1D36
ENCODING 7478
SWIDTH 360 0
DWIDTH 5 0
BBX 5 7 0 3
BITMAP
18
18
18
18
18
D8
70
ENDCHAR
STARTCHAR 1D37
ENCODING 7479
SWIDTH 432 0
DWIDTH 6 0
BBX 6 7 0 3
BITMAP
CC
D8
D0
F0
D8
CC
CC
ENDCHAR
STARTCHAR 1D38
ENCODING 7480
SWIDTH 360 0
DWIDTH 5 0
BBX 5 7 0 3
BITMAP
C0
C0
C0
C0
C0
C0
F8
ENDCHAR
STARTCHAR 1D39
ENCODING 7481
SWIDTH 504 0
DWIDTH 7 0
BBX 7 7 0 3
BITMAP
E6
EE
EA
EA
FA
DA
D2
ENDCHAR
STARTCHAR 1D3A
ENCODING 7482
SWIDTH 432 0
DWIDTH 6 0
BBX 6 7 0 3
BITMAP
CC
CC
EC
DC
DC
CC
CC
ENDCHAR
STARTCHAR 1D3B
ENCODING 7483
SWIDTH 432 0
DWIDTH 6 0
BBX 6 7 0 3
BITMAP
CC
CC
DC
DC
EC
CC
CC
ENDCHAR
STARTCHAR 1D3C
ENCODING 7484
SWIDTH 504 0
DWIDTH 7 0
BBX 7 7 0 3
BITMAP
3C
44
C6
C6
C6
44
3C
ENDCHAR
STARTCHAR 1D3D
ENCODING 7485
SWIDTH 432 0
DWIDTH 6 0
BBX 6 7 0 3
BITMAP
4C
48
78
CC
CC
CC
78
ENDCHAR
STARTCHAR 1D3E
ENCODING 7486
SWIDTH 432 0
DWIDTH 6 0
BBX 5 7 0 3
BITMAP
F8
C8
C8
F8
C0
C0
C0
ENDCHAR
STARTCHAR 1D3F
ENCODING 7487
SWIDTH 432 0
DWIDTH 6 0
BBX 6 7 0 3
BITMAP
F8
CC
CC
F8
D8
CC
CC
ENDCHAR
STARTCHAR 1D40
ENCODING 7488
SWIDTH 432 0
DWIDTH 6 0
BBX 6 7 0 3
BITMAP
FC
30
30
30
30
30
30
ENDCHAR
STARTCHAR 1D41
ENCODING 7489
SWIDTH 432 0
DWIDTH 6 0
BBX 6 7 0 3
BITMAP
CC
CC
CC
CC
CC
4C
78
ENDCHAR
STARTCHAR 1D42
ENCODING 7490
SWIDTH 648 0
DWIDTH 9 0
BBX 9 7 0 3
BITMAP
8980
D580
5500
5500
5500
6500
6200
ENDCHAR
STARTCHAR 1D43
ENCODING 7491
SWIDTH 360 0
DWIDTH 5 0
BBX 5 5 0 3
BITMAP
70
58
78
D8
68
ENDCHAR
STARTCHAR 1D44
ENCODING 7492
SWIDTH 360 0
DWIDTH 5 0
BBX 4 5 1 3
BITMAP
F0
90
E0
B0
E0
ENDCHAR
STARTCHAR 1D45
ENCODING 7493
SWIDTH 360 0
DWIDTH 5 0
BBX 5 5 0 3
BITMAP
78
C8
C8
C8
78
ENDCHAR
STARTCHAR 1D46
ENCODING 7494
SWIDTH 576 0
DWIDTH 8 0
BBX 8 5 0 3
BITMAP
77
19
FE
5B
7E
ENDCHAR
STARTCHAR 1D47
ENCODING 7495
SWIDTH 360 0
DWIDTH 5 0
BBX 5 7 0 3
BITMAP
C0
C0
F0
C8
C8
C8
F0
ENDCHAR
STARTCHAR 1D48
ENCODING 7496
SWIDTH 360 0
DWIDTH 5 0
BBX 5 7 0 3
BITMAP
08
08
78
C8
C8
C8
78
ENDCHAR
STARTCHAR 1D49
ENCODING 7497
SWIDTH 360 0
DWIDTH 5 0
BBX 5 5 0 3
BITMAP
70
48
F8
C0
78
ENDCHAR
STARTCHAR 1D4A
ENCODING 7498
SWIDTH 360 0
DWIDTH 5 0
BBX 5 5 0 3
BITMAP
70
18
F8
58
70
ENDCHAR
STARTCHAR 1D4B
ENCODING 7499
SWIDTH 360 0
DWIDTH 5 0
BBX 5 5 0 3
BITMAP
70
50
60
D8
70
ENDCHAR
STARTCHAR 1D4C
ENCODING 7500
SWIDTH 360 0
DWIDTH 5 0
BBX 5 5 0 3
BITMAP
70
50
30
D8
70
ENDCHAR
STARTCHAR 1D4D
ENCODING 7501
SWIDTH 360 0
DWIDTH 5 0
BBX 5 7 0 1
BITMAP
78
C8
C8
C8
78
08
78
ENDCHAR
STARTCHAR 1D4E
ENCODING 7502
SWIDTH 144 0
DWIDTH 2 0
BBX 2 7 0 1
BITMAP
C0
C0
C0
C0
C0
00
C0
ENDCHAR
STARTCHAR 1D4F
ENCODING 7503
SWIDTH 360 0
DWIDTH 5 0
BBX 5 7 0 3
BITMAP
C0
C0
D0
E0
E0
D0
D8
ENDCHAR
STARTCHAR 1D50
ENCODING 7504
SWIDTH 576 0
DWIDTH 8 0
BBX 8 5 0 3
BITMAP
F6
DB
DB
DB
DB
ENDCHAR
STARTCHAR 1D51
ENCODING 7505
SWIDTH 360 0
DWIDTH 5 0
BBX 5 7 0 1
BITMAP
F0
D8
C8
C8
C8
18
18
ENDCHAR
STARTCHAR 1D52
ENCODING 7506
SWIDTH 432 0
DWIDTH 6 0
BBX 5 5 0 3
BITMAP
70
48
C8
48
70
ENDCHAR
STARTCHAR 1D53
ENCODING 7507
SWIDTH 360 0
DWIDTH 5 0
BBX 5 5 0 3
BITMAP
70
D8
08
D8
70
ENDCHAR
STARTCHAR 1D54
ENCODING 7508
SWIDTH 432 0
DWIDTH 6 0
BBX 5 3 0 5
BITMAP
70
48
C8
ENDCHAR
STARTCHAR 1D55
ENCODING 7509
SWIDTH 432 0
DWIDTH 6 0
BBX 5 3 0 3
BITMAP
C8
48
70
ENDCHAR
STARTCHAR 1D56
ENCODING 7510
SWIDTH 360 0
DWIDTH 5 0
BBX 5 7 0 1
BITMAP
F0
C8
C8
C8
F0
C0
C0
ENDCHAR
STARTCHAR 1D57
ENCODING 7511
SWIDTH 216 0
DWIDTH 3 0
BBX 3 7 0 3
BITMAP
40
40
E0
40
40
40
60
ENDCHAR
STARTCHAR 1D58
ENCODING 7512
SWIDTH 360 0
DWIDTH 5 0
BBX 5 5 0 3
BITMAP
C8
C8
C8
D8
68
ENDCHAR
STARTCHAR 1D59
ENCODING 7513
SWIDTH 432 0
DWIDTH 6 0
BBX 5 4 0 3
BITMAP
F8
08
08
F8
ENDCHAR
STARTCHAR 1D5A
ENCODING 7514
SWIDTH 576 0
DWIDTH 8 0
BBX 8 5 0 3
BITMAP
DB
DB
DB
DB
6F
ENDCHAR
STARTCHAR 1D5B
ENCODING 7515
SWIDTH 360 0
DWIDTH 5 0
BBX 5 5 0 3
BITMAP
C8
58
50
70
20
ENDCHAR
STARTCHAR 1D5C
ENCODING 7516
SWIDTH 432 0
DWIDTH 6 0
BBX 6 5 0 3
BITMAP
70
78
70
30
FC
ENDCHAR
STARTCHAR 1D5D
ENCODING 7517
SWIDTH 360 0
DWIDTH 5 0
BBX 5 9 0 1
BITMAP
70
D8
D8
F0
C8
C8
F8
C0
C0
ENDCHAR
STARTCHAR 1D5E
ENCODING 7518
SWIDTH 360 0
DWIDTH 5 0
BBX 5 7 0 1
BITMAP
C8
58
50
70
20
20
20
ENDCHAR
STARTCHAR 1D5F
ENCODING 7519
SWIDTH 432 0
DWIDTH 6 0
BBX 5 7 0 3
BITMAP
78
20
78
C8
C8
48
70
ENDCHAR
STARTCHAR 1D60
ENCODING 7520
SWIDTH 504 0
DWIDTH 7 0
BBX 6 7 0 1
BITMAP
5C
D4
D4
54
78
10
10
ENDCHAR
STARTCHAR 1D61
ENCODING 7521
SWIDTH 360 0
DWIDTH 5 0
BBX 5 7 0 1
BITMAP
C8
50
70
20
70
58
C8
ENDCHAR
STARTCHAR 1D62
ENCODING 7522
SWIDTH 144 0
DWIDTH 2 0
BBX 2 7 0 -1
BITMAP
C0
00
C0
C0
C0
C0
C0
ENDCHAR
STARTCHAR 1D63
ENCODING 7523
SWIDTH 288 0
DWIDTH 4 0
BBX 3 5 0 -1
BITMAP
E0
C0
C0
C0
C0
ENDCHAR
STARTCHAR 1D64
ENCODING 7524
SWIDTH 360 0
DWIDTH 5 0
BBX 5 5 0 -1
BITMAP
C8
C8
C8
D8
68
ENDCHAR
STARTCHAR 1D65
ENCODING 7525
SWIDTH 360 0
DWIDTH 5 0
BBX 5 5 0 -1
BITMAP
C8
58
50
70
20
ENDCHAR
STARTCHAR 1D66
ENCODING 7526
SWIDTH 360 0
DWIDTH 5 0
BBX 5 9 0 -3
BITMAP
70
D8
D8
F0
C8
C8
F8
C0
C0
ENDCHAR
STARTCHAR 1D67
ENCODING 7527
SWIDTH 360 0
DWIDTH 5 0
BBX 5 7 0 -3
BITMAP
C8
58
50
70
20
20
20
ENDCHAR
STARTCHAR 1D68
ENCODING 7528
SWIDTH 432 0
DWIDTH 6 0
BBX 5 7 0 -3
BITMAP
70
48
C8
C8
B0
40
78
ENDCHAR
STARTCHAR 1D69
ENCODING 7529
SWIDTH 504 0
DWIDTH 7 0
BBX 6 7 0 -3
BITMAP
5C
D4
D4
54
78
10
10
ENDCHAR
STARTCHAR 1D6A
ENCODING 7530
SWIDTH 360 0
DWIDTH 5 0
BBX 5 7 0 -3
BITMAP
C8
50
70
20
70
58
C8
ENDCHAR
STARTCHAR 1D6B
ENCODING 7531
SWIDTH 936 0
DWIDTH 13 0
BBX 11 8 1 0
BITMAP
C7C0
C7E0
C660
C7E0
C600
CE60
FFE0
73C0
ENDCHAR
STARTCHAR 1D6C
ENCODING 7532
SWIDTH 648 0
DWIDTH 9 0
BBX 8 10 0 0
BITMAP
F0
F0
6E
7E
63
63
63
63
7E
6E
ENDCHAR
STARTCHAR 1D6D
ENCODING 7533
SWIDTH 648 0
DWIDTH 9 0
BBX 8 10 1 0
BITMAP
0F
17
76
FE
CE
C6
C6
CE
FE
76
ENDCHAR
STARTCHAR 1D6E
ENCODING 7534
SWIDTH 360 0
DWIDTH 5 0
BBX 5 10 0 0
BITMAP
38
60
F8
F8
60
60
E8
F0
60
60
ENDCHAR
STARTCHAR 1D6F
ENCODING 7535
SWIDTH 864 0
DWIDTH 12 0
BBX 13 8 0 0
BITMAP
6CE0
7FE0
6770
6630
7E38
E7F0
6630
6630
ENDCHAR
STARTCHAR 1D70
ENCODING 7536
SWIDTH 648 0
DWIDTH 9 0
BBX 9 8 0 0
BITMAP
6E00
7E00
6700
6300
7380
EF00
6300
6300
ENDCHAR
STARTCHAR 1D71
ENCODING 7537
SWIDTH 648 0
DWIDTH 9 0
BBX 8 11 0 -3
BITMAP
6E
7E
73
63
63
63
7E
6E
F0
F0
60
ENDCHAR
STARTCHAR 1D72
ENCODING 7538
SWIDTH 360 0
DWIDTH 5 0
BBX 6 8 0 0
BITMAP
7C
78
60
60
F0
F0
60
60
ENDCHAR
STARTCHAR 1D73
ENCODING 7539
SWIDTH 360 0
DWIDTH 5 0
BBX 6 8 0 0
BITMAP
3C
78
60
60
F0
F0
60
60
ENDCHAR
STARTCHAR 1D74
ENCODING 7540
SWIDTH 576 0
DWIDTH 8 0
BBX 8 8 0 0
BITMAP
3C
7E
40
F9
BE
06
FE
7C
ENDCHAR
STARTCHAR 1D75
ENCODING 7541
SWIDTH 360 0
DWIDTH 5 0
BBX 4 10 0 0
BITMAP
20
60
F0
F0
60
F0
F0
60
70
30
ENDCHAR
STARTCHAR 1D76
ENCODING 7542
SWIDTH 504 0
DWIDTH 7 0
BBX 7 8 0 0
BITMAP
FE
FE
1C
7A
BC
60
FE
FE
ENDCHAR
STARTCHAR 1D77
ENCODING 7543
SWIDTH 648 0
DWIDTH 9 0
BBX 7 11 1 -3
BITMAP
7C
FE
CE
DC
FC
C6
C6
C6
C6
FC
DC
ENDCHAR
STARTCHAR 1D78
ENCODING 7544
SWIDTH 360 0
DWIDTH 5 0
BBX 5 5 0 3
BITMAP
D8
D8
F8
D8
D8
ENDCHAR
STARTCHAR 1D79
ENCODING 7545
SWIDTH 648 0
DWIDTH 9 0
BBX 7 11 1 -3
BITMAP
FC
FC
18
18
7C
C6
86
86
C6
FC
78
ENDCHAR
STARTCHAR 1D7A
ENCODING 7546
SWIDTH 864 0
DWIDTH 12 0
BBX 11 10 0 0
BITMAP
2680
6700
F7C0
F7E0
6660
6E60
7660
6660
7660
7660
ENDCHAR
STARTCHAR 1D7B
ENCODING 7547
SWIDTH 288 0
DWIDTH 4 0
BBX 4 8 0 0
BITMAP
60
60
60
F0
60
60
60
60
ENDCHAR
STARTCHAR 1D7C
ENCODING 7548
SWIDTH 288 0
DWIDTH 4 0
BBX 4 8 0 0
BITMAP
60
60
60
F0
60
60
60
60
ENDCHAR
STARTCHAR 1D7D
ENCODING 7549
SWIDTH 648 0
DWIDTH 9 0
BBX 8 11 0 -3
BITMAP
6E
7F
73
FF
63
63
7E
6C
60
60
60
ENDCHAR
STARTCHAR 1D7E
ENCODING 7550
SWIDTH 576 0
DWIDTH 8 0
BBX 8 8 0 0
BITMAP
66
66
66
FF
66
66
7E
3C
ENDCHAR
STARTCHAR 1D7F
ENCODING 7551
SWIDTH 648 0
DWIDTH 9 0
BBX 9 8 0 0
BITMAP
F700
F700
6200
6300
FF80
6300
7F00
3E00
ENDCHAR
STARTCHAR 1D80
ENCODING 7552
SWIDTH 648 0
DWIDTH 9 0
BBX 7 13 1 -3
BITMAP
C0
C0
DC
FC
C6
C6
C6
C6
FC
DC
04
04
0C
ENDCHAR
STARTCHAR 1D81
ENCODING 7553
SWIDTH 648 0
DWIDTH 9 0
BBX 7 13 1 -3
BITMAP
06
06
76
FE
CE
C6
C6
CE
FE
76
02
02
06
ENDCHAR
STARTCHAR 1D82
ENCODING 7554
SWIDTH 360 0
DWIDTH 5 0
BBX 5 13 0 -3
BITMAP
38
60
F8
F8
60
60
60
60
60
70
10
30
60
ENDCHAR
STARTCHAR 1D83
ENCODING 7555
SWIDTH 792 0
DWIDTH 11 0
BBX 10 11 1 -3
BITMAP
7600
FE00
CE00
C600
C600
CE00
FFC0
76C0
C680
FD80
7800
ENDCHAR
STARTCHAR 1D84
ENCODING 7556
SWIDTH 576 0
DWIDTH 8 0
BBX 7 13 1 -3
BITMAP
C0
C0
CC
D8
F0
F0
F8
D8
CC
CE
02
06
0C
ENDCHAR
STARTCHAR 1D85
ENCODING 7557
SWIDTH 288 0
DWIDTH 4 0
BBX 3 13 1 -3
BITMAP
C0
C0
C0
C0
C0
C0
C0
C0
C0
E0
60
40
C0
ENDCHAR
STARTCHAR 1D86
ENCODING 7558
SWIDTH 864 0
DWIDTH 12 0
BBX 11 11 1 -3
BITMAP
D9C0
FFC0
CEE0
CC60
CC60
CC60
CC60
CC60
0020
0020
00E0
ENDCHAR
STARTCHAR 1D87
ENCODING 7559
SWIDTH 648 0
DWIDTH 9 0
BBX 7 11 1 -3
BITMAP
DC
FC
CE
C6
C6
C6
C6
C6
02
02
06
ENDCHAR
STARTCHAR 1D88
ENCODING 7560
SWIDTH 648 0
DWIDTH 9 0
BBX 7 11 1 -3
BITMAP
DC
FC
E6
C6
C6
C6
FC
DC
C4
C4
CC
ENDCHAR
STARTCHAR 1D89
ENCODING 7561
SWIDTH 360 0
DWIDTH 5 0
BBX 5 11 1 -3
BITMAP
F8
F0
C0
C0
C0
C0
C0
C0
40
40
C0
ENDCHAR
STARTCHAR 1D8A
ENCODING 7562
SWIDTH 576 0
DWIDTH 8 0
BBX 7 11 0 -3
BITMAP
3C
7E
40
78
3E
06
FE
7E
02
02
0E
ENDCHAR
STARTCHAR 1D8B
ENCODING 7563
SWIDTH 504 0
DWIDTH 7 0
BBX 6 13 0 -3
BITMAP
38
38
20
20
20
20
20
20
3C
24
64
EC
E0
ENDCHAR
STARTCHAR 1D8C
ENCODING 7564
SWIDTH 576 0
DWIDTH 8 0
BBX 7 11 0 -3
BITMAP
C6
66
66
6C
3C
3C
38
1E
06
04
0C
ENDCHAR
STARTCHAR 1D8D
ENCODING 7565
SWIDTH 576 0
DWIDTH 8 0
BBX 8 11 0 -3
BITMAP
66
6C
3C
38
38
3C
6E
E7
01
03
06
ENDCHAR
STARTCHAR 1D8E
ENCODING 7566
SWIDTH 504 0
DWIDTH 7 0
BBX 7 11 0 -3
BITMAP
FE
FE
1C
18
30
60
FE
FE
06
06
0C
ENDCHAR
STARTCHAR 1D8F
ENCODING 7567
SWIDTH 576 0
DWIDTH 8 0
BBX 8 11 1 -3
BITMAP
78
FC
0C
3C
EC
8C
FC
FC
04
04
03
ENDCHAR
STARTCHAR 1D90
ENCODING 7568
SWIDTH 648 0
DWIDTH 9 0
BBX 9 11 1 -3
BITMAP
7600
FE00
CE00
C600
C600
CE00
FE00
7600
0200
0200
0380
ENDCHAR
STARTCHAR 1D91
ENCODING 7569
SWIDTH 648 0
DWIDTH 9 0
BBX 9 13 1 -3
BITMAP
0780
0700
7600
FE00
CE00
C600
C600
CE00
FE00
7600
0600
0700
0300
ENDCHAR
STARTCHAR 1D92
ENCODING 7570
SWIDTH 576 0
DWIDTH 8 0
BBX 9 11 0 -3
BITMAP
3C00
7E00
6600
FE00
FE00
6000
7E00
3E00
0200
0200
0380
ENDCHAR
STARTCHAR 1D93
ENCODING 7571
SWIDTH 504 0
DWIDTH 7 0
BBX 7 11 1 -3
BITMAP
70
F8
C8
60
C0
CC
FC
7C
04
04
06
ENDCHAR
STARTCHAR 1D94
ENCODING 7572
SWIDTH 504 0
DWIDTH 7 0
BBX 6 11 0 -3
BITMAP
38
7C
CC
18
0C
CC
FC
F8
80
80
60
ENDCHAR
STARTCHAR 1D95
ENCODING 7573
SWIDTH 648 0
DWIDTH 9 0
BBX 9 11 1 -3
BITMAP
7800
FC00
0C00
FF00
FF00
CF00
FF00
7B00
0300
0300
0180
ENDCHAR
STARTCHAR 1D96
ENCODING 7574
SWIDTH 288 0
DWIDTH 4 0
BBX 4 13 1 -3
BITMAP
C0
00
C0
C0
C0
C0
C0
C0
C0
C0
40
60
30
ENDCHAR
STARTCHAR 1D97
ENCODING 7575
SWIDTH 576 0
DWIDTH 8 0
BBX 7 11 0 -3
BITMAP
3C
7E
E6
06
06
C6
FE
FC
C0
C0
60
ENDCHAR
STARTCHAR 1D98
ENCODING 7576
SWIDTH 360 0
DWIDTH 5 0
BBX 5 13 0 -3
BITMAP
38
38
20
20
20
20
20
20
60
E0
E0
80
C0
ENDCHAR
STARTCHAR 1D99
ENCODING 7577
SWIDTH 648 0
DWIDTH 9 0
BBX 9 11 1 -3
BITMAP
C600
C600
C600
C600
C600
CE00
FE00
7600
0200
0200
0380
ENDCHAR
STARTCHAR 1D9A
ENCODING 7578
SWIDTH 504 0
DWIDTH 7 0
BBX 7 11 0 -3
BITMAP
7E
7E
0C
18
1C
06
C6
FE
BC
C0
60
ENDCHAR
STARTCHAR 1D9B
ENCODING 7579
SWIDTH 360 0
DWIDTH 5 0
BBX 5 5 0 3
BITMAP
F0
C8
C8
C8
F0
ENDCHAR
STARTCHAR 1D9C
ENCODING 7580
SWIDTH 360 0
DWIDTH 5 0
BBX 5 5 0 3
BITMAP
70
D8
C0
C8
70
ENDCHAR
STARTCHAR 1D9D
ENCODING 7581
SWIDTH 360 0
DWIDTH 5 0
BBX 5 5 0 3
BITMAP
70
D8
F8
48
F0
ENDCHAR
STARTCHAR 1D9E
ENCODING 7582
SWIDTH 432 0
DWIDTH 6 0
BBX 5 7 0 3
BITMAP
30
10
78
C8
C8
48
70
ENDCHAR
STARTCHAR 1D9F
ENCODING 7583
SWIDTH 360 0
DWIDTH 5 0
BBX 5 5 0 3
BITMAP
70
50
30
D8
70
ENDCHAR
STARTCHAR 1DA0
ENCODING 7584
SWIDTH 216 0
DWIDTH 3 0
BBX 3 7 0 3
BITMAP
60
40
E0
40
40
40
40
ENDCHAR
STARTCHAR 1DA1
ENCODING 7585
SWIDTH 216 0
DWIDTH 3 0
BBX 3 7 0 1
BITMAP
60
60
60
60
E0
60
C0
ENDCHAR
STARTCHAR 1DA2
ENCODING 7586
SWIDTH 360 0
DWIDTH 5 0
BBX 5 7 0 1
BITMAP
78
C8
C8
C8
78
08
78
ENDCHAR
STARTCHAR 1DA3
ENCODING 7587
SWIDTH 360 0
DWIDTH 5 0
BBX 5 7 0 3
BITMAP
D8
D8
D8
D8
78
18
18
ENDCHAR
STARTCHAR 1DA4
ENCODING 7588
SWIDTH 216 0
DWIDTH 3 0
BBX 2 7 0 3
BITMAP
40
00
40
40
C0
40
40
ENDCHAR
STARTCHAR 1DA5
ENCODING 7589
SWIDTH 144 0
DWIDTH 2 0
BBX 2 5 0 3
BITMAP
C0
C0
C0
C0
C0
ENDCHAR
STARTCHAR 1DA6
ENCODING 7590
SWIDTH 144 0
DWIDTH 2 0
BBX 2 5 0 3
BITMAP
C0
C0
C0
C0
C0
ENDCHAR
STARTCHAR 1DA7
ENCODING 7591
SWIDTH 216 0
DWIDTH 3 0
BBX 2 5 0 3
BITMAP
40
40
C0
40
40
ENDCHAR
STARTCHAR 1DA8
ENCODING 7592
SWIDTH 288 0
DWIDTH 4 0
BBX 4 9 0 1
BITMAP
30
00
30
30
30
30
F0
A0
E0
ENDCHAR
STARTCHAR 1DA9
ENCODING 7593
SWIDTH 216 0
DWIDTH 3 0
BBX 3 9 0 1
BITMAP
C0
C0
C0
C0
C0
C0
C0
C0
60
ENDCHAR
STARTCHAR 1DAA
ENCODING 7594
SWIDTH 144 0
DWIDTH 2 0
BBX 2 9 0 1
BITMAP
C0
C0
C0
C0
C0
C0
C0
40
C0
ENDCHAR
STARTCHAR 1DAB
ENCODING 7595
SWIDTH 288 0
DWIDTH 4 0
BBX 4 5 0 3
BITMAP
C0
C0
C0
C0
F0
ENDCHAR
STARTCHAR 1DAC
ENCODING 7596
SWIDTH 576 0
DWIDTH 8 0
BBX 8 7 0 1
BITMAP
F6
DB
DB
DB
DB
03
06
ENDCHAR
STARTCHAR 1DAD
ENCODING 7597
SWIDTH 576 0
DWIDTH 8 0
BBX 8 7 0 1
BITMAP
DB
DB
DB
DB
6F
03
03
ENDCHAR
STARTCHAR 1DAE
ENCODING 7598
SWIDTH 432 0
DWIDTH 6 0
BBX 6 7 0 1
BITMAP
58
6C
4C
4C
4C
40
C0
ENDCHAR
STARTCHAR 1DAF
ENCODING 7599
SWIDTH 432 0
DWIDTH 6 0
BBX 6 7 0 1
BITMAP
F0
D8
C8
C8
C8
08
0C
ENDCHAR
STARTCHAR 1DB0
ENCODING 7600
SWIDTH 360 0
DWIDTH 5 0
BBX 5 5 0 3
BITMAP
C8
E8
E8
D8
D8
ENDCHAR
STARTCHAR 1DB1
ENCODING 7601
SWIDTH 432 0
DWIDTH 6 0
BBX 5 5 0 3
BITMAP
70
C8
F8
48
70
ENDCHAR
STARTCHAR 1DB2
ENCODING 7602
SWIDTH 504 0
DWIDTH 7 0
BBX 7 9 0 1
BITMAP
10
10
7C
54
D6
56
7C
10
10
ENDCHAR
STARTCHAR 1DB3
ENCODING 7603
SWIDTH 360 0
DWIDTH 5 0
BBX 5 7 0 1
BITMAP
70
40
70
08
F0
C0
60
ENDCHAR
STARTCHAR 1DB4
ENCODING 7604
SWIDTH 288 0
DWIDTH 4 0
BBX 4 9 0 1
BITMAP
30
60
60
60
60
60
60
60
C0
ENDCHAR
STARTCHAR 1DB5
ENCODING 7605
SWIDTH 216 0
DWIDTH 3 0
BBX 3 9 0 1
BITMAP
40
40
E0
40
40
40
60
20
60
ENDCHAR
STARTCHAR 1DB6
ENCODING 7606
SWIDTH 432 0
DWIDTH 6 0
BBX 6 5 0 3
BITMAP
48
48
FC
48
78
ENDCHAR
STARTCHAR 1DB7
ENCODING 7607
SWIDTH 432 0
DWIDTH 6 0
BBX 6 5 0 3
BITMAP
FC
48
C8
48
78
ENDCHAR
STARTCHAR 1DB8
ENCODING 7608
SWIDTH 360 0
DWIDTH 5 0
BBX 5 5 0 3
BITMAP
D8
D8
D8
D8
70
ENDCHAR
STARTCHAR 1DB9
ENCODING 7609
SWIDTH 360 0
DWIDTH 5 0
BBX 5 5 0 3
BITMAP
F0
D8
D8
D0
70
ENDCHAR
STARTCHAR 1DBA
ENCODING 7610
SWIDTH 360 0
DWIDTH 5 0
BBX 5 5 0 3
BITMAP
20
70
50
58
C8
ENDCHAR
STARTCHAR 1DBB
ENCODING 7611
SWIDTH 360 0
DWIDTH 5 0
BBX 5 5 0 3
BITMAP
78
30
20
40
F8
ENDCHAR
STARTCHAR 1DBC
ENCODING 7612
SWIDTH 360 0
DWIDTH 5 0
BBX 6 7 0 1
BITMAP
78
30
20
40
F8
18
0C
ENDCHAR
STARTCHAR 1DBD
ENCODING 7613
SWIDTH 504 0
DWIDTH 7 0
BBX 6 6 0 2
BITMAP
78
30
2C
54
FC
20
ENDCHAR
STARTCHAR 1DBE
ENCODING 7614
SWIDTH 360 0
DWIDTH 5 0
BBX 5 7 0 1
BITMAP
78
10
30
18
08
D8
70
ENDCHAR
STARTCHAR 1DBF
ENCODING 7615
SWIDTH 360 0
DWIDTH 5 0
BBX 5 7 0 3
BITMAP
70
50
D8
F8
D8
50
70
ENDCHAR
STARTCHAR 1DC0
ENCODING 7616
SWIDTH 0 0
DWIDTH 0 0
BBX 5 3 -2 9
BITMAP
D8
60
A0
ENDCHAR
STARTCHAR 1DC1
ENCODING 7617
SWIDTH 0 0
DWIDTH 0 0
BBX 5 3 -2 9
BITMAP
B0
60
58
ENDCHAR
STARTCHAR 1DC2
ENCODING 7618
SWIDTH 0 0
DWIDTH 0 0
BBX 2 2 -1 -3
BITMAP
80
C0
ENDCHAR
STARTCHAR 1DC3
ENCODING 7619
SWIDTH 0 0
DWIDTH 0 0
BBX 4 2 -2 9
BITMAP
90
E0
ENDCHAR
STARTCHAR 1DC4
ENCODING 7620
SWIDTH 0 0
DWIDTH 0 0
BBX 4 2 -2 8
BITMAP
10
E0
ENDCHAR
STARTCHAR 1DC5
ENCODING 7621
SWIDTH 0 0
DWIDTH 0 0
BBX 4 2 -2 8
BITMAP
80
70
ENDCHAR
STARTCHAR 1DC6
ENCODING 7622
SWIDTH 0 0
DWIDTH 0 0
BBX 4 2 -2 8
BITMAP
E0
10
ENDCHAR
STARTCHAR 1DC7
ENCODING 7623
SWIDTH 0 0
DWIDTH 0 0
BBX 4 2 -2 8
BITMAP
70
80
ENDCHAR
STARTCHAR 1DC8
ENCODING 7624
SWIDTH 0 0
DWIDTH 0 0
BBX 6 2 -3 8
BITMAP
98
64
ENDCHAR
STARTCHAR 1DC9
ENCODING 7625
SWIDTH 0 0
DWIDTH 0 0
BBX 6 2 -3 8
BITMAP
64
98
ENDCHAR
STARTCHAR 1DCA
ENCODING 7626
SWIDTH 0 0
DWIDTH 0 0
BBX 2 3 -1 -3
BITMAP
C0
80
80
ENDCHAR
STARTCHAR 1DFE
ENCODING 7678
SWIDTH 0 0
DWIDTH 0 0
BBX 2 3 -1 8
BITMAP
40
80
40
ENDCHAR
STARTCHAR 1DFF
ENCODING 7679
SWIDTH 0 0
DWIDTH 0 0
BBX 5 3 -2 -4
BITMAP
A8
50
80
ENDCHAR
STARTCHAR 1E00
ENCODING 7680
SWIDTH 720 0
DWIDTH 10 0
BBX 10 13 0 -3
BITMAP
0C00
1E00
1E00
1600
3300
3300
7F80
7F80
6180
C0C0
0C00
1400
0C00
ENDCHAR
STARTCHAR 1E01
ENCODING 7681
SWIDTH 576 0
DWIDTH 8 0
BBX 6 11 1 -3
BITMAP
78
FC
0C
3C
CC
CC
FC
EC
60
A0
60
ENDCHAR
STARTCHAR 1E02
ENCODING 7682
SWIDTH 720 0
DWIDTH 10 0
BBX 8 13 1 0
BITMAP
30
30
00
FE
FF
C3
C3
FE
FF
C3
C3
FF
FE
ENDCHAR
STARTCHAR 1E03
ENCODING 7683
SWIDTH 648 0
DWIDTH 9 0
BBX 7 11 1 0
BITMAP
18
D8
C0
FC
FC
C6
C6
C6
C6
FC
FC
ENDCHAR
STARTCHAR 1E04
ENCODING 7684
SWIDTH 720 0
DWIDTH 10 0
BBX 8 13 1 -3
BITMAP
FE
FF
C3
C3
FE
FF
C3
C3
FF
FE
00
18
18
ENDCHAR
STARTCHAR 1E05
ENCODING 7685
SWIDTH 648 0
DWIDTH 9 0
BBX 7 13 1 -3
BITMAP
C0
C0
FC
FC
C6
C6
C6
C6
FC
FC
00
30
30
ENDCHAR
STARTCHAR 1E06
ENCODING 7686
SWIDTH 720 0
DWIDTH 10 0
BBX 8 12 1 -2
BITMAP
FE
FF
C3
C3
FE
FF
C3
C3
FF
FE
00
78
ENDCHAR
STARTCHAR 1E07
ENCODING 7687
SWIDTH 648 0
DWIDTH 9 0
BBX 7 12 1 -2
BITMAP
C0
C0
FC
FC
C6
C6
C6
C6
FC
FC
00
78
ENDCHAR
ENDFONT
